%FSLAX34Y34*%
G04 Gerber Fmt 3.4, Leading zero omitted, Abs format*
G04 (created by PCBNEW (2014-05-21 BZR 4875)-product) date Friday 04 July 2014 06:07:35 PM IST*
%MOIN*%
G01*
G70*
G90*
G04 APERTURE LIST*
%ADD10C,0.005906*%
%ADD11C,0.010000*%
%ADD12R,0.045000X0.055000*%
%ADD13R,0.055000X0.045000*%
%ADD14C,0.070000*%
%ADD15R,0.050000X0.035000*%
%ADD16R,0.059000X0.051200*%
%ADD17R,0.080000X0.024000*%
%ADD18C,0.065000*%
%ADD19R,0.065000X0.065000*%
%ADD20R,0.070000X0.070000*%
%ADD21R,0.048031X0.035827*%
%ADD22R,0.330000X0.070000*%
%ADD23C,0.035000*%
%ADD24C,0.030000*%
%ADD25C,0.015000*%
G04 APERTURE END LIST*
G54D10*
G54D11*
X18405Y-16437D02*
X11318Y-16437D01*
X22736Y-10826D02*
X22736Y-13779D01*
X22342Y-10433D02*
X19192Y-10433D01*
X22342Y-14173D02*
X19192Y-14173D01*
X22342Y-14173D02*
G75*
G03X22736Y-13779I0J393D01*
G74*
G01*
X22736Y-10826D02*
G75*
G03X22342Y-10433I-393J0D01*
G74*
G01*
X11318Y-9350D02*
X18405Y-9350D01*
X10925Y-16043D02*
X10925Y-9744D01*
X10925Y-16043D02*
G75*
G03X11318Y-16437I393J0D01*
G74*
G01*
X11318Y-9350D02*
G75*
G03X10925Y-9744I0J-393D01*
G74*
G01*
X18799Y-10039D02*
X18799Y-9744D01*
X18799Y-16043D02*
X18799Y-14566D01*
X18799Y-9744D02*
G75*
G03X18405Y-9350I-393J0D01*
G74*
G01*
X18799Y-10039D02*
G75*
G03X19192Y-10433I393J0D01*
G74*
G01*
X18405Y-16437D02*
G75*
G03X18799Y-16043I0J393D01*
G74*
G01*
X19192Y-14173D02*
G75*
G03X18799Y-14566I0J-393D01*
G74*
G01*
G54D12*
X16240Y-11044D03*
X16240Y-10294D03*
G54D13*
X17479Y-12775D03*
X18229Y-12775D03*
X18229Y-10413D03*
X17479Y-10413D03*
G54D14*
X11692Y-14606D03*
G54D15*
X14254Y-10926D03*
X13304Y-10551D03*
X14254Y-10176D03*
G54D16*
X15295Y-10294D03*
X15295Y-11044D03*
G54D17*
X15500Y-11875D03*
X13600Y-11875D03*
X15500Y-12375D03*
X15500Y-12875D03*
X15500Y-13375D03*
X13600Y-12375D03*
X13600Y-12875D03*
X13600Y-13375D03*
G54D15*
X18211Y-12008D03*
X17261Y-11633D03*
X18211Y-11258D03*
G54D18*
X11712Y-13303D03*
G54D19*
X11712Y-12303D03*
G54D18*
X11712Y-11303D03*
G54D20*
X17696Y-14606D03*
G54D14*
X16696Y-14606D03*
X15696Y-14606D03*
X14696Y-14606D03*
X13696Y-14606D03*
X12696Y-14606D03*
G54D21*
X16476Y-12033D03*
X16476Y-13320D03*
G54D22*
X20970Y-13303D03*
X20970Y-11303D03*
G54D19*
X14681Y-15846D03*
G54D18*
X13681Y-15846D03*
X12681Y-15846D03*
G54D19*
X15732Y-15846D03*
G54D18*
X16732Y-15846D03*
X17732Y-15846D03*
G54D23*
X16751Y-12539D03*
X18228Y-10866D03*
X14232Y-12874D03*
X17086Y-13287D03*
X18582Y-13267D03*
X14251Y-9803D03*
X16850Y-9803D03*
X16240Y-9803D03*
X17479Y-9803D03*
X18877Y-11594D03*
X18740Y-12007D03*
X17874Y-13267D03*
X18228Y-13188D03*
X13897Y-9803D03*
X14606Y-9803D03*
X14232Y-13385D03*
X17716Y-12165D03*
G54D24*
X16870Y-12421D02*
X17261Y-12421D01*
X16751Y-12539D02*
X16870Y-12421D01*
X17261Y-12033D02*
X17261Y-12421D01*
X17261Y-12421D02*
X17261Y-12557D01*
X17261Y-12557D02*
X17479Y-12775D01*
X16476Y-12033D02*
X17261Y-12033D01*
X17261Y-11633D02*
X17261Y-12033D01*
G54D11*
X18229Y-10865D02*
X18229Y-10413D01*
X18228Y-10866D02*
X18229Y-10865D01*
X15500Y-11875D02*
X15500Y-11704D01*
X16122Y-11594D02*
X16240Y-11476D01*
X15610Y-11594D02*
X16122Y-11594D01*
X15500Y-11704D02*
X15610Y-11594D01*
X16240Y-11044D02*
X16240Y-11476D01*
X18211Y-11258D02*
X17813Y-11258D01*
X17599Y-11044D02*
X16240Y-11044D01*
X17813Y-11258D02*
X17599Y-11044D01*
X18229Y-10413D02*
X18229Y-11240D01*
X18229Y-11240D02*
X18211Y-11258D01*
X12893Y-12598D02*
X12893Y-13405D01*
X13117Y-12375D02*
X12893Y-12598D01*
X13600Y-12375D02*
X13117Y-12375D01*
X12893Y-13405D02*
X11692Y-14606D01*
X16220Y-14035D02*
X17125Y-14035D01*
X17125Y-14035D02*
X17696Y-14606D01*
X15500Y-12875D02*
X15965Y-12875D01*
X15965Y-12875D02*
X16062Y-12972D01*
X16062Y-13877D02*
X16220Y-14035D01*
X16062Y-12972D02*
X16062Y-13877D01*
X14696Y-14606D02*
X14696Y-15090D01*
X15732Y-15417D02*
X15732Y-15846D01*
X15551Y-15236D02*
X15732Y-15417D01*
X14842Y-15236D02*
X15551Y-15236D01*
X14696Y-15090D02*
X14842Y-15236D01*
X14696Y-14606D02*
X14696Y-14811D01*
X15500Y-13375D02*
X14842Y-13375D01*
X14842Y-11497D02*
X14842Y-13375D01*
X14842Y-13375D02*
X14842Y-14460D01*
X14842Y-14460D02*
X14696Y-14606D01*
X14842Y-11497D02*
X15295Y-11044D01*
X14232Y-12874D02*
X14231Y-12875D01*
X13600Y-12875D02*
X14231Y-12875D01*
X14625Y-12500D02*
X14625Y-13677D01*
X14625Y-13677D02*
X13696Y-14606D01*
X14625Y-12500D02*
X14000Y-11875D01*
X14000Y-11875D02*
X13600Y-11875D01*
X16968Y-13031D02*
X16968Y-13169D01*
X16456Y-12874D02*
X16811Y-12874D01*
X15500Y-12375D02*
X15957Y-12375D01*
X15957Y-12375D02*
X16456Y-12874D01*
X16811Y-12874D02*
X16968Y-13031D01*
X16968Y-13169D02*
X17086Y-13287D01*
G54D25*
X18582Y-13110D02*
X18582Y-13267D01*
X18248Y-12775D02*
X18582Y-13110D01*
X18211Y-12008D02*
X18229Y-12008D01*
X18229Y-12775D02*
X18248Y-12775D01*
G54D24*
X19570Y-11303D02*
X19169Y-11303D01*
X19169Y-11303D02*
X18877Y-11594D01*
X12696Y-14606D02*
X12696Y-14114D01*
X13600Y-13722D02*
X13600Y-13375D01*
X13385Y-13937D02*
X13600Y-13722D01*
X12874Y-13937D02*
X13385Y-13937D01*
X12696Y-14114D02*
X12874Y-13937D01*
X14254Y-10176D02*
X14254Y-9805D01*
X14254Y-9805D02*
X14251Y-9803D01*
X16240Y-9803D02*
X16850Y-9803D01*
X16240Y-10294D02*
X16240Y-9803D01*
X14763Y-9645D02*
X16082Y-9645D01*
X14763Y-9645D02*
X14606Y-9803D01*
X16082Y-9645D02*
X16240Y-9803D01*
G54D25*
X18625Y-11594D02*
X18211Y-12008D01*
X18877Y-11594D02*
X18625Y-11594D01*
G54D24*
X18211Y-12008D02*
X18211Y-12005D01*
X18211Y-12008D02*
X18739Y-12008D01*
X18739Y-12008D02*
X18740Y-12007D01*
X18229Y-12775D02*
X18229Y-12776D01*
X18229Y-12775D02*
X18228Y-12775D01*
G54D25*
X18228Y-12775D02*
X17874Y-13129D01*
X17874Y-13129D02*
X17874Y-13267D01*
G54D24*
X18229Y-12775D02*
X18229Y-13187D01*
X18229Y-13187D02*
X18228Y-13188D01*
X13897Y-9803D02*
X14251Y-9803D01*
X14606Y-9803D02*
X14251Y-9803D01*
X14254Y-9805D02*
X14251Y-9803D01*
X13610Y-13385D02*
X14232Y-13385D01*
X18211Y-12008D02*
X17873Y-12008D01*
X17873Y-12008D02*
X17716Y-12165D01*
X17479Y-10413D02*
X17479Y-9803D01*
X16240Y-9803D02*
X17479Y-9803D01*
X13610Y-13385D02*
X13600Y-13375D01*
X18229Y-12775D02*
X18229Y-12026D01*
X18229Y-12026D02*
X18211Y-12008D01*
X18405Y-13720D02*
X18405Y-15173D01*
X18405Y-15173D02*
X17732Y-15846D01*
X19570Y-13303D02*
X19177Y-13303D01*
X19177Y-13303D02*
X18759Y-13720D01*
X16476Y-13320D02*
X16476Y-13523D01*
X16673Y-13720D02*
X18405Y-13720D01*
X18405Y-13720D02*
X18759Y-13720D01*
X16476Y-13523D02*
X16673Y-13720D01*
X13304Y-10551D02*
X12972Y-10551D01*
X12696Y-10826D02*
X12696Y-12106D01*
X12972Y-10551D02*
X12696Y-10826D01*
X11712Y-12303D02*
X12500Y-12303D01*
X12500Y-12303D02*
X12696Y-12106D01*
X11712Y-12303D02*
X11988Y-12303D01*
G54D11*
X12992Y-15236D02*
X13464Y-15236D01*
X13681Y-15452D02*
X13681Y-15846D01*
X13464Y-15236D02*
X13681Y-15452D01*
X13681Y-15846D02*
X13681Y-15531D01*
X11141Y-14980D02*
X11141Y-11874D01*
X11141Y-11874D02*
X11712Y-11303D01*
X11397Y-15236D02*
X11141Y-14980D01*
X12992Y-15236D02*
X11397Y-15236D01*
X14254Y-10926D02*
X14349Y-10926D01*
X14349Y-10926D02*
X14981Y-10294D01*
X14981Y-10294D02*
X15295Y-10294D01*
G36*
X14606Y-11326D02*
X14568Y-11383D01*
X14545Y-11497D01*
X14545Y-11497D01*
X14545Y-11999D01*
X14243Y-11697D01*
X14209Y-11615D01*
X14139Y-11545D01*
X14049Y-11508D01*
X13950Y-11508D01*
X13254Y-11508D01*
X13254Y-10913D01*
X13254Y-10601D01*
X13254Y-10501D01*
X13254Y-10188D01*
X13192Y-10126D01*
X13104Y-10126D01*
X13004Y-10126D01*
X12912Y-10164D01*
X12842Y-10234D01*
X12804Y-10326D01*
X12804Y-10438D01*
X12867Y-10501D01*
X13254Y-10501D01*
X13254Y-10601D01*
X12867Y-10601D01*
X12804Y-10663D01*
X12804Y-10775D01*
X12842Y-10867D01*
X12912Y-10938D01*
X13004Y-10976D01*
X13104Y-10976D01*
X13192Y-10976D01*
X13254Y-10913D01*
X13254Y-11508D01*
X13150Y-11508D01*
X13060Y-11545D01*
X12990Y-11615D01*
X12953Y-11705D01*
X12953Y-11804D01*
X12953Y-12044D01*
X12982Y-12114D01*
X12964Y-12126D01*
X12907Y-12165D01*
X12907Y-12165D01*
X12683Y-12388D01*
X12619Y-12484D01*
X12596Y-12598D01*
X12596Y-12598D01*
X12596Y-13282D01*
X11852Y-14026D01*
X11812Y-14009D01*
X11574Y-14009D01*
X11438Y-14065D01*
X11438Y-13808D01*
X11598Y-13874D01*
X11825Y-13875D01*
X12036Y-13788D01*
X12197Y-13627D01*
X12284Y-13417D01*
X12284Y-13189D01*
X12197Y-12979D01*
X12093Y-12875D01*
X12179Y-12840D01*
X12249Y-12769D01*
X12287Y-12677D01*
X12287Y-12415D01*
X12225Y-12353D01*
X11762Y-12353D01*
X11762Y-12361D01*
X11662Y-12361D01*
X11662Y-12353D01*
X11654Y-12353D01*
X11654Y-12253D01*
X11662Y-12253D01*
X11662Y-12245D01*
X11762Y-12245D01*
X11762Y-12253D01*
X12225Y-12253D01*
X12287Y-12190D01*
X12287Y-11928D01*
X12249Y-11836D01*
X12179Y-11766D01*
X12093Y-11730D01*
X12197Y-11627D01*
X12284Y-11417D01*
X12284Y-11189D01*
X12197Y-10979D01*
X12036Y-10818D01*
X11826Y-10731D01*
X11599Y-10731D01*
X11389Y-10818D01*
X11228Y-10978D01*
X11222Y-10993D01*
X11222Y-9773D01*
X11234Y-9709D01*
X11254Y-9679D01*
X11284Y-9659D01*
X11348Y-9647D01*
X13505Y-9647D01*
X13475Y-9718D01*
X13475Y-9886D01*
X13539Y-10041D01*
X13637Y-10140D01*
X13604Y-10126D01*
X13504Y-10126D01*
X13417Y-10126D01*
X13354Y-10188D01*
X13354Y-10501D01*
X13742Y-10501D01*
X13782Y-10460D01*
X13795Y-10491D01*
X13855Y-10551D01*
X13795Y-10611D01*
X13782Y-10641D01*
X13742Y-10601D01*
X13354Y-10601D01*
X13354Y-10913D01*
X13417Y-10976D01*
X13504Y-10976D01*
X13604Y-10976D01*
X13696Y-10938D01*
X13757Y-10876D01*
X13757Y-11150D01*
X13795Y-11241D01*
X13864Y-11310D01*
X13955Y-11348D01*
X14053Y-11348D01*
X14553Y-11348D01*
X14606Y-11326D01*
X14606Y-11326D01*
G37*
X14606Y-11326D02*
X14568Y-11383D01*
X14545Y-11497D01*
X14545Y-11497D01*
X14545Y-11999D01*
X14243Y-11697D01*
X14209Y-11615D01*
X14139Y-11545D01*
X14049Y-11508D01*
X13950Y-11508D01*
X13254Y-11508D01*
X13254Y-10913D01*
X13254Y-10601D01*
X13254Y-10501D01*
X13254Y-10188D01*
X13192Y-10126D01*
X13104Y-10126D01*
X13004Y-10126D01*
X12912Y-10164D01*
X12842Y-10234D01*
X12804Y-10326D01*
X12804Y-10438D01*
X12867Y-10501D01*
X13254Y-10501D01*
X13254Y-10601D01*
X12867Y-10601D01*
X12804Y-10663D01*
X12804Y-10775D01*
X12842Y-10867D01*
X12912Y-10938D01*
X13004Y-10976D01*
X13104Y-10976D01*
X13192Y-10976D01*
X13254Y-10913D01*
X13254Y-11508D01*
X13150Y-11508D01*
X13060Y-11545D01*
X12990Y-11615D01*
X12953Y-11705D01*
X12953Y-11804D01*
X12953Y-12044D01*
X12982Y-12114D01*
X12964Y-12126D01*
X12907Y-12165D01*
X12907Y-12165D01*
X12683Y-12388D01*
X12619Y-12484D01*
X12596Y-12598D01*
X12596Y-12598D01*
X12596Y-13282D01*
X11852Y-14026D01*
X11812Y-14009D01*
X11574Y-14009D01*
X11438Y-14065D01*
X11438Y-13808D01*
X11598Y-13874D01*
X11825Y-13875D01*
X12036Y-13788D01*
X12197Y-13627D01*
X12284Y-13417D01*
X12284Y-13189D01*
X12197Y-12979D01*
X12093Y-12875D01*
X12179Y-12840D01*
X12249Y-12769D01*
X12287Y-12677D01*
X12287Y-12415D01*
X12225Y-12353D01*
X11762Y-12353D01*
X11762Y-12361D01*
X11662Y-12361D01*
X11662Y-12353D01*
X11654Y-12353D01*
X11654Y-12253D01*
X11662Y-12253D01*
X11662Y-12245D01*
X11762Y-12245D01*
X11762Y-12253D01*
X12225Y-12253D01*
X12287Y-12190D01*
X12287Y-11928D01*
X12249Y-11836D01*
X12179Y-11766D01*
X12093Y-11730D01*
X12197Y-11627D01*
X12284Y-11417D01*
X12284Y-11189D01*
X12197Y-10979D01*
X12036Y-10818D01*
X11826Y-10731D01*
X11599Y-10731D01*
X11389Y-10818D01*
X11228Y-10978D01*
X11222Y-10993D01*
X11222Y-9773D01*
X11234Y-9709D01*
X11254Y-9679D01*
X11284Y-9659D01*
X11348Y-9647D01*
X13505Y-9647D01*
X13475Y-9718D01*
X13475Y-9886D01*
X13539Y-10041D01*
X13637Y-10140D01*
X13604Y-10126D01*
X13504Y-10126D01*
X13417Y-10126D01*
X13354Y-10188D01*
X13354Y-10501D01*
X13742Y-10501D01*
X13782Y-10460D01*
X13795Y-10491D01*
X13855Y-10551D01*
X13795Y-10611D01*
X13782Y-10641D01*
X13742Y-10601D01*
X13354Y-10601D01*
X13354Y-10913D01*
X13417Y-10976D01*
X13504Y-10976D01*
X13604Y-10976D01*
X13696Y-10938D01*
X13757Y-10876D01*
X13757Y-11150D01*
X13795Y-11241D01*
X13864Y-11310D01*
X13955Y-11348D01*
X14053Y-11348D01*
X14553Y-11348D01*
X14606Y-11326D01*
M02*
