%FSLAX34Y34*%
G04 Gerber Fmt 3.4, Leading zero omitted, Abs format*
G04 (created by PCBNEW (2014-05-21 BZR 4875)-product) date Friday 04 July 2014 06:07:35 PM IST*
%MOIN*%
G01*
G70*
G90*
G04 APERTURE LIST*
%ADD10C,0.005906*%
%ADD11C,0.010000*%
%ADD12R,0.045000X0.055000*%
%ADD13R,0.051200X0.059000*%
%ADD14R,0.330000X0.070000*%
%ADD15R,0.035000X0.040000*%
G04 APERTURE END LIST*
G54D10*
G54D11*
X18405Y-16437D02*
X11318Y-16437D01*
X22736Y-10826D02*
X22736Y-13779D01*
X22342Y-10433D02*
X19192Y-10433D01*
X22342Y-14173D02*
X19192Y-14173D01*
X22342Y-14173D02*
G75*
G03X22736Y-13779I0J393D01*
G74*
G01*
X22736Y-10826D02*
G75*
G03X22342Y-10433I-393J0D01*
G74*
G01*
X11318Y-9350D02*
X18405Y-9350D01*
X10925Y-16043D02*
X10925Y-9744D01*
X10925Y-16043D02*
G75*
G03X11318Y-16437I393J0D01*
G74*
G01*
X11318Y-9350D02*
G75*
G03X10925Y-9744I0J-393D01*
G74*
G01*
X18799Y-10039D02*
X18799Y-9744D01*
X18799Y-16043D02*
X18799Y-14566D01*
X18799Y-9744D02*
G75*
G03X18405Y-9350I-393J0D01*
G74*
G01*
X18799Y-10039D02*
G75*
G03X19192Y-10433I393J0D01*
G74*
G01*
X18405Y-16437D02*
G75*
G03X18799Y-16043I0J393D01*
G74*
G01*
X19192Y-14173D02*
G75*
G03X18799Y-14566I0J-393D01*
G74*
G01*
G54D12*
X13937Y-11201D03*
X13937Y-10451D03*
G54D13*
X12186Y-10196D03*
X11436Y-10196D03*
G54D14*
X20970Y-13303D03*
X20970Y-11303D03*
G54D15*
X13110Y-11251D03*
X13110Y-10401D03*
M02*
