%FSLAX34Y34*%
G04 Gerber Fmt 3.4, Leading zero omitted, Abs format*
G04 (created by PCBNEW (2014-05-21 BZR 4875)-product) date Friday 04 July 2014 06:07:35 PM IST*
%MOIN*%
G01*
G70*
G90*
G04 APERTURE LIST*
%ADD10C,0.005906*%
%ADD11C,0.010000*%
%ADD12C,0.005000*%
%ADD13C,0.003937*%
%ADD14C,0.007874*%
%ADD15C,0.006299*%
%ADD16C,0.006000*%
%ADD17R,0.065000X0.075000*%
%ADD18C,0.090000*%
%ADD19R,0.071200X0.079000*%
%ADD20C,0.085000*%
%ADD21R,0.085000X0.085000*%
%ADD22R,0.090000X0.090000*%
%ADD23R,0.350000X0.090000*%
%ADD24R,0.055000X0.060000*%
G04 APERTURE END LIST*
G54D10*
G54D11*
X18405Y-16437D02*
X11318Y-16437D01*
X22736Y-10826D02*
X22736Y-13779D01*
X22342Y-10433D02*
X19192Y-10433D01*
X22342Y-14173D02*
X19192Y-14173D01*
X22342Y-14173D02*
G75*
G03X22736Y-13779I0J393D01*
G74*
G01*
X22736Y-10826D02*
G75*
G03X22342Y-10433I-393J0D01*
G74*
G01*
X11318Y-9350D02*
X18405Y-9350D01*
X10925Y-16043D02*
X10925Y-9744D01*
X10925Y-16043D02*
G75*
G03X11318Y-16437I393J0D01*
G74*
G01*
X11318Y-9350D02*
G75*
G03X10925Y-9744I0J-393D01*
G74*
G01*
G54D12*
X12565Y-13241D02*
X12565Y-13372D01*
X12644Y-13215D02*
X12368Y-13307D01*
X12644Y-13398D01*
X12644Y-12211D02*
X12368Y-12211D01*
X12644Y-12368D02*
X12486Y-12250D01*
X12368Y-12368D02*
X12526Y-12211D01*
G54D13*
X12644Y-11082D02*
X12368Y-11082D01*
X12644Y-11240D01*
X12368Y-11240D01*
X12644Y-11371D02*
X12368Y-11371D01*
X12368Y-11437D01*
X12381Y-11476D01*
X12408Y-11502D01*
X12434Y-11515D01*
X12486Y-11528D01*
X12526Y-11528D01*
X12578Y-11515D01*
X12604Y-11502D01*
X12631Y-11476D01*
X12644Y-11437D01*
X12644Y-11371D01*
X21027Y-13986D02*
X21139Y-13986D01*
X21083Y-13986D02*
X21083Y-13789D01*
X21102Y-13817D01*
X21121Y-13836D01*
X21139Y-13846D01*
X20952Y-13808D02*
X20943Y-13799D01*
X20924Y-13789D01*
X20877Y-13789D01*
X20858Y-13799D01*
X20849Y-13808D01*
X20839Y-13827D01*
X20839Y-13846D01*
X20849Y-13874D01*
X20961Y-13986D01*
X20839Y-13986D01*
X20783Y-13789D02*
X20718Y-13986D01*
X20652Y-13789D01*
X21055Y-10610D02*
X21074Y-10600D01*
X21102Y-10600D01*
X21130Y-10610D01*
X21149Y-10628D01*
X21158Y-10647D01*
X21167Y-10685D01*
X21167Y-10713D01*
X21158Y-10750D01*
X21149Y-10769D01*
X21130Y-10788D01*
X21102Y-10797D01*
X21083Y-10797D01*
X21055Y-10788D01*
X21046Y-10778D01*
X21046Y-10713D01*
X21083Y-10713D01*
X20961Y-10797D02*
X20961Y-10600D01*
X20849Y-10797D01*
X20849Y-10600D01*
X20755Y-10797D02*
X20755Y-10600D01*
X20708Y-10600D01*
X20680Y-10610D01*
X20661Y-10628D01*
X20652Y-10647D01*
X20643Y-10685D01*
X20643Y-10713D01*
X20652Y-10750D01*
X20661Y-10769D01*
X20680Y-10788D01*
X20708Y-10797D01*
X20755Y-10797D01*
G54D11*
X18799Y-10039D02*
X18799Y-9744D01*
X18799Y-16043D02*
X18799Y-14566D01*
X18799Y-9744D02*
G75*
G03X18405Y-9350I-393J0D01*
G74*
G01*
X18799Y-10039D02*
G75*
G03X19192Y-10433I393J0D01*
G74*
G01*
X18405Y-16437D02*
G75*
G03X18799Y-16043I0J393D01*
G74*
G01*
X19192Y-14173D02*
G75*
G03X18799Y-14566I0J-393D01*
G74*
G01*
G54D14*
X22547Y-12156D02*
X22547Y-12747D01*
X22547Y-12185D02*
X22491Y-12156D01*
X22379Y-12156D01*
X22322Y-12185D01*
X22294Y-12213D01*
X22266Y-12269D01*
X22266Y-12438D01*
X22294Y-12494D01*
X22322Y-12522D01*
X22379Y-12550D01*
X22491Y-12550D01*
X22547Y-12522D01*
X22013Y-12494D02*
X21985Y-12522D01*
X22013Y-12550D01*
X22041Y-12522D01*
X22013Y-12494D01*
X22013Y-12550D01*
X21479Y-12156D02*
X21479Y-12550D01*
X21732Y-12156D02*
X21732Y-12466D01*
X21704Y-12522D01*
X21647Y-12550D01*
X21563Y-12550D01*
X21507Y-12522D01*
X21479Y-12494D01*
X21197Y-12494D02*
X21169Y-12522D01*
X21197Y-12550D01*
X21226Y-12522D01*
X21197Y-12494D01*
X21197Y-12550D01*
X20832Y-12550D02*
X20888Y-12522D01*
X20916Y-12466D01*
X20916Y-11960D01*
X20607Y-12494D02*
X20579Y-12522D01*
X20607Y-12550D01*
X20635Y-12522D01*
X20607Y-12494D01*
X20607Y-12550D01*
X20354Y-12522D02*
X20298Y-12550D01*
X20185Y-12550D01*
X20129Y-12522D01*
X20101Y-12466D01*
X20101Y-12438D01*
X20129Y-12381D01*
X20185Y-12353D01*
X20269Y-12353D01*
X20326Y-12325D01*
X20354Y-12269D01*
X20354Y-12241D01*
X20326Y-12185D01*
X20269Y-12156D01*
X20185Y-12156D01*
X20129Y-12185D01*
X19848Y-12494D02*
X19820Y-12522D01*
X19848Y-12550D01*
X19876Y-12522D01*
X19848Y-12494D01*
X19848Y-12550D01*
X19341Y-12522D02*
X19398Y-12550D01*
X19510Y-12550D01*
X19566Y-12522D01*
X19595Y-12466D01*
X19595Y-12241D01*
X19566Y-12185D01*
X19510Y-12156D01*
X19398Y-12156D01*
X19341Y-12185D01*
X19313Y-12241D01*
X19313Y-12297D01*
X19595Y-12353D01*
G54D15*
X16387Y-11722D02*
X16387Y-11505D01*
X15078Y-9793D02*
G75*
G02X15098Y-9753I29J9D01*
G74*
G01*
X15049Y-9793D02*
G75*
G02X15098Y-9704I68J19D01*
G74*
G01*
X15000Y-9773D02*
G75*
G02X15108Y-9665I108J0D01*
G74*
G01*
X14940Y-9812D02*
G75*
G02X15088Y-9606I177J29D01*
G74*
G01*
X14891Y-9793D02*
G75*
G02X15098Y-9547I226J19D01*
G74*
G01*
X14832Y-9803D02*
G75*
G02X15088Y-9488I285J29D01*
G74*
G01*
X15098Y-13858D02*
G75*
G02X15068Y-13809I9J39D01*
G74*
G01*
X15098Y-13897D02*
G75*
G02X15029Y-13789I19J88D01*
G74*
G01*
X15088Y-13946D02*
G75*
G02X14990Y-13789I29J127D01*
G74*
G01*
X15088Y-14005D02*
G75*
G02X14940Y-13799I29J177D01*
G74*
G01*
X15098Y-14055D02*
G75*
G02X14881Y-13799I19J236D01*
G74*
G01*
X15098Y-14104D02*
G75*
G02X14832Y-13799I19J285D01*
G74*
G01*
X15068Y-9793D02*
X15068Y-13769D01*
X15068Y-13769D02*
X15009Y-13769D01*
X15009Y-13769D02*
X15009Y-9822D01*
X15009Y-9822D02*
X14950Y-9822D01*
X14950Y-9822D02*
X14950Y-13769D01*
X14950Y-13769D02*
X14891Y-13769D01*
X14891Y-13769D02*
X14891Y-9822D01*
X14891Y-9822D02*
X14832Y-9822D01*
X14832Y-9822D02*
X14832Y-13769D01*
X14803Y-9793D02*
X15098Y-9793D01*
X14803Y-13799D02*
X15098Y-13799D01*
X18257Y-13907D02*
X18228Y-13937D01*
X16427Y-14124D02*
X16427Y-11584D01*
X16427Y-11584D02*
X16486Y-11692D01*
X16486Y-11692D02*
X16486Y-14124D01*
X16486Y-14124D02*
X16545Y-14124D01*
X16545Y-14124D02*
X16545Y-11732D01*
X16545Y-11732D02*
X16604Y-11781D01*
X16604Y-11781D02*
X16604Y-14124D01*
X16604Y-14124D02*
X16663Y-14124D01*
X16663Y-14124D02*
X16663Y-11791D01*
X16663Y-11791D02*
X16722Y-11811D01*
X16722Y-11811D02*
X16722Y-14124D01*
X16722Y-14124D02*
X16781Y-14124D01*
X16781Y-14124D02*
X16781Y-11811D01*
X16781Y-11811D02*
X16840Y-11811D01*
X16840Y-11811D02*
X16840Y-14124D01*
X16840Y-14124D02*
X16899Y-14124D01*
X16899Y-14124D02*
X16899Y-11811D01*
X16899Y-11811D02*
X16958Y-11811D01*
X16958Y-11811D02*
X16958Y-14124D01*
X16958Y-14124D02*
X17017Y-14124D01*
X17017Y-14124D02*
X17017Y-11811D01*
X17017Y-11811D02*
X17076Y-11811D01*
X17076Y-11811D02*
X17076Y-14124D01*
X17076Y-14124D02*
X17135Y-14124D01*
X17135Y-14124D02*
X17135Y-11811D01*
X17135Y-11811D02*
X17194Y-11811D01*
X17194Y-11811D02*
X17194Y-14124D01*
X17194Y-14124D02*
X17253Y-14124D01*
X17253Y-14124D02*
X17253Y-11811D01*
X17253Y-11811D02*
X17312Y-11811D01*
X17312Y-11811D02*
X17312Y-14124D01*
X17312Y-14124D02*
X17372Y-14124D01*
X17372Y-14124D02*
X17372Y-11811D01*
X17372Y-11811D02*
X17431Y-11811D01*
X17431Y-11811D02*
X17431Y-14124D01*
X17431Y-14124D02*
X17490Y-14124D01*
X17490Y-14124D02*
X17490Y-11811D01*
X17490Y-11811D02*
X17549Y-11811D01*
X17549Y-11811D02*
X17549Y-14124D01*
X17549Y-14124D02*
X17608Y-14124D01*
X17608Y-14124D02*
X17608Y-11811D01*
X17608Y-11811D02*
X17667Y-11811D01*
X17667Y-11811D02*
X17667Y-14124D01*
X17667Y-14124D02*
X17726Y-14124D01*
X17726Y-14124D02*
X17726Y-11811D01*
X17726Y-11811D02*
X17785Y-11811D01*
X17785Y-11811D02*
X17785Y-14124D01*
X17785Y-14124D02*
X17844Y-14124D01*
X17844Y-14124D02*
X17844Y-11811D01*
X17844Y-11811D02*
X17903Y-11811D01*
X17903Y-11811D02*
X17903Y-14124D01*
X17903Y-14124D02*
X17962Y-14124D01*
X17962Y-14124D02*
X17962Y-11811D01*
X17962Y-11811D02*
X18021Y-11811D01*
X18021Y-11811D02*
X18021Y-14124D01*
X18021Y-14124D02*
X18080Y-14094D01*
X18080Y-14094D02*
X18080Y-11850D01*
X18080Y-11850D02*
X18080Y-11840D01*
X18080Y-11840D02*
X18139Y-11870D01*
X18139Y-11870D02*
X18139Y-14064D01*
X18139Y-14064D02*
X18198Y-14005D01*
X18198Y-14005D02*
X18198Y-11919D01*
X18198Y-11919D02*
X18257Y-12037D01*
X18257Y-12037D02*
X18257Y-13907D01*
X16131Y-14124D02*
X16131Y-9468D01*
X16131Y-9468D02*
X16190Y-9498D01*
X16190Y-9498D02*
X16190Y-14124D01*
X16190Y-14124D02*
X16250Y-14124D01*
X16250Y-14124D02*
X16250Y-9517D01*
X16250Y-9517D02*
X16309Y-9566D01*
X16309Y-9566D02*
X16309Y-14124D01*
X16309Y-14124D02*
X16368Y-14124D01*
X16368Y-14124D02*
X16368Y-9655D01*
X16368Y-9655D02*
X16338Y-9596D01*
X18159Y-9665D02*
X18080Y-9586D01*
X17942Y-9566D02*
X18159Y-9566D01*
X18159Y-9566D02*
X18159Y-9734D01*
X16515Y-9547D02*
X16427Y-9478D01*
X18080Y-9488D02*
X16446Y-9488D01*
X16505Y-9537D02*
X18139Y-9537D01*
X18267Y-11732D02*
X18267Y-11781D01*
X18188Y-11702D02*
X18188Y-9576D01*
X18238Y-11771D02*
X18238Y-9645D01*
X15836Y-9901D02*
X15748Y-9822D01*
X15797Y-9901D02*
X15295Y-9537D01*
X15295Y-9537D02*
X15433Y-9537D01*
X15885Y-9881D02*
X15383Y-9547D01*
X15885Y-9498D02*
X15285Y-9498D01*
X15285Y-9911D02*
X15885Y-9911D01*
X15561Y-10954D02*
X15285Y-10816D01*
X15561Y-11003D02*
X15295Y-10866D01*
X15826Y-11003D02*
X15826Y-10974D01*
X15787Y-10846D02*
X15679Y-10846D01*
X15777Y-10885D02*
X15669Y-10885D01*
X15629Y-10856D02*
X15629Y-10944D01*
X15807Y-10856D02*
X15807Y-10944D01*
X15856Y-11131D02*
X15551Y-11131D01*
X15580Y-11131D02*
X15580Y-10895D01*
X15856Y-11131D02*
X15856Y-10885D01*
X15885Y-11161D02*
X15285Y-11161D01*
X15836Y-11653D02*
X15836Y-11535D01*
X15826Y-11574D02*
X15285Y-11574D01*
X15856Y-11771D02*
X15856Y-11377D01*
X15856Y-12253D02*
X15334Y-12253D01*
X15314Y-12283D02*
X15816Y-12283D01*
X15314Y-11850D02*
X15314Y-12312D01*
X15580Y-11958D02*
X15580Y-12312D01*
X15856Y-11958D02*
X15856Y-12312D01*
X15570Y-12765D02*
X15511Y-12765D01*
X15767Y-12559D02*
X15718Y-12559D01*
X15885Y-12992D02*
X15620Y-12775D01*
X15620Y-12775D02*
X15866Y-12559D01*
X15866Y-12559D02*
X15787Y-12559D01*
X15787Y-12559D02*
X15551Y-12765D01*
X15551Y-12765D02*
X15787Y-12972D01*
X15285Y-12519D02*
X15885Y-12519D01*
G54D13*
X15265Y-12470D02*
X15265Y-12568D01*
G54D15*
X15285Y-13001D02*
X15885Y-13001D01*
X15314Y-13385D02*
G75*
G02X15472Y-13228I157J0D01*
G74*
G01*
X15472Y-13523D02*
G75*
G02X15334Y-13385I0J137D01*
G74*
G01*
X15295Y-13385D02*
G75*
G02X15472Y-13208I177J0D01*
G74*
G01*
X15472Y-13562D02*
G75*
G02X15295Y-13385I0J177D01*
G74*
G01*
X15374Y-13208D02*
X15885Y-13208D01*
X15885Y-13543D02*
X15374Y-13543D01*
X15314Y-14084D02*
X15354Y-14045D01*
X15314Y-14084D02*
X15314Y-13720D01*
X15885Y-14084D02*
X15285Y-14084D01*
X15295Y-10246D02*
X15433Y-10275D01*
X15433Y-10275D02*
X15344Y-10364D01*
X15344Y-10364D02*
X15295Y-10246D01*
X15511Y-10462D02*
X15305Y-10255D01*
X15669Y-10462D02*
X15866Y-10265D01*
X15590Y-10462D02*
X15403Y-10462D01*
X15590Y-10462D02*
X15777Y-10462D01*
X15590Y-10698D02*
X15590Y-10462D01*
G54D13*
X15905Y-10383D02*
G75*
G03X15905Y-10383I-324J0D01*
G74*
G01*
X15905Y-10994D02*
X15905Y-11210D01*
X15531Y-10994D02*
G75*
G02X15718Y-10807I187J0D01*
G74*
G01*
X15718Y-10807D02*
G75*
G02X15905Y-10994I0J-187D01*
G74*
G01*
X15807Y-10994D02*
X15807Y-11112D01*
X15629Y-10994D02*
X15629Y-11112D01*
X15629Y-10994D02*
G75*
G02X15718Y-10905I88J0D01*
G74*
G01*
X15718Y-10905D02*
G75*
G02X15807Y-10994I0J-88D01*
G74*
G01*
X15629Y-11112D02*
X15807Y-11112D01*
X15265Y-11210D02*
X15265Y-11112D01*
X15265Y-11112D02*
X15531Y-11112D01*
X15531Y-11112D02*
X15531Y-11013D01*
X15531Y-11013D02*
X15265Y-10885D01*
X15265Y-10885D02*
X15265Y-10777D01*
X15265Y-10777D02*
X15531Y-10905D01*
X15265Y-11210D02*
X15905Y-11210D01*
X15905Y-9842D02*
X15462Y-9547D01*
X15462Y-9547D02*
X15531Y-9547D01*
X15905Y-9448D02*
X15265Y-9448D01*
X15265Y-9448D02*
X15265Y-9566D01*
X15265Y-9566D02*
X15708Y-9862D01*
X15708Y-9862D02*
X15639Y-9862D01*
X15905Y-9448D02*
X15905Y-9547D01*
X15905Y-9547D02*
X15531Y-9547D01*
X15265Y-9960D02*
X15905Y-9960D01*
X15905Y-9960D02*
X15905Y-9842D01*
X15265Y-9960D02*
X15265Y-9862D01*
X15265Y-9862D02*
X15639Y-9862D01*
X15905Y-11791D02*
X15905Y-11358D01*
X15905Y-11358D02*
X15807Y-11358D01*
X15807Y-11358D02*
X15807Y-11525D01*
X15807Y-11525D02*
X15265Y-11525D01*
X15265Y-11525D02*
X15265Y-11624D01*
X15265Y-11624D02*
X15807Y-11624D01*
X15807Y-11624D02*
X15807Y-11791D01*
X15807Y-11791D02*
X15905Y-11791D01*
X15905Y-12332D02*
X15905Y-11938D01*
X15905Y-11938D02*
X15807Y-11938D01*
X15807Y-11938D02*
X15807Y-12234D01*
X15807Y-12234D02*
X15629Y-12234D01*
X15629Y-12234D02*
X15629Y-11938D01*
X15629Y-11938D02*
X15531Y-11938D01*
X15531Y-11938D02*
X15531Y-12234D01*
X15531Y-12234D02*
X15364Y-12234D01*
X15364Y-12234D02*
X15364Y-11830D01*
X15364Y-11830D02*
X15265Y-11830D01*
X15265Y-11830D02*
X15265Y-12332D01*
X15265Y-12332D02*
X15905Y-12332D01*
X15905Y-12470D02*
X15905Y-12578D01*
X15905Y-12578D02*
X15669Y-12765D01*
X15669Y-12765D02*
X15905Y-12942D01*
X15905Y-12942D02*
X15905Y-13051D01*
X15728Y-12578D02*
X15472Y-12765D01*
X15472Y-12765D02*
X15728Y-12952D01*
X15265Y-13051D02*
X15905Y-13051D01*
X15728Y-12568D02*
X15265Y-12568D01*
X15265Y-12470D02*
X15905Y-12470D01*
X15265Y-13051D02*
X15265Y-12952D01*
X15265Y-12952D02*
X15728Y-12952D01*
X15905Y-13159D02*
X15482Y-13159D01*
X15482Y-13257D02*
X15905Y-13257D01*
X15905Y-13592D02*
X15482Y-13592D01*
X15482Y-13494D02*
X15905Y-13494D01*
X15482Y-13592D02*
G75*
G02X15265Y-13375I0J216D01*
G74*
G01*
X15265Y-13375D02*
G75*
G02X15482Y-13159I216J0D01*
G74*
G01*
X15364Y-13375D02*
G75*
G02X15482Y-13257I118J0D01*
G74*
G01*
X15482Y-13494D02*
G75*
G02X15364Y-13375I0J118D01*
G74*
G01*
X15905Y-13257D02*
X15905Y-13159D01*
X15905Y-13592D02*
X15905Y-13494D01*
X15905Y-14035D02*
X15905Y-14133D01*
X15905Y-14035D02*
X15364Y-14035D01*
X15364Y-14035D02*
X15364Y-13700D01*
X15364Y-13700D02*
X15265Y-13700D01*
X15265Y-13700D02*
X15265Y-14133D01*
X15265Y-14133D02*
X15905Y-14133D01*
X16360Y-9460D02*
G75*
G02X16486Y-9586I-277J-401D01*
G74*
G01*
X18162Y-11715D02*
G75*
G02X18287Y-11860I-327J-410D01*
G74*
G01*
X17952Y-9448D02*
X16348Y-9448D01*
X17952Y-9586D02*
X16486Y-9586D01*
X18149Y-9783D02*
X18149Y-11712D01*
X18287Y-9783D02*
X18287Y-11860D01*
X17952Y-9586D02*
G75*
G02X18149Y-9783I0J-196D01*
G74*
G01*
X17952Y-9448D02*
G75*
G02X18287Y-9783I0J-334D01*
G74*
G01*
X16417Y-9783D02*
X16417Y-11456D01*
X16082Y-9448D02*
G75*
G02X16417Y-9783I0J-334D01*
G74*
G01*
X16751Y-11791D02*
G75*
G02X16417Y-11456I0J334D01*
G74*
G01*
X17952Y-11791D02*
X16742Y-11791D01*
X17952Y-11791D02*
G75*
G02X18287Y-12125I0J-334D01*
G74*
G01*
X18287Y-13809D02*
X18287Y-12125D01*
X18287Y-13809D02*
G75*
G02X17952Y-14143I-334J0D01*
G74*
G01*
X16082Y-9448D02*
X16082Y-14143D01*
X16082Y-14143D02*
X17952Y-14143D01*
X14783Y-13809D02*
X14783Y-9783D01*
X15118Y-14143D02*
G75*
G02X14783Y-13809I0J334D01*
G74*
G01*
X14783Y-9783D02*
G75*
G02X15118Y-9448I334J0D01*
G74*
G01*
X15118Y-14143D02*
X15118Y-9448D01*
G54D12*
X13537Y-10826D02*
X13537Y-10051D01*
X13537Y-10051D02*
X14337Y-10051D01*
X14337Y-10051D02*
X14337Y-11601D01*
X14337Y-11601D02*
X13537Y-11601D01*
X13537Y-11601D02*
X13537Y-10826D01*
G54D16*
X11961Y-9771D02*
X12586Y-9771D01*
X12586Y-10621D02*
X11961Y-10621D01*
X11661Y-10621D02*
X11061Y-10621D01*
X11061Y-10621D02*
X11036Y-10621D01*
X11036Y-9771D02*
X11661Y-9771D01*
G54D11*
X21320Y-10503D02*
X21320Y-10903D01*
X21320Y-14103D02*
X21320Y-13703D01*
X19170Y-10503D02*
X19170Y-14103D01*
X21320Y-10503D02*
X19170Y-10503D01*
X21320Y-14103D02*
X19170Y-14103D01*
G54D12*
X13260Y-10626D02*
X13260Y-10726D01*
X13210Y-10626D02*
X13210Y-10801D01*
X13160Y-10626D02*
X13160Y-10901D01*
X12960Y-10626D02*
X12960Y-10726D01*
X13010Y-10626D02*
X13010Y-10801D01*
X13060Y-10626D02*
X13060Y-10901D01*
X13110Y-10976D02*
X13110Y-10626D01*
X12885Y-11026D02*
X13335Y-11026D01*
X13110Y-10976D02*
X12885Y-10626D01*
X12885Y-10626D02*
X13335Y-10626D01*
X13335Y-10626D02*
X13110Y-10976D01*
X12810Y-11576D02*
X13410Y-11576D01*
X13410Y-11576D02*
X13410Y-11626D01*
X13410Y-11626D02*
X12810Y-11626D01*
X12810Y-11626D02*
X12810Y-11576D01*
X12810Y-10701D02*
X12810Y-10076D01*
X12810Y-10076D02*
X13410Y-10076D01*
X13410Y-10076D02*
X13410Y-10701D01*
G54D13*
X13615Y-9676D02*
X13624Y-9685D01*
X13652Y-9695D01*
X13671Y-9695D01*
X13699Y-9685D01*
X13718Y-9667D01*
X13727Y-9648D01*
X13737Y-9610D01*
X13737Y-9582D01*
X13727Y-9545D01*
X13718Y-9526D01*
X13699Y-9507D01*
X13671Y-9498D01*
X13652Y-9498D01*
X13624Y-9507D01*
X13615Y-9517D01*
X13428Y-9695D02*
X13540Y-9695D01*
X13484Y-9695D02*
X13484Y-9498D01*
X13502Y-9526D01*
X13521Y-9545D01*
X13540Y-9554D01*
X11843Y-9695D02*
X11909Y-9601D01*
X11956Y-9695D02*
X11956Y-9498D01*
X11881Y-9498D01*
X11862Y-9507D01*
X11853Y-9517D01*
X11843Y-9535D01*
X11843Y-9564D01*
X11853Y-9582D01*
X11862Y-9592D01*
X11881Y-9601D01*
X11956Y-9601D01*
X11656Y-9695D02*
X11768Y-9695D01*
X11712Y-9695D02*
X11712Y-9498D01*
X11731Y-9526D01*
X11750Y-9545D01*
X11768Y-9554D01*
X21027Y-13986D02*
X21139Y-13986D01*
X21083Y-13986D02*
X21083Y-13789D01*
X21102Y-13817D01*
X21121Y-13836D01*
X21139Y-13846D01*
X20952Y-13808D02*
X20943Y-13799D01*
X20924Y-13789D01*
X20877Y-13789D01*
X20858Y-13799D01*
X20849Y-13808D01*
X20839Y-13827D01*
X20839Y-13846D01*
X20849Y-13874D01*
X20961Y-13986D01*
X20839Y-13986D01*
X20783Y-13789D02*
X20718Y-13986D01*
X20652Y-13789D01*
X13098Y-9695D02*
X13098Y-9498D01*
X13051Y-9498D01*
X13023Y-9507D01*
X13004Y-9526D01*
X12994Y-9545D01*
X12985Y-9582D01*
X12985Y-9610D01*
X12994Y-9648D01*
X13004Y-9667D01*
X13023Y-9685D01*
X13051Y-9695D01*
X13098Y-9695D01*
X12798Y-9695D02*
X12910Y-9695D01*
X12854Y-9695D02*
X12854Y-9498D01*
X12873Y-9526D01*
X12891Y-9545D01*
X12910Y-9554D01*
%LPC*%
G54D17*
X13937Y-11201D03*
X13937Y-10451D03*
G54D18*
X11692Y-14606D03*
G54D19*
X12186Y-10196D03*
X11436Y-10196D03*
G54D20*
X11712Y-13303D03*
G54D21*
X11712Y-12303D03*
G54D20*
X11712Y-11303D03*
G54D22*
X17696Y-14606D03*
G54D18*
X16696Y-14606D03*
X15696Y-14606D03*
X14696Y-14606D03*
X13696Y-14606D03*
X12696Y-14606D03*
G54D23*
X20970Y-13303D03*
X20970Y-11303D03*
G54D24*
X13110Y-11251D03*
X13110Y-10401D03*
G54D21*
X14681Y-15846D03*
G54D20*
X13681Y-15846D03*
X12681Y-15846D03*
G54D21*
X15732Y-15846D03*
G54D20*
X16732Y-15846D03*
X17732Y-15846D03*
M02*
