M48
INCH,TZ
T1C0.025
T2C0.032
T3C0.040
%
G90
G05
T1
X1.3898Y-0.9803
X1.4232Y-1.2874
X1.4232Y-1.3386
X1.4252Y-0.9803
X1.4606Y-0.9803
X1.624Y-0.9803
X1.6752Y-1.2539
X1.685Y-0.9803
X1.7087Y-1.3287
X1.7479Y-0.9803
X1.7717Y-1.2165
X1.7874Y-1.3268
X1.8228Y-1.0866
X1.8228Y-1.3189
X1.8583Y-1.3268
X1.874Y-1.2008
X1.8878Y-1.1594
T2
X1.9571Y-1.1303
X1.9571Y-1.3303
T3
X1.1693Y-1.4606
X1.1713Y-1.1303
X1.1713Y-1.2303
X1.1713Y-1.3303
X1.2681Y-1.5846
X1.2697Y-1.4606
X1.3681Y-1.5846
X1.3697Y-1.4606
X1.4681Y-1.5846
X1.4697Y-1.4606
X1.5697Y-1.4606
X1.5732Y-1.5846
X1.6697Y-1.4606
X1.6732Y-1.5846
X1.7697Y-1.4606
X1.7732Y-1.5846
T0
M30
