<?xml version="1.0" standalone="no"?>
 <!DOCTYPE svg PUBLIC "-//W3C//DTD SVG 1.1//EN" 
 "http://www.w3.org/Graphics/SVG/1.1/DTD/svg11.dtd"> 
<svg xmlns="http://www.w3.org/2000/svg" version="1.1" 
    width="4.3815cm" height="2.56286cm" viewBox="0 0 17250 10090 ">
<title>SVG Picture created as pulse_v2-B_SilkS.svg date 2014/07/04 18:21:23 </title>
  <desc>Picture generated by PCBNEW </desc>
<g style="fill:#000000; fill-opacity:1;stroke:#000000; stroke-opacity:1;
stroke-linecap:round; stroke-linejoin:round; "
 transform="translate(0 0) scale(1 1)">
</g>
<g style="fill:#C2C200; fill-opacity:0.0; 
stroke:#C2C200; stroke-width:100; stroke-opacity:1; 
stroke-linecap:round; stroke-linejoin:round;">
<path d="M10384.6 1744.29 A393.701 393.701 0.0 0 0 9990.95 1350.59 " />
<path d="M10384.6 2039.57 A393.701 393.701 0.0 0 0 10778.3 2433.27 " />
<path d="M10778.3 6173.43 A393.701 393.701 0.0 0 0 10384.6 6567.13 " />
<path d="M9990.95 8437.2 A393.701 393.701 0.0 0 0 10384.6 8043.5 " />
<path d="M9990 8437
L2904 8437
" />
<path d="M14321 2826
L14321 5779
" />
<path d="M13927 2433
L10778 2433
" />
<path d="M13927 6173
L10778 6173
" />
<path d="M14321.7 2826.97 A393.701 393.701 0.0 0 0 13928 2433.27 " />
<path d="M13928 6173.43 A393.701 393.701 0.0 0 0 14321.7 5779.72 " />
<path d="M2904 1350
L9990 1350
" />
<path d="M2510 8043
L2510 1744
" />
<path d="M2904.33 1350.59 A393.701 393.701 0.0 0 0 2510.63 1744.29 " />
<path d="M2510.63 8043.5 A393.701 393.701 0.0 0 0 2904.33 8437.2 " />
</g>
<g style="fill:#480048; fill-opacity:0.0; 
stroke:#480048; stroke-width:50; stroke-opacity:1; 
stroke-linecap:round; stroke-linejoin:round;">
<path d="M4151 5241
L4151 5372
" />
<path d="M4229 5215
L3954 5307
L4229 5399
" />
<path d="M4229 4211
L3954 4211
" />
<path d="M4229 4368
L4072 4250
" />
<path d="M3954 4368
L4111 4211
" />
</g>
<g style="fill:#480048; fill-opacity:0.0; 
stroke:#480048; stroke-width:39.3701; stroke-opacity:1; 
stroke-linecap:round; stroke-linejoin:round;">
<path d="M4229 3082
L3954 3082
L4229 3240
L3954 3240
" />
<path d="M4229 3371
L3954 3371
L3954 3437
L3967 3476
L3993 3502
L4019 3515
L4072 3529
L4111 3529
L4164 3515
L4190 3502
L4216 3476
L4229 3437
L4229 3371
" />
<path d="M12612 5986
L12725 5986
" />
<path d="M12669 5986
L12669 5790
L12687 5818
L12706 5836
L12725 5846
" />
<path d="M12537 5808
L12528 5799
L12509 5790
L12462 5790
L12444 5799
L12434 5808
L12425 5827
L12425 5846
L12434 5874
L12547 5986
L12425 5986
" />
<path d="M12369 5790
L12303 5986
L12237 5790
" />
<path d="M12640 2610
L12659 2601
L12687 2601
L12715 2610
L12734 2629
L12744 2647
L12753 2685
L12753 2713
L12744 2751
L12734 2769
L12715 2788
L12687 2797
L12669 2797
L12640 2788
L12631 2779
L12631 2713
L12669 2713
" />
<path d="M12547 2797
L12547 2601
L12434 2797
L12434 2601
" />
<path d="M12340 2797
L12340 2601
L12294 2601
L12265 2610
L12247 2629
L12237 2647
L12228 2685
L12228 2713
L12237 2751
L12247 2769
L12265 2788
L12294 2797
L12340 2797
" />
</g>
<g style="fill:#C2C200; fill-opacity:0.0; 
stroke:#C2C200; stroke-width:100; stroke-opacity:1; 
stroke-linecap:round; stroke-linejoin:round;">
<path d="M10384 2039
L10384 1744
" />
<path d="M10384 8043
L10384 6567
" />
</g>
<g style="fill:#480048; fill-opacity:0.0; 
stroke:#480048; stroke-width:78.7402; stroke-opacity:1; 
stroke-linecap:round; stroke-linejoin:round;">
<path d="M14133 4157
L14133 4747
" />
<path d="M14133 4185
L14076 4157
L13964 4157
L13908 4185
L13880 4213
L13852 4269
L13852 4438
L13880 4494
L13908 4522
L13964 4550
L14076 4550
L14133 4522
" />
<path d="M13598 4494
L13570 4522
L13598 4550
L13627 4522
L13598 4494
L13598 4550
" />
<path d="M13064 4157
L13064 4550
" />
<path d="M13317 4157
L13317 4466
L13289 4522
L13233 4550
L13148 4550
L13092 4522
L13064 4494
" />
<path d="M12783 4494
L12755 4522
L12783 4550
L12811 4522
L12783 4494
L12783 4550
" />
<path d="M12417 4550
L12474 4522
L12502 4466
L12502 3960
" />
<path d="M12192 4494
L12164 4522
L12192 4550
L12220 4522
L12192 4494
L12192 4550
" />
<path d="M11939 4522
L11883 4550
L11771 4550
L11714 4522
L11686 4466
L11686 4438
L11714 4382
L11771 4353
L11855 4353
L11911 4325
L11939 4269
L11939 4241
L11911 4185
L11855 4157
L11771 4157
L11714 4185
" />
<path d="M11433 4494
L11405 4522
L11433 4550
L11461 4522
L11433 4494
L11433 4550
" />
<path d="M10927 4522
L10983 4550
L11096 4550
L11152 4522
L11180 4466
L11180 4241
L11152 4185
L11096 4157
L10983 4157
L10927 4185
L10899 4241
L10899 4297
L11180 4353
" />
</g>
<g style="fill:#480048; fill-opacity:0.0; 
stroke:#480048; stroke-width:39.3701; stroke-opacity:1; 
stroke-linecap:round; stroke-linejoin:round;">
<path d="M5200 1676
L5210 1686
L5238 1695
L5257 1695
L5285 1686
L5304 1667
L5313 1648
L5322 1611
L5322 1583
L5313 1545
L5304 1526
L5285 1508
L5257 1498
L5238 1498
L5210 1508
L5200 1517
" />
<path d="M5013 1695
L5125 1695
" />
<path d="M5069 1695
L5069 1498
L5088 1526
L5107 1545
L5125 1554
" />
<path d="M3429 1695
L3494 1601
" />
<path d="M3541 1695
L3541 1498
L3466 1498
L3448 1508
L3438 1517
L3429 1536
L3429 1564
L3438 1583
L3448 1592
L3466 1601
L3541 1601
" />
<path d="M3241 1695
L3354 1695
" />
<path d="M3298 1695
L3298 1498
L3316 1526
L3335 1545
L3354 1554
" />
<path d="M12612 5986
L12725 5986
" />
<path d="M12669 5986
L12669 5790
L12687 5818
L12706 5836
L12725 5846
" />
<path d="M12537 5808
L12528 5799
L12509 5790
L12462 5790
L12444 5799
L12434 5808
L12425 5827
L12425 5846
L12434 5874
L12547 5986
L12425 5986
" />
<path d="M12369 5790
L12303 5986
L12237 5790
" />
<path d="M4683 1695
L4683 1498
L4636 1498
L4608 1508
L4589 1526
L4580 1545
L4570 1583
L4570 1611
L4580 1648
L4589 1667
L4608 1686
L4636 1695
L4683 1695
" />
<path d="M4383 1695
L4496 1695
" />
<path d="M4439 1695
L4439 1498
L4458 1526
L4477 1545
L4496 1554
" />
</g>
<g style="fill:#480048; fill-opacity:0.0; 
stroke:#480048; stroke-width:62.9921; stroke-opacity:1; 
stroke-linecap:round; stroke-linejoin:round;">
<path d="M7973 3722
L7973 3506
" />
<path d="M6664.17 1773.82 A31.1248 31.1248 0.0 0 0 6683.86 1813.19 " />
<path d="M6634.65 1754.13 A71.6547 71.6547 0.0 0 0 6683.86 1842.72 " />
<path d="M6585.43 1773.82 A108.268 108.268 0.0 0 0 6693.7 1882.09 " />
<path d="M6526.38 1754.13 A179.609 179.609 0.0 0 0 6674.02 1960.83 " />
<path d="M6477.17 1754.13 A227.232 227.232 0.0 0 0 6683.86 2000.2 " />
<path d="M6418.11 1744.29 A286.956 286.956 0.0 0 0 6674.02 2059.25 " />
<path d="M6683.86 5779.72 A40.5819 40.5819 0.0 0 0 6654.33 5828.94 " />
<path d="M6683.86 5720.67 A90.7437 90.7437 0.0 0 0 6614.96 5828.94 " />
<path d="M6674.02 5691.14 A131.316 131.316 0.0 0 0 6575.59 5848.62 " />
<path d="M6674.02 5651.77 A179.609 179.609 0.0 0 0 6526.38 5858.46 " />
<path d="M6683.86 5582.87 A237.039 237.039 0.0 0 0 6467.32 5838.78 " />
<path d="M6683.86 5533.66 A286.111 286.111 0.0 0 0 6418.11 5838.78 " />
<path d="M6654 1793
L6654 5769
" />
<path d="M6654 5769
L6595 5769
" />
<path d="M6595 5769
L6595 1823
" />
<path d="M6595 1823
L6536 1823
" />
<path d="M6536 1823
L6536 5769
" />
<path d="M6536 5769
L6477 5769
" />
<path d="M6477 5769
L6477 1823
" />
<path d="M6477 1823
L6418 1823
" />
<path d="M6418 1823
L6418 5769
" />
<path d="M6388 1793
L6683 1793
" />
<path d="M6388 5799
L6683 5799
" />
<path d="M9843 5907
L9813 5937
" />
<path d="M8012 6124
L8012 3584
" />
<path d="M8012 3584
L8071 3693
" />
<path d="M8071 3693
L8071 6124
" />
<path d="M8071 6124
L8130 6124
" />
<path d="M8130 6124
L8130 3732
" />
<path d="M8130 3732
L8189 3781
" />
<path d="M8189 3781
L8189 6124
" />
<path d="M8189 6124
L8248 6124
" />
<path d="M8248 6124
L8248 3791
" />
<path d="M8248 3791
L8307 3811
" />
<path d="M8307 3811
L8307 6124
" />
<path d="M8307 6124
L8366 6124
" />
<path d="M8366 6124
L8366 3811
" />
<path d="M8366 3811
L8425 3811
" />
<path d="M8425 3811
L8425 6124
" />
<path d="M8425 6124
L8485 6124
" />
<path d="M8485 6124
L8485 3811
" />
<path d="M8485 3811
L8544 3811
" />
<path d="M8544 3811
L8544 6124
" />
<path d="M8544 6124
L8603 6124
" />
<path d="M8603 6124
L8603 3811
" />
<path d="M8603 3811
L8662 3811
" />
<path d="M8662 3811
L8662 6124
" />
<path d="M8662 6124
L8721 6124
" />
<path d="M8721 6124
L8721 3811
" />
<path d="M8721 3811
L8780 3811
" />
<path d="M8780 3811
L8780 6124
" />
<path d="M8780 6124
L8839 6124
" />
<path d="M8839 6124
L8839 3811
" />
<path d="M8839 3811
L8898 3811
" />
<path d="M8898 3811
L8898 6124
" />
<path d="M8898 6124
L8957 6124
" />
<path d="M8957 6124
L8957 3811
" />
<path d="M8957 3811
L9016 3811
" />
<path d="M9016 3811
L9016 6124
" />
<path d="M9016 6124
L9075 6124
" />
<path d="M9075 6124
L9075 3811
" />
<path d="M9075 3811
L9134 3811
" />
<path d="M9134 3811
L9134 6124
" />
<path d="M9134 6124
L9193 6124
" />
<path d="M9193 6124
L9193 3811
" />
<path d="M9193 3811
L9252 3811
" />
<path d="M9252 3811
L9252 6124
" />
<path d="M9252 6124
L9311 6124
" />
<path d="M9311 6124
L9311 3811
" />
<path d="M9311 3811
L9370 3811
" />
<path d="M9370 3811
L9370 6124
" />
<path d="M9370 6124
L9429 6124
" />
<path d="M9429 6124
L9429 3811
" />
<path d="M9429 3811
L9488 3811
" />
<path d="M9488 3811
L9488 6124
" />
<path d="M9488 6124
L9548 6124
" />
<path d="M9548 6124
L9548 3811
" />
<path d="M9548 3811
L9607 3811
" />
<path d="M9607 3811
L9607 6124
" />
<path d="M9607 6124
L9666 6094
" />
<path d="M9666 6094
L9666 3850
" />
<path d="M9666 3850
L9666 3840
" />
<path d="M9666 3840
L9725 3870
" />
<path d="M9725 3870
L9725 6065
" />
<path d="M9725 6065
L9784 6006
" />
<path d="M9784 6006
L9784 3919
" />
<path d="M9784 3919
L9843 4037
" />
<path d="M9843 4037
L9843 5907
" />
<path d="M7717 6124
L7717 1468
" />
<path d="M7717 1468
L7776 1498
" />
<path d="M7776 1498
L7776 6124
" />
<path d="M7776 6124
L7835 6124
" />
<path d="M7835 6124
L7835 1517
" />
<path d="M7835 1517
L7894 1567
" />
<path d="M7894 1567
L7894 6124
" />
<path d="M7894 6124
L7953 6124
" />
<path d="M7953 6124
L7953 1655
" />
<path d="M7953 1655
L7924 1596
" />
<path d="M9744 1665
L9666 1586
" />
<path d="M9528 1567
L9744 1567
" />
<path d="M9744 1567
L9744 1734
" />
<path d="M8101 1547
L8012 1478
" />
<path d="M9666 1488
L8032 1488
" />
<path d="M8091 1537
L9725 1537
" />
<path d="M9853 3732
L9853 3781
" />
<path d="M9774 3702
L9774 1576
" />
<path d="M9823 3771
L9823 1645
" />
<path d="M7422 1901
L7333 1823
" />
<path d="M7382 1901
L6880 1537
" />
<path d="M6880 1537
L7018 1537
" />
<path d="M7471 1882
L6969 1547
" />
<path d="M7471 1498
L6870 1498
" />
<path d="M6870 1911
L7471 1911
" />
<path d="M7146 2954
L6870 2817
" />
<path d="M7146 3004
L6880 2866
" />
<path d="M7412 3004
L7412 2974
" />
<path d="M7372 2846
L7264 2846
" />
<path d="M7362 2886
L7254 2886
" />
<path d="M7215 2856
L7215 2945
" />
<path d="M7392 2856
L7392 2945
" />
<path d="M7441 3132
L7136 3132
" />
<path d="M7166 3132
L7166 2895
" />
<path d="M7441 3132
L7441 2886
" />
<path d="M7471 3161
L6870 3161
" />
<path d="M7422 3653
L7422 3535
" />
<path d="M7412 3575
L6870 3575
" />
<path d="M7441 3771
L7441 3378
" />
<path d="M7441 4254
L6920 4254
" />
<path d="M6900 4283
L7402 4283
" />
<path d="M6900 3850
L6900 4313
" />
<path d="M7166 3958
L7166 4313
" />
<path d="M7441 3958
L7441 4313
" />
<path d="M7156 4765
L7097 4765
" />
<path d="M7353 4559
L7303 4559
" />
<path d="M7471 4992
L7205 4775
" />
<path d="M7205 4775
L7451 4559
" />
<path d="M7451 4559
L7372 4559
" />
<path d="M7372 4559
L7136 4765
" />
<path d="M7136 4765
L7372 4972
" />
<path d="M6870 4519
L7471 4519
" />
</g>
<g style="fill:#480048; fill-opacity:0.0; 
stroke:#480048; stroke-width:39.3701; stroke-opacity:1; 
stroke-linecap:round; stroke-linejoin:round;">
<path d="M6851 4470
L6851 4569
" />
</g>
<g style="fill:#480048; fill-opacity:0.0; 
stroke:#480048; stroke-width:62.9921; stroke-opacity:1; 
stroke-linecap:round; stroke-linejoin:round;">
<path d="M6870 5002
L7471 5002
" />
<path d="M6900.39 5386.02 A157.48 157.48 0.0 0 0 7057.87 5543.5 " />
<path d="M7057.87 5248.23 A137.795 137.795 0.0 0 0 6920.08 5386.02 " />
<path d="M6880.71 5386.02 A177.165 177.165 0.0 0 0 7057.87 5563.19 " />
<path d="M7057.87 5208.86 A177.165 177.165 0.0 0 0 6880.71 5386.02 " />
<path d="M6959 5208
L7471 5208
" />
<path d="M7471 5543
L6959 5543
" />
<path d="M6900 6084
L6939 6045
" />
<path d="M6900 6084
L6900 5720
" />
<path d="M7471 6084
L6870 6084
" />
<path d="M6880 2246
L7018 2275
" />
<path d="M7018 2275
L6929 2364
" />
<path d="M6929 2364
L6880 2246
" />
<path d="M7097 2462
L6890 2256
" />
<path d="M7254 2462
L7451 2265
" />
<path d="M7175 2462
L6988 2462
" />
<path d="M7175 2462
L7362 2462
" />
<path d="M7175 2699
L7175 2462
" />
</g>
<g style="fill:#480048; fill-opacity:0.0; 
stroke:#480048; stroke-width:39.3701; stroke-opacity:1; 
stroke-linecap:round; stroke-linejoin:round;">
<circle cx="7166.14" cy="2384.06" r="324.803" /> 
<path d="M7490 2994
L7490 3210
" />
<path d="M7116.93 2994.29 A187.008 187.008 0.0 0 0 7303.94 3181.3 " />
<path d="M7303.94 3181.3 A187.008 187.008 0.0 0 0 7490.95 2994.29 " />
<path d="M7392 2994
L7392 3112
" />
<path d="M7215 2994
L7215 3112
" />
<path d="M7215.35 2994.29 A88.5827 88.5827 0.0 0 0 7303.94 3082.87 " />
<path d="M7303.94 3082.87 A88.5827 88.5827 0.0 0 0 7392.52 2994.29 " />
<path d="M7215 3112
L7392 3112
" />
<path d="M6851 3210
L6851 3112
" />
<path d="M6851 3112
L7116 3112
" />
<path d="M7116 3112
L7116 3013
" />
<path d="M7116 3013
L6851 2886
" />
<path d="M6851 2886
L6851 2777
" />
<path d="M6851 2777
L7116 2905
" />
<path d="M6851 3210
L7490 3210
" />
<path d="M7490 1842
L7048 1547
" />
<path d="M7048 1547
L7116 1547
" />
<path d="M7490 1449
L6851 1449
" />
<path d="M6851 1449
L6851 1567
" />
<path d="M6851 1567
L7294 1862
" />
<path d="M7294 1862
L7225 1862
" />
<path d="M7490 1449
L7490 1547
" />
<path d="M7490 1547
L7116 1547
" />
<path d="M6851 1960
L7490 1960
" />
<path d="M7490 1960
L7490 1842
" />
<path d="M6851 1960
L6851 1862
" />
<path d="M6851 1862
L7225 1862
" />
<path d="M7490 3791
L7490 3358
" />
<path d="M7490 3358
L7392 3358
" />
<path d="M7392 3358
L7392 3525
" />
<path d="M7392 3525
L6851 3525
" />
<path d="M6851 3525
L6851 3624
" />
<path d="M6851 3624
L7392 3624
" />
<path d="M7392 3624
L7392 3791
" />
<path d="M7392 3791
L7490 3791
" />
<path d="M7490 4332
L7490 3939
" />
<path d="M7490 3939
L7392 3939
" />
<path d="M7392 3939
L7392 4234
" />
<path d="M7392 4234
L7215 4234
" />
<path d="M7215 4234
L7215 3939
" />
<path d="M7215 3939
L7116 3939
" />
<path d="M7116 3939
L7116 4234
" />
<path d="M7116 4234
L6949 4234
" />
<path d="M6949 4234
L6949 3830
" />
<path d="M6949 3830
L6851 3830
" />
<path d="M6851 3830
L6851 4332
" />
<path d="M6851 4332
L7490 4332
" />
<path d="M7490 4470
L7490 4578
" />
<path d="M7490 4578
L7254 4765
" />
<path d="M7254 4765
L7490 4943
" />
<path d="M7490 4943
L7490 5051
" />
<path d="M7313 4578
L7057 4765
" />
<path d="M7057 4765
L7313 4952
" />
<path d="M6851 5051
L7490 5051
" />
<path d="M7313 4569
L6851 4569
" />
<path d="M6851 4470
L7490 4470
" />
<path d="M6851 5051
L6851 4952
" />
<path d="M6851 4952
L7313 4952
" />
<path d="M7490 5159
L7067 5159
" />
<path d="M7067 5258
L7490 5258
" />
<path d="M7490 5592
L7067 5592
" />
<path d="M7067 5494
L7490 5494
" />
<path d="M7067.72 5159.65 A216.535 216.535 0.0 0 0 6851.18 5376.18 " />
<path d="M6851.18 5376.18 A216.535 216.535 0.0 0 0 7067.72 5592.72 " />
<path d="M6949.61 5376.18 A118.11 118.11 0.0 0 0 7067.72 5494.29 " />
<path d="M7067.72 5258.07 A118.11 118.11 0.0 0 0 6949.61 5376.18 " />
<path d="M7490 5258
L7490 5159
" />
<path d="M7490 5592
L7490 5494
" />
<path d="M7490 6035
L7490 6134
" />
<path d="M7490 6035
L6949 6035
" />
<path d="M6949 6035
L6949 5700
" />
<path d="M6949 5700
L6851 5700
" />
<path d="M6851 5700
L6851 6134
" />
<path d="M6851 6134
L7490 6134
" />
<path d="M7946.09 2264.3 A488.669 488.669 0.0 0 0 8071.65 2137.99 " />
<path d="M9747.53 4536.53 A524.986 524.986 0.0 0 0 9872.84 4391.93 " />
<path d="M9538 1449
L7933 1449
" />
<path d="M9538 1586
L8071 1586
" />
<path d="M9735 1783
L9735 3712
" />
<path d="M9872 1783
L9872 3860
" />
<path d="M9538.19 1980.51 A196.85 196.85 0.0 0 0 9735.04 1783.66 " />
<path d="M9538.19 2118.31 A334.646 334.646 0.0 0 0 9872.84 1783.66 " />
<path d="M8002 1783
L8002 3456
" />
<path d="M7668.11 2118.31 A334.646 334.646 0.0 0 0 8002.76 1783.66 " />
<path d="M8337.4 3122.24 A334.646 334.646 0.0 0 0 8002.76 3456.89 " />
<path d="M9538 3791
L8327 3791
" />
<path d="M9538.19 4460.83 A334.646 334.646 0.0 0 0 9872.84 4126.18 " />
<path d="M9872 5809
L9872 4126
" />
<path d="M9872.84 5809.25 A334.646 334.646 0.0 0 0 9538.19 5474.61 " />
<path d="M7668 1449
L7668 6143
" />
<path d="M7668 6143
L9538 6143
" />
<path d="M6368 5809
L6368 1783
" />
<path d="M6703.54 5474.61 A334.646 334.646 0.0 0 0 6368.9 5809.25 " />
<path d="M6368.9 1783.66 A334.646 334.646 0.0 0 0 6703.54 2118.31 " />
<path d="M6703 6143
L6703 1449
" />
</g>
<g style="fill:#480048; fill-opacity:0.0; 
stroke:#480048; stroke-width:50; stroke-opacity:1; 
stroke-linecap:round; stroke-linejoin:round;">
<path d="M5122 2826
L5122 2051
" />
<path d="M5122 2051
L5922 2051
" />
<path d="M5922 2051
L5922 3601
" />
<path d="M5922 3601
L5122 3601
" />
<path d="M5122 3601
L5122 2826
" />
</g>
<g style="fill:#480048; fill-opacity:0.0; 
stroke:#480048; stroke-width:60; stroke-opacity:1; 
stroke-linecap:round; stroke-linejoin:round;">
<path d="M3546 1772
L4171 1772
" />
<path d="M4171 2622
L3546 2622
" />
<path d="M3246 2622
L2646 2622
" />
<path d="M2646 2622
L2621 2622
" />
<path d="M2621 1772
L3246 1772
" />
</g>
<g style="fill:#480048; fill-opacity:0.0; 
stroke:#480048; stroke-width:100; stroke-opacity:1; 
stroke-linecap:round; stroke-linejoin:round;">
<path d="M12906 2503
L12906 2903
" />
<path d="M12906 6103
L12906 5703
" />
<path d="M10756 2503
L10756 6103
" />
<path d="M12906 2503
L10756 2503
" />
<path d="M12906 6103
L10756 6103
" />
</g>
<g style="fill:#480048; fill-opacity:0.0; 
stroke:#480048; stroke-width:50; stroke-opacity:1; 
stroke-linecap:round; stroke-linejoin:round;">
<path d="M4845 2626
L4845 2726
" />
<path d="M4795 2626
L4795 2801
" />
<path d="M4745 2626
L4745 2901
" />
<path d="M4545 2626
L4545 2726
" />
<path d="M4595 2626
L4595 2801
" />
<path d="M4645 2626
L4645 2901
" />
<path d="M4695 2976
L4695 2626
" />
<path d="M4470 3026
L4920 3026
" />
<path d="M4695 2976
L4470 2626
" />
<path d="M4470 2626
L4920 2626
" />
<path d="M4920 2626
L4695 2976
" />
<path d="M4395 3576
L4995 3576
" />
<path d="M4995 3576
L4995 3626
" />
<path d="M4995 3626
L4395 3626
" />
<path d="M4395 3626
L4395 3576
" />
<path d="M4395 2701
L4395 2076
" />
<path d="M4395 2076
L4995 2076
" />
<path d="M4995 2076
L4995 2701
" />
</g>
<g style="fill:#840000; fill-opacity:0.0; 
stroke:#840000; stroke-width:39.3701; stroke-opacity:1; 
stroke-linecap:round; stroke-linejoin:round;">
</g>
<g style="fill:#840000; fill-opacity:1.0; 
stroke:#840000; stroke-width:39.3701; stroke-opacity:1; 
stroke-linecap:round; stroke-linejoin:round;">
<polyline style="fill-rule:evenodd;"
points="14186,5633
10925,5633
10925,4973
14186,4973
14186,5633
" /> 
<polyline style="fill-rule:evenodd;"
points="14186,3633
10925,3633
10925,2973
14186,2973
14186,3633
" /> 
</g> 
</svg>
