%FSLAX34Y34*%
G04 Gerber Fmt 3.4, Leading zero omitted, Abs format*
G04 (created by PCBNEW (2014-05-21 BZR 4875)-product) date Friday 04 July 2014 06:07:36 PM IST*
%MOIN*%
G01*
G70*
G90*
G04 APERTURE LIST*
%ADD10C,0.005906*%
%ADD11C,0.010000*%
%ADD12R,0.065000X0.075000*%
%ADD13R,0.075000X0.065000*%
%ADD14C,0.090000*%
%ADD15R,0.070000X0.055000*%
%ADD16R,0.079000X0.071200*%
%ADD17R,0.100000X0.044000*%
%ADD18C,0.085000*%
%ADD19R,0.085000X0.085000*%
%ADD20R,0.090000X0.090000*%
%ADD21R,0.068031X0.055827*%
%ADD22R,0.350000X0.090000*%
G04 APERTURE END LIST*
G54D10*
G54D11*
X18405Y-16437D02*
X11318Y-16437D01*
X22736Y-10826D02*
X22736Y-13779D01*
X22342Y-10433D02*
X19192Y-10433D01*
X22342Y-14173D02*
X19192Y-14173D01*
X22342Y-14173D02*
G75*
G03X22736Y-13779I0J393D01*
G74*
G01*
X22736Y-10826D02*
G75*
G03X22342Y-10433I-393J0D01*
G74*
G01*
X11318Y-9350D02*
X18405Y-9350D01*
X10925Y-16043D02*
X10925Y-9744D01*
X10925Y-16043D02*
G75*
G03X11318Y-16437I393J0D01*
G74*
G01*
X11318Y-9350D02*
G75*
G03X10925Y-9744I0J-393D01*
G74*
G01*
X18799Y-10039D02*
X18799Y-9744D01*
X18799Y-16043D02*
X18799Y-14566D01*
X18799Y-9744D02*
G75*
G03X18405Y-9350I-393J0D01*
G74*
G01*
X18799Y-10039D02*
G75*
G03X19192Y-10433I393J0D01*
G74*
G01*
X18405Y-16437D02*
G75*
G03X18799Y-16043I0J393D01*
G74*
G01*
X19192Y-14173D02*
G75*
G03X18799Y-14566I0J-393D01*
G74*
G01*
G54D12*
X16240Y-11044D03*
X16240Y-10294D03*
G54D13*
X17479Y-12775D03*
X18229Y-12775D03*
X18229Y-10413D03*
X17479Y-10413D03*
G54D14*
X11692Y-14606D03*
G54D15*
X14254Y-10926D03*
X13304Y-10551D03*
X14254Y-10176D03*
G54D16*
X15295Y-10294D03*
X15295Y-11044D03*
G54D17*
X15500Y-11875D03*
X13600Y-11875D03*
X15500Y-12375D03*
X15500Y-12875D03*
X15500Y-13375D03*
X13600Y-12375D03*
X13600Y-12875D03*
X13600Y-13375D03*
G54D15*
X18211Y-12008D03*
X17261Y-11633D03*
X18211Y-11258D03*
G54D18*
X11712Y-13303D03*
G54D19*
X11712Y-12303D03*
G54D18*
X11712Y-11303D03*
G54D20*
X17696Y-14606D03*
G54D14*
X16696Y-14606D03*
X15696Y-14606D03*
X14696Y-14606D03*
X13696Y-14606D03*
X12696Y-14606D03*
G54D21*
X16476Y-12033D03*
X16476Y-13320D03*
G54D22*
X20970Y-13303D03*
X20970Y-11303D03*
G54D19*
X14681Y-15846D03*
G54D18*
X13681Y-15846D03*
X12681Y-15846D03*
G54D19*
X15732Y-15846D03*
G54D18*
X16732Y-15846D03*
X17732Y-15846D03*
M02*
