%FSLAX34Y34*%
G04 Gerber Fmt 3.4, Leading zero omitted, Abs format*
G04 (created by PCBNEW (2014-05-21 BZR 4875)-product) date Friday 04 July 2014 06:07:35 PM IST*
%MOIN*%
G01*
G70*
G90*
G04 APERTURE LIST*
%ADD10C,0.005906*%
%ADD11C,0.010000*%
%ADD12R,0.045000X0.055000*%
%ADD13R,0.055000X0.045000*%
%ADD14R,0.050000X0.035000*%
%ADD15R,0.059000X0.051200*%
%ADD16R,0.080000X0.024000*%
%ADD17R,0.048031X0.035827*%
%ADD18R,0.330000X0.070000*%
G04 APERTURE END LIST*
G54D10*
G54D11*
X18405Y-16437D02*
X11318Y-16437D01*
X22736Y-10826D02*
X22736Y-13779D01*
X22342Y-10433D02*
X19192Y-10433D01*
X22342Y-14173D02*
X19192Y-14173D01*
X22342Y-14173D02*
G75*
G03X22736Y-13779I0J393D01*
G74*
G01*
X22736Y-10826D02*
G75*
G03X22342Y-10433I-393J0D01*
G74*
G01*
X11318Y-9350D02*
X18405Y-9350D01*
X10925Y-16043D02*
X10925Y-9744D01*
X10925Y-16043D02*
G75*
G03X11318Y-16437I393J0D01*
G74*
G01*
X11318Y-9350D02*
G75*
G03X10925Y-9744I0J-393D01*
G74*
G01*
X18799Y-10039D02*
X18799Y-9744D01*
X18799Y-16043D02*
X18799Y-14566D01*
X18799Y-9744D02*
G75*
G03X18405Y-9350I-393J0D01*
G74*
G01*
X18799Y-10039D02*
G75*
G03X19192Y-10433I393J0D01*
G74*
G01*
X18405Y-16437D02*
G75*
G03X18799Y-16043I0J393D01*
G74*
G01*
X19192Y-14173D02*
G75*
G03X18799Y-14566I0J-393D01*
G74*
G01*
G54D12*
X16240Y-11044D03*
X16240Y-10294D03*
G54D13*
X17479Y-12775D03*
X18229Y-12775D03*
X18229Y-10413D03*
X17479Y-10413D03*
G54D14*
X14254Y-10926D03*
X13304Y-10551D03*
X14254Y-10176D03*
G54D15*
X15295Y-10294D03*
X15295Y-11044D03*
G54D16*
X15500Y-11875D03*
X13600Y-11875D03*
X15500Y-12375D03*
X15500Y-12875D03*
X15500Y-13375D03*
X13600Y-12375D03*
X13600Y-12875D03*
X13600Y-13375D03*
G54D14*
X18211Y-12008D03*
X17261Y-11633D03*
X18211Y-11258D03*
G54D17*
X16476Y-12033D03*
X16476Y-13320D03*
G54D18*
X20970Y-13303D03*
X20970Y-11303D03*
M02*
