%FSLAX34Y34*%
G04 Gerber Fmt 3.4, Leading zero omitted, Abs format*
G04 (created by PCBNEW (2014-05-21 BZR 4875)-product) date Friday 04 July 2014 06:07:38 PM IST*
%MOIN*%
G01*
G70*
G90*
G04 APERTURE LIST*
%ADD10C,0.005000*%
%ADD11C,0.010000*%
%ADD12C,0.007874*%
%ADD13C,0.011811*%
G04 APERTURE END LIST*
G54D10*
G54D11*
X18405Y-16437D02*
X11318Y-16437D01*
X22736Y-10826D02*
X22736Y-13779D01*
X22342Y-10433D02*
X19192Y-10433D01*
X22342Y-14173D02*
X19192Y-14173D01*
X22342Y-14173D02*
G75*
G03X22736Y-13779I0J393D01*
G74*
G01*
X22736Y-10826D02*
G75*
G03X22342Y-10433I-393J0D01*
G74*
G01*
X11318Y-9350D02*
X18405Y-9350D01*
X10925Y-16043D02*
X10925Y-9744D01*
X10925Y-16043D02*
G75*
G03X11318Y-16437I393J0D01*
G74*
G01*
X11318Y-9350D02*
G75*
G03X10925Y-9744I0J-393D01*
G74*
G01*
X18799Y-10039D02*
X18799Y-9744D01*
X18799Y-16043D02*
X18799Y-14566D01*
X18799Y-9744D02*
G75*
G03X18405Y-9350I-393J0D01*
G74*
G01*
X18799Y-10039D02*
G75*
G03X19192Y-10433I393J0D01*
G74*
G01*
X18405Y-16437D02*
G75*
G03X18799Y-16043I0J393D01*
G74*
G01*
X19192Y-14173D02*
G75*
G03X18799Y-14566I0J-393D01*
G74*
G01*
G54D12*
X13772Y-9678D02*
X14022Y-9928D01*
X14022Y-9678D02*
X13772Y-9928D01*
X14107Y-12749D02*
X14357Y-12999D01*
X14357Y-12749D02*
X14107Y-12999D01*
X14107Y-13260D02*
X14357Y-13510D01*
X14357Y-13260D02*
X14107Y-13510D01*
X14126Y-9678D02*
X14376Y-9928D01*
X14376Y-9678D02*
X14126Y-9928D01*
X14481Y-9678D02*
X14731Y-9928D01*
X14731Y-9678D02*
X14481Y-9928D01*
X16115Y-9678D02*
X16365Y-9928D01*
X16365Y-9678D02*
X16115Y-9928D01*
X16626Y-12414D02*
X16876Y-12664D01*
X16876Y-12414D02*
X16626Y-12664D01*
X16725Y-9678D02*
X16975Y-9928D01*
X16975Y-9678D02*
X16725Y-9928D01*
X16961Y-13162D02*
X17211Y-13412D01*
X17211Y-13162D02*
X16961Y-13412D01*
X17354Y-9678D02*
X17604Y-9928D01*
X17604Y-9678D02*
X17354Y-9928D01*
X17591Y-12040D02*
X17841Y-12290D01*
X17841Y-12040D02*
X17591Y-12290D01*
X17749Y-13142D02*
X17999Y-13392D01*
X17999Y-13142D02*
X17749Y-13392D01*
X18103Y-10741D02*
X18353Y-10991D01*
X18353Y-10741D02*
X18103Y-10991D01*
X18103Y-13063D02*
X18353Y-13313D01*
X18353Y-13063D02*
X18103Y-13313D01*
X18457Y-13142D02*
X18707Y-13392D01*
X18707Y-13142D02*
X18457Y-13392D01*
X18615Y-11882D02*
X18865Y-12132D01*
X18865Y-11882D02*
X18615Y-12132D01*
X18752Y-11469D02*
X19002Y-11719D01*
X19002Y-11469D02*
X18752Y-11719D01*
X19730Y-11303D02*
G75*
G03X19730Y-11303I-160J0D01*
G74*
G01*
X19730Y-13303D02*
G75*
G03X19730Y-13303I-160J0D01*
G74*
G01*
X11692Y-14406D02*
X11692Y-14806D01*
X11492Y-14606D02*
X11892Y-14606D01*
X11712Y-11103D02*
X11712Y-11503D01*
X11512Y-11303D02*
X11912Y-11303D01*
X11712Y-12103D02*
X11712Y-12503D01*
X11512Y-12303D02*
X11912Y-12303D01*
X11712Y-13103D02*
X11712Y-13503D01*
X11512Y-13303D02*
X11912Y-13303D01*
X12681Y-15646D02*
X12681Y-16046D01*
X12481Y-15846D02*
X12881Y-15846D01*
X12696Y-14406D02*
X12696Y-14806D01*
X12496Y-14606D02*
X12896Y-14606D01*
X13681Y-15646D02*
X13681Y-16046D01*
X13481Y-15846D02*
X13881Y-15846D01*
X13696Y-14406D02*
X13696Y-14806D01*
X13496Y-14606D02*
X13896Y-14606D01*
X14681Y-15646D02*
X14681Y-16046D01*
X14481Y-15846D02*
X14881Y-15846D01*
X14696Y-14406D02*
X14696Y-14806D01*
X14496Y-14606D02*
X14896Y-14606D01*
X15696Y-14406D02*
X15696Y-14806D01*
X15496Y-14606D02*
X15896Y-14606D01*
X15732Y-15646D02*
X15732Y-16046D01*
X15532Y-15846D02*
X15932Y-15846D01*
X16696Y-14406D02*
X16696Y-14806D01*
X16496Y-14606D02*
X16896Y-14606D01*
X16732Y-15646D02*
X16732Y-16046D01*
X16532Y-15846D02*
X16932Y-15846D01*
X17696Y-14406D02*
X17696Y-14806D01*
X17496Y-14606D02*
X17896Y-14606D01*
X17732Y-15646D02*
X17732Y-16046D01*
X17532Y-15846D02*
X17932Y-15846D01*
G54D13*
X11943Y-18320D02*
X11943Y-17139D01*
X12225Y-17139D01*
X12393Y-17195D01*
X12506Y-17308D01*
X12562Y-17420D01*
X12618Y-17645D01*
X12618Y-17814D01*
X12562Y-18039D01*
X12506Y-18151D01*
X12393Y-18264D01*
X12225Y-18320D01*
X11943Y-18320D01*
X13124Y-18320D02*
X13124Y-17533D01*
X13124Y-17758D02*
X13181Y-17645D01*
X13237Y-17589D01*
X13349Y-17533D01*
X13462Y-17533D01*
X13856Y-18320D02*
X13856Y-17533D01*
X13856Y-17139D02*
X13799Y-17195D01*
X13856Y-17251D01*
X13912Y-17195D01*
X13856Y-17139D01*
X13856Y-17251D01*
X14587Y-18320D02*
X14474Y-18264D01*
X14418Y-18151D01*
X14418Y-17139D01*
X15205Y-18320D02*
X15093Y-18264D01*
X15037Y-18151D01*
X15037Y-17139D01*
X16555Y-18320D02*
X16555Y-17139D01*
X16949Y-17983D01*
X17343Y-17139D01*
X17343Y-18320D01*
X18411Y-18320D02*
X18411Y-17701D01*
X18355Y-17589D01*
X18243Y-17533D01*
X18018Y-17533D01*
X17905Y-17589D01*
X18411Y-18264D02*
X18299Y-18320D01*
X18018Y-18320D01*
X17905Y-18264D01*
X17849Y-18151D01*
X17849Y-18039D01*
X17905Y-17926D01*
X18018Y-17870D01*
X18299Y-17870D01*
X18411Y-17814D01*
X18974Y-17533D02*
X18974Y-18714D01*
X18974Y-17589D02*
X19086Y-17533D01*
X19311Y-17533D01*
X19424Y-17589D01*
X19480Y-17645D01*
X19536Y-17758D01*
X19536Y-18095D01*
X19480Y-18208D01*
X19424Y-18264D01*
X19311Y-18320D01*
X19086Y-18320D01*
X18974Y-18264D01*
X20042Y-18208D02*
X20099Y-18264D01*
X20042Y-18320D01*
X19986Y-18264D01*
X20042Y-18208D01*
X20042Y-18320D01*
X20042Y-17589D02*
X20099Y-17645D01*
X20042Y-17701D01*
X19986Y-17645D01*
X20042Y-17589D01*
X20042Y-17701D01*
X10625Y-20141D02*
X10875Y-20391D01*
X10875Y-20141D02*
X10625Y-20391D01*
X12168Y-19619D02*
X12281Y-19619D01*
X12393Y-19675D01*
X12449Y-19732D01*
X12506Y-19844D01*
X12562Y-20069D01*
X12562Y-20350D01*
X12506Y-20575D01*
X12449Y-20688D01*
X12393Y-20744D01*
X12281Y-20800D01*
X12168Y-20800D01*
X12056Y-20744D01*
X12000Y-20688D01*
X11943Y-20575D01*
X11887Y-20350D01*
X11887Y-20069D01*
X11943Y-19844D01*
X12000Y-19732D01*
X12056Y-19675D01*
X12168Y-19619D01*
X13068Y-20688D02*
X13124Y-20744D01*
X13068Y-20800D01*
X13012Y-20744D01*
X13068Y-20688D01*
X13068Y-20800D01*
X14137Y-19619D02*
X13912Y-19619D01*
X13799Y-19675D01*
X13743Y-19732D01*
X13631Y-19900D01*
X13574Y-20125D01*
X13574Y-20575D01*
X13631Y-20688D01*
X13687Y-20744D01*
X13799Y-20800D01*
X14024Y-20800D01*
X14137Y-20744D01*
X14193Y-20688D01*
X14249Y-20575D01*
X14249Y-20294D01*
X14193Y-20182D01*
X14137Y-20125D01*
X14024Y-20069D01*
X13799Y-20069D01*
X13687Y-20125D01*
X13631Y-20182D01*
X13574Y-20294D01*
X15262Y-20013D02*
X15262Y-20800D01*
X14980Y-19563D02*
X14699Y-20407D01*
X15430Y-20407D01*
X15880Y-20800D02*
X15880Y-20013D01*
X15880Y-20125D02*
X15937Y-20069D01*
X16049Y-20013D01*
X16218Y-20013D01*
X16330Y-20069D01*
X16387Y-20182D01*
X16387Y-20800D01*
X16387Y-20182D02*
X16443Y-20069D01*
X16555Y-20013D01*
X16724Y-20013D01*
X16836Y-20069D01*
X16893Y-20182D01*
X16893Y-20800D01*
X17455Y-20800D02*
X17455Y-20013D01*
X17455Y-20125D02*
X17511Y-20069D01*
X17624Y-20013D01*
X17793Y-20013D01*
X17905Y-20069D01*
X17961Y-20182D01*
X17961Y-20800D01*
X17961Y-20182D02*
X18018Y-20069D01*
X18130Y-20013D01*
X18299Y-20013D01*
X18411Y-20069D01*
X18467Y-20182D01*
X18467Y-20800D01*
X20773Y-19563D02*
X19761Y-21082D01*
X22292Y-19619D02*
X22405Y-19619D01*
X22517Y-19675D01*
X22573Y-19732D01*
X22629Y-19844D01*
X22686Y-20069D01*
X22686Y-20350D01*
X22629Y-20575D01*
X22573Y-20688D01*
X22517Y-20744D01*
X22405Y-20800D01*
X22292Y-20800D01*
X22180Y-20744D01*
X22123Y-20688D01*
X22067Y-20575D01*
X22011Y-20350D01*
X22011Y-20069D01*
X22067Y-19844D01*
X22123Y-19732D01*
X22180Y-19675D01*
X22292Y-19619D01*
X23192Y-20688D02*
X23248Y-20744D01*
X23192Y-20800D01*
X23136Y-20744D01*
X23192Y-20688D01*
X23192Y-20800D01*
X23979Y-19619D02*
X24092Y-19619D01*
X24204Y-19675D01*
X24261Y-19732D01*
X24317Y-19844D01*
X24373Y-20069D01*
X24373Y-20350D01*
X24317Y-20575D01*
X24261Y-20688D01*
X24204Y-20744D01*
X24092Y-20800D01*
X23979Y-20800D01*
X23867Y-20744D01*
X23811Y-20688D01*
X23754Y-20575D01*
X23698Y-20350D01*
X23698Y-20069D01*
X23754Y-19844D01*
X23811Y-19732D01*
X23867Y-19675D01*
X23979Y-19619D01*
X24823Y-19732D02*
X24879Y-19675D01*
X24992Y-19619D01*
X25273Y-19619D01*
X25385Y-19675D01*
X25442Y-19732D01*
X25498Y-19844D01*
X25498Y-19957D01*
X25442Y-20125D01*
X24767Y-20800D01*
X25498Y-20800D01*
X26566Y-19619D02*
X26004Y-19619D01*
X25948Y-20182D01*
X26004Y-20125D01*
X26117Y-20069D01*
X26398Y-20069D01*
X26510Y-20125D01*
X26566Y-20182D01*
X26623Y-20294D01*
X26623Y-20575D01*
X26566Y-20688D01*
X26510Y-20744D01*
X26398Y-20800D01*
X26117Y-20800D01*
X26004Y-20744D01*
X25948Y-20688D01*
X27073Y-19619D02*
X27073Y-19844D01*
X27523Y-19619D02*
X27523Y-19844D01*
X29266Y-21250D02*
X29210Y-21194D01*
X29097Y-21025D01*
X29041Y-20913D01*
X28985Y-20744D01*
X28929Y-20463D01*
X28929Y-20238D01*
X28985Y-19957D01*
X29041Y-19788D01*
X29097Y-19675D01*
X29210Y-19507D01*
X29266Y-19451D01*
X30335Y-20800D02*
X29660Y-20800D01*
X29997Y-20800D02*
X29997Y-19619D01*
X29885Y-19788D01*
X29772Y-19900D01*
X29660Y-19957D01*
X30728Y-19619D02*
X31516Y-19619D01*
X31010Y-20800D01*
X32866Y-20800D02*
X32866Y-19619D01*
X33372Y-20800D02*
X33372Y-20182D01*
X33316Y-20069D01*
X33203Y-20013D01*
X33034Y-20013D01*
X32922Y-20069D01*
X32866Y-20125D01*
X34103Y-20800D02*
X33991Y-20744D01*
X33934Y-20688D01*
X33878Y-20575D01*
X33878Y-20238D01*
X33934Y-20125D01*
X33991Y-20069D01*
X34103Y-20013D01*
X34272Y-20013D01*
X34384Y-20069D01*
X34441Y-20125D01*
X34497Y-20238D01*
X34497Y-20575D01*
X34441Y-20688D01*
X34384Y-20744D01*
X34272Y-20800D01*
X34103Y-20800D01*
X35172Y-20800D02*
X35059Y-20744D01*
X35003Y-20632D01*
X35003Y-19619D01*
X36072Y-20744D02*
X35959Y-20800D01*
X35734Y-20800D01*
X35622Y-20744D01*
X35565Y-20632D01*
X35565Y-20182D01*
X35622Y-20069D01*
X35734Y-20013D01*
X35959Y-20013D01*
X36072Y-20069D01*
X36128Y-20182D01*
X36128Y-20294D01*
X35565Y-20407D01*
X36578Y-20744D02*
X36690Y-20800D01*
X36915Y-20800D01*
X37028Y-20744D01*
X37084Y-20632D01*
X37084Y-20575D01*
X37028Y-20463D01*
X36915Y-20407D01*
X36746Y-20407D01*
X36634Y-20350D01*
X36578Y-20238D01*
X36578Y-20182D01*
X36634Y-20069D01*
X36746Y-20013D01*
X36915Y-20013D01*
X37028Y-20069D01*
X37478Y-21250D02*
X37534Y-21194D01*
X37646Y-21025D01*
X37703Y-20913D01*
X37759Y-20744D01*
X37815Y-20463D01*
X37815Y-20238D01*
X37759Y-19957D01*
X37703Y-19788D01*
X37646Y-19675D01*
X37534Y-19507D01*
X37478Y-19451D01*
G54D12*
X10875Y-21825D02*
G75*
G03X10875Y-21825I-160J0D01*
G74*
G01*
G54D13*
X12168Y-21178D02*
X12281Y-21178D01*
X12393Y-21235D01*
X12449Y-21291D01*
X12506Y-21403D01*
X12562Y-21628D01*
X12562Y-21909D01*
X12506Y-22134D01*
X12449Y-22247D01*
X12393Y-22303D01*
X12281Y-22359D01*
X12168Y-22359D01*
X12056Y-22303D01*
X12000Y-22247D01*
X11943Y-22134D01*
X11887Y-21909D01*
X11887Y-21628D01*
X11943Y-21403D01*
X12000Y-21291D01*
X12056Y-21235D01*
X12168Y-21178D01*
X13068Y-22247D02*
X13124Y-22303D01*
X13068Y-22359D01*
X13012Y-22303D01*
X13068Y-22247D01*
X13068Y-22359D01*
X13799Y-21684D02*
X13687Y-21628D01*
X13631Y-21572D01*
X13574Y-21460D01*
X13574Y-21403D01*
X13631Y-21291D01*
X13687Y-21235D01*
X13799Y-21178D01*
X14024Y-21178D01*
X14137Y-21235D01*
X14193Y-21291D01*
X14249Y-21403D01*
X14249Y-21460D01*
X14193Y-21572D01*
X14137Y-21628D01*
X14024Y-21684D01*
X13799Y-21684D01*
X13687Y-21741D01*
X13631Y-21797D01*
X13574Y-21909D01*
X13574Y-22134D01*
X13631Y-22247D01*
X13687Y-22303D01*
X13799Y-22359D01*
X14024Y-22359D01*
X14137Y-22303D01*
X14193Y-22247D01*
X14249Y-22134D01*
X14249Y-21909D01*
X14193Y-21797D01*
X14137Y-21741D01*
X14024Y-21684D01*
X15374Y-22359D02*
X14699Y-22359D01*
X15037Y-22359D02*
X15037Y-21178D01*
X14924Y-21347D01*
X14812Y-21460D01*
X14699Y-21516D01*
X15880Y-22359D02*
X15880Y-21572D01*
X15880Y-21684D02*
X15937Y-21628D01*
X16049Y-21572D01*
X16218Y-21572D01*
X16330Y-21628D01*
X16387Y-21741D01*
X16387Y-22359D01*
X16387Y-21741D02*
X16443Y-21628D01*
X16555Y-21572D01*
X16724Y-21572D01*
X16836Y-21628D01*
X16893Y-21741D01*
X16893Y-22359D01*
X17455Y-22359D02*
X17455Y-21572D01*
X17455Y-21684D02*
X17511Y-21628D01*
X17624Y-21572D01*
X17793Y-21572D01*
X17905Y-21628D01*
X17961Y-21741D01*
X17961Y-22359D01*
X17961Y-21741D02*
X18018Y-21628D01*
X18130Y-21572D01*
X18299Y-21572D01*
X18411Y-21628D01*
X18467Y-21741D01*
X18467Y-22359D01*
X20773Y-21122D02*
X19761Y-22641D01*
X22292Y-21178D02*
X22405Y-21178D01*
X22517Y-21235D01*
X22573Y-21291D01*
X22629Y-21403D01*
X22686Y-21628D01*
X22686Y-21909D01*
X22629Y-22134D01*
X22573Y-22247D01*
X22517Y-22303D01*
X22405Y-22359D01*
X22292Y-22359D01*
X22180Y-22303D01*
X22123Y-22247D01*
X22067Y-22134D01*
X22011Y-21909D01*
X22011Y-21628D01*
X22067Y-21403D01*
X22123Y-21291D01*
X22180Y-21235D01*
X22292Y-21178D01*
X23192Y-22247D02*
X23248Y-22303D01*
X23192Y-22359D01*
X23136Y-22303D01*
X23192Y-22247D01*
X23192Y-22359D01*
X23979Y-21178D02*
X24092Y-21178D01*
X24204Y-21235D01*
X24261Y-21291D01*
X24317Y-21403D01*
X24373Y-21628D01*
X24373Y-21909D01*
X24317Y-22134D01*
X24261Y-22247D01*
X24204Y-22303D01*
X24092Y-22359D01*
X23979Y-22359D01*
X23867Y-22303D01*
X23811Y-22247D01*
X23754Y-22134D01*
X23698Y-21909D01*
X23698Y-21628D01*
X23754Y-21403D01*
X23811Y-21291D01*
X23867Y-21235D01*
X23979Y-21178D01*
X24767Y-21178D02*
X25498Y-21178D01*
X25104Y-21628D01*
X25273Y-21628D01*
X25385Y-21684D01*
X25442Y-21741D01*
X25498Y-21853D01*
X25498Y-22134D01*
X25442Y-22247D01*
X25385Y-22303D01*
X25273Y-22359D01*
X24935Y-22359D01*
X24823Y-22303D01*
X24767Y-22247D01*
X25948Y-21291D02*
X26004Y-21235D01*
X26117Y-21178D01*
X26398Y-21178D01*
X26510Y-21235D01*
X26566Y-21291D01*
X26623Y-21403D01*
X26623Y-21516D01*
X26566Y-21684D01*
X25892Y-22359D01*
X26623Y-22359D01*
X27073Y-21178D02*
X27073Y-21403D01*
X27523Y-21178D02*
X27523Y-21403D01*
X29266Y-22809D02*
X29210Y-22753D01*
X29097Y-22584D01*
X29041Y-22472D01*
X28985Y-22303D01*
X28929Y-22022D01*
X28929Y-21797D01*
X28985Y-21516D01*
X29041Y-21347D01*
X29097Y-21235D01*
X29210Y-21066D01*
X29266Y-21010D01*
X29660Y-21291D02*
X29716Y-21235D01*
X29829Y-21178D01*
X30110Y-21178D01*
X30222Y-21235D01*
X30279Y-21291D01*
X30335Y-21403D01*
X30335Y-21516D01*
X30279Y-21684D01*
X29604Y-22359D01*
X30335Y-22359D01*
X31741Y-22359D02*
X31741Y-21178D01*
X32247Y-22359D02*
X32247Y-21741D01*
X32191Y-21628D01*
X32078Y-21572D01*
X31910Y-21572D01*
X31797Y-21628D01*
X31741Y-21684D01*
X32978Y-22359D02*
X32866Y-22303D01*
X32809Y-22247D01*
X32753Y-22134D01*
X32753Y-21797D01*
X32809Y-21684D01*
X32866Y-21628D01*
X32978Y-21572D01*
X33147Y-21572D01*
X33259Y-21628D01*
X33316Y-21684D01*
X33372Y-21797D01*
X33372Y-22134D01*
X33316Y-22247D01*
X33259Y-22303D01*
X33147Y-22359D01*
X32978Y-22359D01*
X34047Y-22359D02*
X33934Y-22303D01*
X33878Y-22191D01*
X33878Y-21178D01*
X34947Y-22303D02*
X34834Y-22359D01*
X34609Y-22359D01*
X34497Y-22303D01*
X34441Y-22191D01*
X34441Y-21741D01*
X34497Y-21628D01*
X34609Y-21572D01*
X34834Y-21572D01*
X34947Y-21628D01*
X35003Y-21741D01*
X35003Y-21853D01*
X34441Y-21966D01*
X35453Y-22303D02*
X35565Y-22359D01*
X35790Y-22359D01*
X35903Y-22303D01*
X35959Y-22191D01*
X35959Y-22134D01*
X35903Y-22022D01*
X35790Y-21966D01*
X35622Y-21966D01*
X35509Y-21909D01*
X35453Y-21797D01*
X35453Y-21741D01*
X35509Y-21628D01*
X35622Y-21572D01*
X35790Y-21572D01*
X35903Y-21628D01*
X36353Y-22809D02*
X36409Y-22753D01*
X36521Y-22584D01*
X36578Y-22472D01*
X36634Y-22303D01*
X36690Y-22022D01*
X36690Y-21797D01*
X36634Y-21516D01*
X36578Y-21347D01*
X36521Y-21235D01*
X36409Y-21066D01*
X36353Y-21010D01*
X10675Y-23184D02*
X10675Y-23584D01*
X10475Y-23384D02*
X10875Y-23384D01*
X12562Y-23918D02*
X11887Y-23918D01*
X12225Y-23918D02*
X12225Y-22737D01*
X12112Y-22906D01*
X12000Y-23019D01*
X11887Y-23075D01*
X13068Y-23806D02*
X13124Y-23862D01*
X13068Y-23918D01*
X13012Y-23862D01*
X13068Y-23806D01*
X13068Y-23918D01*
X13856Y-22737D02*
X13968Y-22737D01*
X14081Y-22794D01*
X14137Y-22850D01*
X14193Y-22962D01*
X14249Y-23187D01*
X14249Y-23469D01*
X14193Y-23693D01*
X14137Y-23806D01*
X14081Y-23862D01*
X13968Y-23918D01*
X13856Y-23918D01*
X13743Y-23862D01*
X13687Y-23806D01*
X13631Y-23693D01*
X13574Y-23469D01*
X13574Y-23187D01*
X13631Y-22962D01*
X13687Y-22850D01*
X13743Y-22794D01*
X13856Y-22737D01*
X14699Y-22850D02*
X14755Y-22794D01*
X14868Y-22737D01*
X15149Y-22737D01*
X15262Y-22794D01*
X15318Y-22850D01*
X15374Y-22962D01*
X15374Y-23075D01*
X15318Y-23244D01*
X14643Y-23918D01*
X15374Y-23918D01*
X15880Y-23918D02*
X15880Y-23131D01*
X15880Y-23244D02*
X15937Y-23187D01*
X16049Y-23131D01*
X16218Y-23131D01*
X16330Y-23187D01*
X16387Y-23300D01*
X16387Y-23918D01*
X16387Y-23300D02*
X16443Y-23187D01*
X16555Y-23131D01*
X16724Y-23131D01*
X16836Y-23187D01*
X16893Y-23300D01*
X16893Y-23918D01*
X17455Y-23918D02*
X17455Y-23131D01*
X17455Y-23244D02*
X17511Y-23187D01*
X17624Y-23131D01*
X17793Y-23131D01*
X17905Y-23187D01*
X17961Y-23300D01*
X17961Y-23918D01*
X17961Y-23300D02*
X18018Y-23187D01*
X18130Y-23131D01*
X18299Y-23131D01*
X18411Y-23187D01*
X18467Y-23300D01*
X18467Y-23918D01*
X20773Y-22681D02*
X19761Y-24200D01*
X22292Y-22737D02*
X22405Y-22737D01*
X22517Y-22794D01*
X22573Y-22850D01*
X22629Y-22962D01*
X22686Y-23187D01*
X22686Y-23469D01*
X22629Y-23693D01*
X22573Y-23806D01*
X22517Y-23862D01*
X22405Y-23918D01*
X22292Y-23918D01*
X22180Y-23862D01*
X22123Y-23806D01*
X22067Y-23693D01*
X22011Y-23469D01*
X22011Y-23187D01*
X22067Y-22962D01*
X22123Y-22850D01*
X22180Y-22794D01*
X22292Y-22737D01*
X23192Y-23806D02*
X23248Y-23862D01*
X23192Y-23918D01*
X23136Y-23862D01*
X23192Y-23806D01*
X23192Y-23918D01*
X23979Y-22737D02*
X24092Y-22737D01*
X24204Y-22794D01*
X24261Y-22850D01*
X24317Y-22962D01*
X24373Y-23187D01*
X24373Y-23469D01*
X24317Y-23693D01*
X24261Y-23806D01*
X24204Y-23862D01*
X24092Y-23918D01*
X23979Y-23918D01*
X23867Y-23862D01*
X23811Y-23806D01*
X23754Y-23693D01*
X23698Y-23469D01*
X23698Y-23187D01*
X23754Y-22962D01*
X23811Y-22850D01*
X23867Y-22794D01*
X23979Y-22737D01*
X25385Y-23131D02*
X25385Y-23918D01*
X25104Y-22681D02*
X24823Y-23525D01*
X25554Y-23525D01*
X26229Y-22737D02*
X26342Y-22737D01*
X26454Y-22794D01*
X26510Y-22850D01*
X26566Y-22962D01*
X26623Y-23187D01*
X26623Y-23469D01*
X26566Y-23693D01*
X26510Y-23806D01*
X26454Y-23862D01*
X26342Y-23918D01*
X26229Y-23918D01*
X26117Y-23862D01*
X26060Y-23806D01*
X26004Y-23693D01*
X25948Y-23469D01*
X25948Y-23187D01*
X26004Y-22962D01*
X26060Y-22850D01*
X26117Y-22794D01*
X26229Y-22737D01*
X27073Y-22737D02*
X27073Y-22962D01*
X27523Y-22737D02*
X27523Y-22962D01*
X29266Y-24368D02*
X29210Y-24312D01*
X29097Y-24143D01*
X29041Y-24031D01*
X28985Y-23862D01*
X28929Y-23581D01*
X28929Y-23356D01*
X28985Y-23075D01*
X29041Y-22906D01*
X29097Y-22794D01*
X29210Y-22625D01*
X29266Y-22569D01*
X30335Y-23918D02*
X29660Y-23918D01*
X29997Y-23918D02*
X29997Y-22737D01*
X29885Y-22906D01*
X29772Y-23019D01*
X29660Y-23075D01*
X31347Y-22737D02*
X31122Y-22737D01*
X31010Y-22794D01*
X30953Y-22850D01*
X30841Y-23019D01*
X30785Y-23244D01*
X30785Y-23693D01*
X30841Y-23806D01*
X30897Y-23862D01*
X31010Y-23918D01*
X31235Y-23918D01*
X31347Y-23862D01*
X31403Y-23806D01*
X31460Y-23693D01*
X31460Y-23412D01*
X31403Y-23300D01*
X31347Y-23244D01*
X31235Y-23187D01*
X31010Y-23187D01*
X30897Y-23244D01*
X30841Y-23300D01*
X30785Y-23412D01*
X32866Y-23918D02*
X32866Y-22737D01*
X33372Y-23918D02*
X33372Y-23300D01*
X33316Y-23187D01*
X33203Y-23131D01*
X33034Y-23131D01*
X32922Y-23187D01*
X32866Y-23244D01*
X34103Y-23918D02*
X33991Y-23862D01*
X33934Y-23806D01*
X33878Y-23693D01*
X33878Y-23356D01*
X33934Y-23244D01*
X33991Y-23187D01*
X34103Y-23131D01*
X34272Y-23131D01*
X34384Y-23187D01*
X34441Y-23244D01*
X34497Y-23356D01*
X34497Y-23693D01*
X34441Y-23806D01*
X34384Y-23862D01*
X34272Y-23918D01*
X34103Y-23918D01*
X35172Y-23918D02*
X35059Y-23862D01*
X35003Y-23750D01*
X35003Y-22737D01*
X36072Y-23862D02*
X35959Y-23918D01*
X35734Y-23918D01*
X35622Y-23862D01*
X35565Y-23750D01*
X35565Y-23300D01*
X35622Y-23187D01*
X35734Y-23131D01*
X35959Y-23131D01*
X36072Y-23187D01*
X36128Y-23300D01*
X36128Y-23412D01*
X35565Y-23525D01*
X36578Y-23862D02*
X36690Y-23918D01*
X36915Y-23918D01*
X37028Y-23862D01*
X37084Y-23750D01*
X37084Y-23693D01*
X37028Y-23581D01*
X36915Y-23525D01*
X36746Y-23525D01*
X36634Y-23469D01*
X36578Y-23356D01*
X36578Y-23300D01*
X36634Y-23187D01*
X36746Y-23131D01*
X36915Y-23131D01*
X37028Y-23187D01*
X37478Y-24368D02*
X37534Y-24312D01*
X37646Y-24143D01*
X37703Y-24031D01*
X37759Y-23862D01*
X37815Y-23581D01*
X37815Y-23356D01*
X37759Y-23075D01*
X37703Y-22906D01*
X37646Y-22794D01*
X37534Y-22625D01*
X37478Y-22569D01*
M02*
