<?xml version="1.0" standalone="no"?>
 <!DOCTYPE svg PUBLIC "-//W3C//DTD SVG 1.1//EN" 
 "http://www.w3.org/Graphics/SVG/1.1/DTD/svg11.dtd"> 
<svg xmlns="http://www.w3.org/2000/svg" version="1.1" 
    width="4.3815cm" height="2.56286cm" viewBox="0 0 17250 10090 ">
<title>SVG Picture created as pulse_v2-F_SilkS.svg date 2014/07/04 18:21:23 </title>
  <desc>Picture generated by PCBNEW </desc>
<g style="fill:#000000; fill-opacity:1;stroke:#000000; stroke-opacity:1;
stroke-linecap:round; stroke-linejoin:round; "
 transform="translate(0 0) scale(1 1)">
</g>
<g style="fill:#C2C200; fill-opacity:0.0; 
stroke:#C2C200; stroke-width:100; stroke-opacity:1; 
stroke-linecap:round; stroke-linejoin:round;">
<path d="M10384.6 1744.29 A393.701 393.701 0.0 0 0 9990.95 1350.59 " />
<path d="M10384.6 2039.57 A393.701 393.701 0.0 0 0 10778.3 2433.27 " />
<path d="M10778.3 6173.43 A393.701 393.701 0.0 0 0 10384.6 6567.13 " />
<path d="M9990.95 8437.2 A393.701 393.701 0.0 0 0 10384.6 8043.5 " />
</g>
<g style="fill:#004848; fill-opacity:0.0; 
stroke:#004848; stroke-width:31.4961; stroke-opacity:1; 
stroke-linecap:round; stroke-linejoin:round;">
<path d="M4066 7167
L4041 7160
L4003 7160
L3964 7167
L3939 7180
L3926 7193
L3913 7220
L3913 7239
L3926 7265
L3939 7279
L3964 7292
L4003 7298
L4028 7298
L4066 7292
L4079 7285
L4079 7239
L4028 7239
" />
<path d="M4194 7298
L4194 7160
L4347 7298
L4347 7160
" />
<path d="M4474 7298
L4474 7160
L4538 7160
L4576 7167
L4602 7180
L4615 7193
L4627 7220
L4627 7239
L4615 7265
L4602 7279
L4576 7292
L4538 7298
L4474 7298
" />
<path d="M4946 7298
L4946 7160
L5048 7160
L5073 7167
L5086 7174
L5099 7187
L5099 7206
L5086 7220
L5073 7226
L5048 7233
L4946 7233
" />
<path d="M5265 7160
L5316 7160
L5341 7167
L5367 7180
L5379 7206
L5379 7252
L5367 7279
L5341 7292
L5316 7298
L5265 7298
L5239 7292
L5214 7279
L5201 7252
L5201 7206
L5214 7180
L5239 7167
L5265 7160
" />
<path d="M5456 7160
L5609 7160
" />
<path d="M5532 7298
L5532 7160
" />
<path d="M5902 7246
L6106 7246
" />
<path d="M6004 7298
L6004 7193
" />
<path d="M6361 7160
L6234 7160
L6221 7226
L6234 7220
L6259 7213
L6323 7213
L6348 7220
L6361 7226
L6374 7239
L6374 7272
L6361 7285
L6348 7292
L6323 7298
L6259 7298
L6234 7292
L6221 7285
" />
<path d="M6450 7160
L6540 7298
L6629 7160
" />
<path d="M6922 7298
L6922 7160
L7024 7160
L7050 7167
L7062 7174
L7075 7187
L7075 7206
L7062 7220
L7050 7226
L7024 7233
L6922 7233
" />
<path d="M7164 7160
L7228 7298
L7279 7200
L7330 7298
L7394 7160
" />
<path d="M7496 7298
L7496 7160
L7585 7259
L7674 7160
L7674 7298
" />
<path d="M8146 7167
L8120 7160
L8082 7160
L8044 7167
L8018 7180
L8006 7193
L7993 7220
L7993 7239
L8006 7265
L8018 7279
L8044 7292
L8082 7298
L8108 7298
L8146 7292
L8159 7285
L8159 7239
L8108 7239
" />
<path d="M8273 7298
L8273 7160
L8426 7298
L8426 7160
" />
<path d="M8554 7298
L8554 7160
L8618 7160
L8656 7167
L8681 7180
L8694 7193
L8707 7220
L8707 7239
L8694 7265
L8681 7279
L8656 7292
L8618 7298
L8554 7298
" />
<path d="M9166 7298
L9013 7298
" />
<path d="M9089 7298
L9089 7160
L9064 7180
L9038 7193
L9013 7200
" />
<path d="M9268 7174
L9280 7167
L9306 7160
L9370 7160
L9395 7167
L9408 7174
L9421 7187
L9421 7200
L9408 7220
L9255 7298
L9421 7298
" />
<path d="M9497 7160
L9586 7298
L9676 7160
" />
</g>
<g style="fill:#C2C200; fill-opacity:0.0; 
stroke:#C2C200; stroke-width:100; stroke-opacity:1; 
stroke-linecap:round; stroke-linejoin:round;">
<path d="M9990 8437
L2904 8437
" />
<path d="M14321 2826
L14321 5779
" />
<path d="M13927 2433
L10778 2433
" />
<path d="M13927 6173
L10778 6173
" />
<path d="M14321.7 2826.97 A393.701 393.701 0.0 0 0 13928 2433.27 " />
<path d="M13928 6173.43 A393.701 393.701 0.0 0 0 14321.7 5779.72 " />
<path d="M2904 1350
L9990 1350
" />
<path d="M2510 8043
L2510 1744
" />
<path d="M2904.33 1350.59 A393.701 393.701 0.0 0 0 2510.63 1744.29 " />
<path d="M2510.63 8043.5 A393.701 393.701 0.0 0 0 2904.33 8437.2 " />
</g>
<g style="fill:#004848; fill-opacity:0.0; 
stroke:#004848; stroke-width:39.3701; stroke-opacity:1; 
stroke-linecap:round; stroke-linejoin:round;">
<path d="M12369 6026
L12256 6026
" />
<path d="M12312 6026
L12312 5829
L12294 5857
L12275 5876
L12256 5885
" />
<path d="M12444 5848
L12453 5838
L12472 5829
L12519 5829
L12537 5838
L12547 5848
L12556 5866
L12556 5885
L12547 5913
L12434 6026
L12556 6026
" />
<path d="M12612 5829
L12678 6026
L12744 5829
" />
</g>
<g style="fill:#C2C200; fill-opacity:0.0; 
stroke:#C2C200; stroke-width:100; stroke-opacity:1; 
stroke-linecap:round; stroke-linejoin:round;">
<path d="M10384 2039
L10384 1744
" />
<path d="M10384 8043
L10384 6567
" />
</g>
<g style="fill:#004848; fill-opacity:0.0; 
stroke:#004848; stroke-width:39.3701; stroke-opacity:1; 
stroke-linecap:round; stroke-linejoin:round;">
<path d="M12340 2610
L12322 2601
L12294 2601
L12265 2610
L12247 2629
L12237 2647
L12228 2685
L12228 2713
L12237 2751
L12247 2769
L12265 2788
L12294 2797
L12312 2797
L12340 2788
L12350 2779
L12350 2713
L12312 2713
" />
<path d="M12434 2797
L12434 2601
L12547 2797
L12547 2601
" />
<path d="M12640 2797
L12640 2601
L12687 2601
L12715 2610
L12734 2629
L12744 2647
L12753 2685
L12753 2713
L12744 2751
L12734 2769
L12715 2788
L12687 2797
L12640 2797
" />
<path d="M4229 3515
L3954 3515
L4229 3358
L3954 3358
" />
<path d="M4229 3227
L3954 3227
L3954 3161
L3967 3122
L3993 3095
L4019 3082
L4072 3069
L4111 3069
L4164 3082
L4190 3095
L4216 3122
L4229 3161
L4229 3227
" />
<path d="M4195 5799
L4177 5790
L4150 5790
L4123 5799
L4105 5818
L4096 5836
L4087 5874
L4087 5902
L4096 5940
L4105 5958
L4123 5977
L4150 5986
L4168 5986
L4195 5977
L4204 5968
L4204 5902
L4168 5902
" />
<path d="M4285 5986
L4285 5790
L4393 5986
L4393 5790
" />
<path d="M4483 5986
L4483 5790
L4528 5790
L4555 5799
L4573 5818
L4582 5836
L4591 5874
L4591 5902
L4582 5940
L4573 5958
L4555 5977
L4528 5986
L4483 5986
" />
<path d="M5211 5986
L5148 5893
" />
<path d="M5103 5986
L5103 5790
L5175 5790
L5193 5799
L5202 5808
L5211 5827
L5211 5855
L5202 5874
L5193 5883
L5175 5893
L5103 5893
" />
<path d="M5283 5977
L5310 5986
L5355 5986
L5373 5977
L5382 5968
L5391 5949
L5391 5930
L5382 5911
L5373 5902
L5355 5893
L5319 5883
L5301 5874
L5292 5865
L5283 5846
L5283 5827
L5292 5808
L5301 5799
L5319 5790
L5364 5790
L5391 5799
" />
<path d="M5445 5790
L5553 5790
" />
<path d="M5499 5986
L5499 5790
" />
<path d="M6048 5986
L6048 5790
L6111 5930
L6174 5790
L6174 5986
" />
<path d="M6300 5790
L6336 5790
L6354 5799
L6372 5818
L6381 5855
L6381 5921
L6372 5958
L6354 5977
L6336 5986
L6300 5986
L6282 5977
L6264 5958
L6255 5921
L6255 5855
L6264 5818
L6282 5799
L6300 5790
" />
<path d="M6453 5977
L6480 5986
L6525 5986
L6543 5977
L6552 5968
L6561 5949
L6561 5930
L6552 5911
L6543 5902
L6525 5893
L6489 5883
L6471 5874
L6462 5865
L6453 5846
L6453 5827
L6462 5808
L6471 5799
L6489 5790
L6534 5790
L6561 5799
" />
<path d="M7065 5977
L7092 5986
L7137 5986
L7155 5977
L7164 5968
L7173 5949
L7173 5930
L7164 5911
L7155 5902
L7137 5893
L7101 5883
L7083 5874
L7074 5865
L7065 5846
L7065 5827
L7074 5808
L7083 5799
L7101 5790
L7146 5790
L7173 5799
" />
<path d="M7362 5968
L7353 5977
L7326 5986
L7308 5986
L7281 5977
L7263 5958
L7254 5940
L7245 5902
L7245 5874
L7254 5836
L7263 5818
L7281 5799
L7308 5790
L7326 5790
L7353 5799
L7362 5808
" />
<path d="M7443 5986
L7443 5790
" />
<path d="M7551 5986
L7470 5874
" />
<path d="M7551 5790
L7443 5902
" />
<path d="M8064 5911
L8208 5911
" />
<path d="M8136 5986
L8136 5836
" />
<path d="M8388 5790
L8298 5790
L8289 5883
L8298 5874
L8316 5865
L8361 5865
L8379 5874
L8388 5883
L8397 5902
L8397 5949
L8388 5968
L8379 5977
L8361 5986
L8316 5986
L8298 5977
L8289 5968
" />
<path d="M8451 5790
L8514 5986
L8577 5790
" />
<path d="M9072 5986
L9072 5790
L9135 5930
L9198 5790
L9198 5986
" />
<path d="M9288 5986
L9288 5790
" />
<path d="M9369 5977
L9396 5986
L9441 5986
L9459 5977
L9468 5968
L9477 5949
L9477 5930
L9468 5911
L9459 5902
L9441 5893
L9405 5883
L9387 5874
L9378 5865
L9369 5846
L9369 5827
L9378 5808
L9387 5799
L9405 5790
L9450 5790
L9477 5799
" />
</g>
<g style="fill:#004848; fill-opacity:0.0; 
stroke:#004848; stroke-width:50; stroke-opacity:1; 
stroke-linecap:round; stroke-linejoin:round;">
<path d="M4229 4355
L3954 4355
" />
<path d="M4229 4198
L4072 4316
" />
<path d="M3954 4198
L4111 4355
" />
<path d="M4151 5372
L4151 5241
" />
<path d="M4229 5399
L3954 5307
L4229 5215
" />
</g>
<g style="fill:#004848; fill-opacity:0.0; 
stroke:#004848; stroke-width:78.7402; stroke-opacity:1; 
stroke-linecap:round; stroke-linejoin:round;">
<path d="M10927 4157
L10927 4747
" />
<path d="M10927 4185
L10983 4157
L11096 4157
L11152 4185
L11180 4213
L11208 4269
L11208 4438
L11180 4494
L11152 4522
L11096 4550
L10983 4550
L10927 4522
" />
<path d="M11461 4494
L11489 4522
L11461 4550
L11433 4522
L11461 4494
L11461 4550
" />
<path d="M11996 4157
L11996 4550
" />
<path d="M11742 4157
L11742 4466
L11771 4522
L11827 4550
L11911 4550
L11967 4522
L11996 4494
" />
<path d="M12277 4494
L12305 4522
L12277 4550
L12249 4522
L12277 4494
L12277 4550
" />
<path d="M12642 4550
L12586 4522
L12558 4466
L12558 3960
" />
<path d="M12867 4494
L12895 4522
L12867 4550
L12839 4522
L12867 4494
L12867 4550
" />
<path d="M13120 4522
L13177 4550
L13289 4550
L13345 4522
L13373 4466
L13373 4438
L13345 4382
L13289 4353
L13205 4353
L13148 4325
L13120 4269
L13120 4241
L13148 4185
L13205 4157
L13289 4157
L13345 4185
" />
<path d="M13627 4494
L13655 4522
L13627 4550
L13598 4522
L13627 4494
L13627 4550
" />
<path d="M14133 4522
L14076 4550
L13964 4550
L13908 4522
L13880 4466
L13880 4241
L13908 4185
L13964 4157
L14076 4157
L14133 4185
L14161 4241
L14161 4297
L13880 4353
" />
</g>
<g style="fill:#004848; fill-opacity:0.0; 
stroke:#004848; stroke-width:39.3701; stroke-opacity:1; 
stroke-linecap:round; stroke-linejoin:round;">
<path d="M7458 1676
L7448 1686
L7420 1695
L7401 1695
L7373 1686
L7355 1667
L7345 1648
L7336 1611
L7336 1583
L7345 1545
L7355 1526
L7373 1508
L7401 1498
L7420 1498
L7448 1508
L7458 1517
" />
<path d="M7533 1517
L7542 1508
L7561 1498
L7608 1498
L7626 1508
L7636 1517
L7645 1536
L7645 1554
L7636 1583
L7523 1695
L7645 1695
" />
<path d="M8757 4275
L8747 4284
L8719 4293
L8701 4293
L8672 4284
L8654 4265
L8644 4247
L8635 4209
L8635 4181
L8644 4143
L8654 4125
L8672 4106
L8701 4097
L8719 4097
L8747 4106
L8757 4115
" />
<path d="M8822 4097
L8944 4097
L8879 4172
L8907 4172
L8926 4181
L8935 4190
L8944 4209
L8944 4256
L8935 4275
L8926 4284
L8907 4293
L8851 4293
L8832 4284
L8822 4275
" />
<path d="M9387 1676
L9377 1686
L9349 1695
L9331 1695
L9302 1686
L9284 1667
L9274 1648
L9265 1611
L9265 1583
L9274 1545
L9284 1526
L9302 1508
L9331 1498
L9349 1498
L9377 1508
L9387 1517
" />
<path d="M9555 1564
L9555 1695
" />
<path d="M9509 1489
L9462 1629
L9584 1629
" />
<path d="M2945 6015
L3039 6015
" />
<path d="M2926 6071
L2992 5875
L3058 6071
" />
<path d="M3123 6071
L3123 5875
L3170 5875
L3198 5884
L3217 5903
L3226 5921
L3236 5959
L3236 5987
L3226 6025
L3217 6043
L3198 6062
L3170 6071
L3123 6071
" />
<path d="M3433 6053
L3423 6062
L3395 6071
L3376 6071
L3348 6062
L3329 6043
L3320 6025
L3311 5987
L3311 5959
L3320 5921
L3329 5903
L3348 5884
L3376 5875
L3395 5875
L3423 5884
L3433 5893
" />
<path d="M3498 5875
L3620 5875
L3554 5950
L3583 5950
L3601 5959
L3611 5968
L3620 5987
L3620 6034
L3611 6053
L3601 6062
L3583 6071
L3526 6071
L3508 6062
L3498 6053
" />
<path d="M4834 1714
L4815 1704
L4796 1686
L4768 1658
L4750 1648
L4731 1648
" />
<path d="M4740 1695
L4721 1686
L4703 1667
L4693 1629
L4693 1564
L4703 1526
L4721 1508
L4740 1498
L4778 1498
L4796 1508
L4815 1526
L4825 1564
L4825 1629
L4815 1667
L4796 1686
L4778 1695
L4740 1695
" />
<path d="M5012 1695
L4900 1695
" />
<path d="M4956 1695
L4956 1498
L4937 1526
L4918 1545
L4900 1554
" />
<path d="M6828 1695
L6762 1601
" />
<path d="M6715 1695
L6715 1498
L6790 1498
L6809 1508
L6818 1517
L6828 1536
L6828 1564
L6818 1583
L6809 1592
L6790 1601
L6715 1601
" />
<path d="M6893 1498
L7015 1498
L6950 1573
L6978 1573
L6996 1583
L7006 1592
L7015 1611
L7015 1658
L7006 1676
L6996 1686
L6978 1695
L6921 1695
L6903 1686
L6893 1676
" />
<path d="M4939 3388
L4939 3547
L4948 3566
L4958 3575
L4976 3585
L5014 3585
L5033 3575
L5042 3566
L5051 3547
L5051 3388
" />
<path d="M5248 3585
L5136 3585
" />
<path d="M5192 3585
L5192 3388
L5173 3416
L5154 3435
L5136 3444
" />
<path d="M8679 3034
L8679 3193
L8688 3212
L8698 3221
L8717 3230
L8754 3230
L8773 3221
L8782 3212
L8792 3193
L8792 3034
" />
<path d="M8876 3052
L8885 3043
L8904 3034
L8951 3034
L8970 3043
L8979 3052
L8988 3071
L8988 3090
L8979 3118
L8867 3230
L8988 3230
" />
<path d="M3152 2699
L3152 2502
L3227 2502
L3246 2512
L3255 2521
L3265 2540
L3265 2568
L3255 2586
L3246 2596
L3227 2605
L3152 2605
" />
<path d="M3340 2521
L3349 2512
L3368 2502
L3415 2502
L3433 2512
L3443 2521
L3452 2540
L3452 2558
L3443 2586
L3330 2699
L3452 2699
" />
<path d="M4430 4882
L4430 4976
L4233 4976
" />
<path d="M4327 4817
L4327 4751
" />
<path d="M4430 4723
L4430 4817
L4233 4817
L4233 4723
" />
<path d="M4430 4638
L4233 4638
L4233 4592
L4242 4563
L4261 4545
L4280 4535
L4317 4526
L4346 4526
L4383 4535
L4402 4545
L4421 4563
L4430 4592
L4430 4638
" />
<path d="M9716 5993
L9716 5796
L9791 5796
L9810 5805
L9819 5815
L9829 5833
L9829 5861
L9819 5880
L9810 5890
L9791 5899
L9716 5899
" />
<path d="M9894 5796
L10016 5796
L9950 5871
L9978 5871
L9997 5880
L10007 5890
L10016 5908
L10016 5955
L10007 5974
L9997 5983
L9978 5993
L9922 5993
L9903 5983
L9894 5974
" />
<path d="M7936 3703
L7936 3506
L7983 3506
L8011 3515
L8029 3534
L8039 3553
L8048 3590
L8048 3619
L8039 3656
L8029 3675
L8011 3694
L7983 3703
L7936 3703
" />
<path d="M8114 3506
L8236 3506
L8170 3581
L8198 3581
L8217 3590
L8226 3600
L8236 3619
L8236 3665
L8226 3684
L8217 3694
L8198 3703
L8142 3703
L8123 3694
L8114 3684
" />
<path d="M3448 7443
L3448 7246
L3523 7246
L3541 7256
L3551 7265
L3560 7284
L3560 7312
L3551 7331
L3541 7340
L3523 7349
L3448 7349
" />
<path d="M3729 7312
L3729 7443
" />
<path d="M3682 7237
L3635 7377
L3757 7377
" />
<path d="M3682 8076
L3485 8076
L3485 8001
L3494 7982
L3504 7973
L3523 7963
L3551 7963
L3569 7973
L3579 7982
L3588 8001
L3588 8076
" />
<path d="M3485 7841
L3485 7804
L3494 7785
L3513 7766
L3551 7757
L3616 7757
L3654 7766
L3672 7785
L3682 7804
L3682 7841
L3672 7860
L3654 7879
L3616 7888
L3551 7888
L3513 7879
L3494 7860
L3485 7841
" />
<path d="M3485 7701
L3485 7588
" />
<path d="M3682 7645
L3485 7645
" />
<path d="M9845 7443
L9845 7246
L9920 7246
L9939 7256
L9948 7265
L9958 7284
L9958 7312
L9948 7331
L9939 7340
L9920 7349
L9845 7349
" />
<path d="M10136 7246
L10042 7246
L10033 7340
L10042 7331
L10061 7321
L10108 7321
L10126 7331
L10136 7340
L10145 7359
L10145 7406
L10136 7424
L10126 7434
L10108 7443
L10061 7443
L10042 7434
L10033 7424
" />
<path d="M10079 8123
L9883 8123
L9883 8048
L9892 8029
L9901 8020
L9920 8010
L9948 8010
L9967 8020
L9976 8029
L9986 8048
L9986 8123
" />
<path d="M9883 7945
L10079 7898
L9939 7860
L10079 7823
L9883 7776
" />
<path d="M10079 7701
L9883 7701
L10023 7635
L9883 7570
L10079 7570
" />
</g>
<g style="fill:#004848; fill-opacity:0.0; 
stroke:#004848; stroke-width:50; stroke-opacity:1; 
stroke-linecap:round; stroke-linejoin:round;">
<path d="M8225 2669
L8225 1894
" />
<path d="M8225 1894
L7425 1894
" />
<path d="M7425 1894
L7425 3444
" />
<path d="M7425 3444
L8225 3444
" />
<path d="M8225 3444
L8225 2669
" />
<path d="M9439 5175
L10214 5175
" />
<path d="M10214 5175
L10214 4375
" />
<path d="M10214 4375
L8664 4375
" />
<path d="M8664 4375
L8664 5175
" />
<path d="M8664 5175
L9439 5175
" />
<path d="M9439 2013
L8664 2013
" />
<path d="M8664 2013
L8664 2813
" />
<path d="M8664 2813
L10214 2813
" />
<path d="M10214 2813
L10214 2013
" />
<path d="M10214 2013
L9439 2013
" />
</g>
<g style="fill:#004848; fill-opacity:0.0; 
stroke:#004848; stroke-width:60; stroke-opacity:1; 
stroke-linecap:round; stroke-linejoin:round;">
<path d="M5114 2851
L5114 3226
" />
<path d="M5114 3226
L6214 3226
" />
<path d="M6214 3226
L6214 1901
" />
<path d="M6214 1901
L6214 1876
" />
<path d="M6214 1876
L5114 1876
" />
<path d="M5114 1876
L5114 2251
" />
<path d="M5114 2251
L4514 2251
" />
<path d="M4514 2251
L4514 2551
" />
<path d="M4514 2551
L4514 2851
" />
<path d="M4514 2851
L5114 2851
" />
<path d="M7305 2519
L7305 1894
" />
<path d="M6455 1894
L6455 2519
" />
<path d="M6455 2819
L6455 3419
" />
<path d="M6455 3419
L6455 3444
" />
<path d="M7305 3444
L7305 2819
" />
<path d="M5335 3650
L5410 3575
" />
<path d="M6285 3675
L5985 3675
" />
<path d="M6285 3625
L5985 3625
" />
<path d="M6285 3575
L6285 3725
" />
<path d="M6285 3725
L5985 3725
" />
<path d="M5985 3725
L5985 3575
" />
<path d="M5335 5600
L5335 5675
" />
<path d="M5335 5675
L6935 5675
" />
<path d="M6935 5675
L6935 5600
" />
<path d="M6935 3650
L6935 3575
" />
<path d="M6935 3575
L5335 3575
" />
<path d="M5335 3575
L5335 3650
" />
<path d="M9071 3934
L9071 4309
" />
<path d="M9071 4309
L10171 4309
" />
<path d="M10171 4309
L10171 2984
" />
<path d="M10171 2984
L10171 2959
" />
<path d="M10171 2959
L9071 2959
" />
<path d="M9071 2959
L9071 3334
" />
<path d="M9071 3334
L8471 3334
" />
<path d="M8471 3334
L8471 3634
" />
<path d="M8471 3634
L8471 3934
" />
<path d="M8471 3934
L9071 3934
" />
</g>
<g style="fill:#004848; fill-opacity:0.0; 
stroke:#004848; stroke-width:50; stroke-opacity:1; 
stroke-linecap:round; stroke-linejoin:round;">
<path d="M3048 4803
L3548 4803
" />
<path d="M2798 4803
L2798 5803
" />
<path d="M2798 5803
L3798 5803
" />
<path d="M3798 5803
L3798 4803
" />
<path d="M3798 4803
L3548 4803
" />
<path d="M3548 4803
L3798 4553
" />
<path d="M3798 4553
L3798 4053
" />
<path d="M3798 4053
L3548 3803
" />
<path d="M3548 3803
L3798 3553
" />
<path d="M3798 3553
L3798 3053
" />
<path d="M3798 3053
L3548 2803
" />
<path d="M3548 2803
L3048 2803
" />
<path d="M3048 2803
L2798 3053
" />
<path d="M2798 3053
L2798 3553
" />
<path d="M2798 3553
L3048 3803
" />
<path d="M3048 3803
L2798 4053
" />
<path d="M2798 4053
L2798 4553
" />
<path d="M2798 4553
L3048 4803
" />
<path d="M3048 4803
L2798 4803
" />
<path d="M8782 6356
L8782 6856
" />
<path d="M8782 6356
L8782 6106
" />
<path d="M8032 7106
L8532 7106
" />
<path d="M8532 7106
L8782 6856
" />
<path d="M8782 6856
L8782 7106
" />
<path d="M9782 6106
L8782 6106
" />
<path d="M9782 7106
L9782 6106
" />
<path d="M8782 7106
L9782 7106
" />
<path d="M3782 6856
L3782 6356
" />
<path d="M8032 7106
L7782 6856
" />
<path d="M7782 6856
L7532 7106
" />
<path d="M7532 7106
L7032 7106
" />
<path d="M7032 7106
L6782 6856
" />
<path d="M6782 6856
L6532 7106
" />
<path d="M6532 7106
L6032 7106
" />
<path d="M6032 7106
L5782 6856
" />
<path d="M5782 6856
L5532 7106
" />
<path d="M5532 7106
L5032 7106
" />
<path d="M5032 7106
L4782 6856
" />
<path d="M4782 6856
L4532 7106
" />
<path d="M4532 7106
L4032 7106
" />
<path d="M4032 7106
L3782 6856
" />
<path d="M3782 6356
L4032 6106
" />
<path d="M4032 6106
L4532 6106
" />
<path d="M4532 6106
L4782 6356
" />
<path d="M4782 6356
L5032 6106
" />
<path d="M5032 6106
L5532 6106
" />
<path d="M5532 6106
L5782 6356
" />
<path d="M5782 6356
L6032 6106
" />
<path d="M6032 6106
L6532 6106
" />
<path d="M6532 6106
L6782 6356
" />
<path d="M6782 6356
L7032 6106
" />
<path d="M7032 6106
L7532 6106
" />
<path d="M7532 6106
L7782 6356
" />
<path d="M7782 6356
L8032 6106
" />
<path d="M8032 6106
L8532 6106
" />
<path d="M8532 6106
L8782 6356
" />
<path d="M8219 4834
L8219 4756
" />
<path d="M8179 4834
L8179 4677
" />
<path d="M8140 4834
L8140 4637
" />
<path d="M8101 4834
L8101 4598
" />
<path d="M7904 4834
L7904 4756
" />
<path d="M7943 4834
L7943 4716
" />
<path d="M7983 4834
L7983 4637
" />
<path d="M8022 4834
L8022 4598
" />
<path d="M8061 4519
L8061 4834
" />
<path d="M8061 4519
L8298 4834
" />
<path d="M8298 4834
L7825 4834
" />
<path d="M7825 4834
L8061 4519
" />
<path d="M8061 4480
L7825 4480
" />
<path d="M7825 4480
L7825 4441
" />
<path d="M7825 4441
L8298 4441
" />
<path d="M8298 4441
L8298 4480
" />
<path d="M8298 4480
L8061 4480
" />
<path d="M7746 3811
L8376 3811
" />
<path d="M8376 3811
L8376 3771
" />
<path d="M8376 3771
L7746 3771
" />
<path d="M7746 3771
L7746 3811
" />
<path d="M7746 5031
L7746 5582
" />
<path d="M7746 5582
L8376 5582
" />
<path d="M8376 5582
L8376 5031
" />
<path d="M5766 8096
L5766 7596
" />
<path d="M5766 8346
L6766 8346
" />
<path d="M6766 8346
L6766 7346
" />
<path d="M6766 7346
L5766 7346
" />
<path d="M5766 7346
L5766 7596
" />
<path d="M5766 7596
L5516 7346
" />
<path d="M5516 7346
L5016 7346
" />
<path d="M5016 7346
L4766 7596
" />
<path d="M4766 7596
L4516 7346
" />
<path d="M4516 7346
L4016 7346
" />
<path d="M4016 7346
L3766 7596
" />
<path d="M3766 7596
L3766 8096
" />
<path d="M3766 8096
L4016 8346
" />
<path d="M4016 8346
L4516 8346
" />
<path d="M4516 8346
L4766 8096
" />
<path d="M4766 8096
L5016 8346
" />
<path d="M5016 8346
L5516 8346
" />
<path d="M5516 8346
L5766 8096
" />
<path d="M5766 8096
L5766 8346
" />
<path d="M7817 7596
L7817 8096
" />
<path d="M7817 7346
L6817 7346
" />
<path d="M6817 7346
L6817 8346
" />
<path d="M6817 8346
L7817 8346
" />
<path d="M7817 8346
L7817 8096
" />
<path d="M7817 8096
L8067 8346
" />
<path d="M8067 8346
L8567 8346
" />
<path d="M8567 8346
L8817 8096
" />
<path d="M8817 8096
L9067 8346
" />
<path d="M9067 8346
L9567 8346
" />
<path d="M9567 8346
L9817 8096
" />
<path d="M9817 8096
L9817 7596
" />
<path d="M9817 7596
L9567 7346
" />
<path d="M9567 7346
L9067 7346
" />
<path d="M9067 7346
L8817 7596
" />
<path d="M8817 7596
L8567 7346
" />
<path d="M8567 7346
L8067 7346
" />
<path d="M8067 7346
L7817 7596
" />
<path d="M7817 7596
L7817 7346
" />
</g>
<g style="fill:#840000; fill-opacity:0.0; 
stroke:#840000; stroke-width:39.3701; stroke-opacity:1; 
stroke-linecap:round; stroke-linejoin:round;">
</g>
<g style="fill:#840000; fill-opacity:1.0; 
stroke:#840000; stroke-width:39.3701; stroke-opacity:1; 
stroke-linecap:round; stroke-linejoin:round;">
<circle cx="3278.35" cy="6606.5" r="330.315" /> 
<circle cx="3298.03" cy="5303.35" r="305.315" /> 
<polyline style="fill-rule:evenodd;"
points="3603,4608
2992,4608
2992,3998
3603,3998
3603,4608
" /> 
<circle cx="3298.03" cy="3303.35" r="305.315" /> 
<polyline style="fill-rule:evenodd;"
points="9612,6276
9612,6936
8951,6936
8951,6276
9612,6276
" /> 
<circle cx="8282.28" cy="6606.5" r="330.315" /> 
<circle cx="7282.28" cy="6606.5" r="330.315" /> 
<circle cx="6282.28" cy="6606.5" r="330.315" /> 
<circle cx="5282.28" cy="6606.5" r="330.315" /> 
<circle cx="4282.28" cy="6606.5" r="330.315" /> 
<polyline style="fill-rule:evenodd;"
points="14186,5633
10925,5633
10925,4973
14186,4973
14186,5633
" /> 
<polyline style="fill-rule:evenodd;"
points="14186,3633
10925,3633
10925,2973
14186,2973
14186,3633
" /> 
<polyline style="fill-rule:evenodd;"
points="6571,7541
6571,8151
5961,8151
5961,7541
6571,7541
" /> 
<circle cx="5266.54" cy="7846.65" r="305.315" /> 
<circle cx="4266.54" cy="7846.65" r="305.315" /> 
<polyline style="fill-rule:evenodd;"
points="7012,8151
7012,7541
7623,7541
7623,8151
7012,8151
" /> 
<circle cx="8317.72" cy="7846.65" r="305.315" /> 
<circle cx="9317.72" cy="7846.65" r="305.315" /> 
</g> 
</svg>
