<?xml version="1.0" standalone="no"?>
 <!DOCTYPE svg PUBLIC "-//W3C//DTD SVG 1.1//EN" 
 "http://www.w3.org/Graphics/SVG/1.1/DTD/svg11.dtd"> 
<svg xmlns="http://www.w3.org/2000/svg" version="1.1" 
    width="4.3815cm" height="2.56286cm" viewBox="0 0 17250 10090 ">
<title>SVG Picture created as pulse_v2-B_Cu.svg date 2014/07/04 18:21:23 </title>
  <desc>Picture generated by PCBNEW </desc>
<g style="fill:#000000; fill-opacity:1;stroke:#000000; stroke-opacity:1;
stroke-linecap:round; stroke-linejoin:round; "
 transform="translate(0 0) scale(1 1)">
</g>
<g style="fill:#C2C200; fill-opacity:0.0; 
stroke:#C2C200; stroke-width:100; stroke-opacity:1; 
stroke-linecap:round; stroke-linejoin:round;">
<path d="M10384.6 1744.29 A393.701 393.701 0.0 0 0 9990.95 1350.59 " />
<path d="M10384.6 2039.57 A393.701 393.701 0.0 0 0 10778.3 2433.27 " />
<path d="M10778.3 6173.43 A393.701 393.701 0.0 0 0 10384.6 6567.13 " />
<path d="M9990.95 8437.2 A393.701 393.701 0.0 0 0 10384.6 8043.5 " />
<path d="M9990 8437
L2904 8437
" />
<path d="M14321 2826
L14321 5779
" />
<path d="M13927 2433
L10778 2433
" />
<path d="M13927 6173
L10778 6173
" />
<path d="M14321.7 2826.97 A393.701 393.701 0.0 0 0 13928 2433.27 " />
<path d="M13928 6173.43 A393.701 393.701 0.0 0 0 14321.7 5779.72 " />
<path d="M2904 1350
L9990 1350
" />
<path d="M2510 8043
L2510 1744
" />
<path d="M2904.33 1350.59 A393.701 393.701 0.0 0 0 2510.63 1744.29 " />
<path d="M2510.63 8043.5 A393.701 393.701 0.0 0 0 2904.33 8437.2 " />
<path d="M10384 2039
L10384 1744
" />
<path d="M10384 8043
L10384 6567
" />
</g>
<g style="fill:#008400; fill-opacity:0.0; 
stroke:#008400; stroke-width:39.3701; stroke-opacity:1; 
stroke-linecap:round; stroke-linejoin:round;">
</g>
<g style="fill:#008400; fill-opacity:1.0; 
stroke:#008400; stroke-width:39.3701; stroke-opacity:1; 
stroke-linecap:round; stroke-linejoin:round;">
<polyline style="fill-rule:evenodd;"
points="5317,2946
5727,2946
5727,3457
5317,3457
5317,2946
" /> 
<polyline style="fill-rule:evenodd;"
points="5317,2196
5727,2196
5727,2707
5317,2707
5317,2196
" /> 
</g>
<g style="fill:#840000; fill-opacity:1.0; 
stroke:#840000; stroke-width:39.3701; stroke-opacity:1; 
stroke-linecap:round; stroke-linejoin:round;">
<circle cx="3278.35" cy="6606.5" r="330.315" /> 
</g>
<g style="fill:#008400; fill-opacity:1.0; 
stroke:#008400; stroke-width:39.3701; stroke-opacity:1; 
stroke-linecap:round; stroke-linejoin:round;">
<polyline style="fill-rule:evenodd;"
points="3535,2472
3535,1921
4007,1921
4007,2472
3535,2472
" /> 
<polyline style="fill-rule:evenodd;"
points="2785,2472
2785,1921
3257,1921
3257,2472
2785,2472
" /> 
</g>
<g style="fill:#840000; fill-opacity:1.0; 
stroke:#840000; stroke-width:39.3701; stroke-opacity:1; 
stroke-linecap:round; stroke-linejoin:round;">
<circle cx="3298.03" cy="5303.35" r="305.315" /> 
<polyline style="fill-rule:evenodd;"
points="3603,4608
2992,4608
2992,3998
3603,3998
3603,4608
" /> 
<circle cx="3298.03" cy="3303.35" r="305.315" /> 
<polyline style="fill-rule:evenodd;"
points="9612,6276
9612,6936
8951,6936
8951,6276
9612,6276
" /> 
<circle cx="8282.28" cy="6606.5" r="330.315" /> 
<circle cx="7282.28" cy="6606.5" r="330.315" /> 
<circle cx="6282.28" cy="6606.5" r="330.315" /> 
<circle cx="5282.28" cy="6606.5" r="330.315" /> 
<circle cx="4282.28" cy="6606.5" r="330.315" /> 
<polyline style="fill-rule:evenodd;"
points="14186,5633
10925,5633
10925,4973
14186,4973
14186,5633
" /> 
<polyline style="fill-rule:evenodd;"
points="14186,3633
10925,3633
10925,2973
14186,2973
14186,3633
" /> 
</g>
<g style="fill:#008400; fill-opacity:1.0; 
stroke:#008400; stroke-width:39.3701; stroke-opacity:1; 
stroke-linecap:round; stroke-linejoin:round;">
<polyline style="fill-rule:evenodd;"
points="4540,3071
4850,3071
4850,3432
4540,3432
4540,3071
" /> 
<polyline style="fill-rule:evenodd;"
points="4540,2221
4850,2221
4850,2582
4540,2582
4540,2221
" /> 
</g>
<g style="fill:#840000; fill-opacity:1.0; 
stroke:#840000; stroke-width:39.3701; stroke-opacity:1; 
stroke-linecap:round; stroke-linejoin:round;">
<polyline style="fill-rule:evenodd;"
points="6571,7541
6571,8151
5961,8151
5961,7541
6571,7541
" /> 
<circle cx="5266.54" cy="7846.65" r="305.315" /> 
<circle cx="4266.54" cy="7846.65" r="305.315" /> 
<polyline style="fill-rule:evenodd;"
points="7012,8151
7012,7541
7623,7541
7623,8151
7012,8151
" /> 
<circle cx="8317.72" cy="7846.65" r="305.315" /> 
<circle cx="9317.72" cy="7846.65" r="305.315" /> 
</g>
<g style="fill:#C2C2C2; fill-opacity:1.0; 
stroke:#C2C2C2; stroke-width:39.3701; stroke-opacity:1; 
stroke-linecap:round; stroke-linejoin:round;">
<circle cx="8337.4" cy="4539.57" r="155.315" /> 
<circle cx="9813.78" cy="2866.34" r="155.315" /> 
<circle cx="5817.72" cy="4874.21" r="155.315" /> 
<circle cx="8672.05" cy="5287.6" r="155.315" /> 
<circle cx="10168.1" cy="5267.91" r="155.315" /> 
<circle cx="5837.4" cy="1803.35" r="155.315" /> 
<circle cx="8435.83" cy="1803.35" r="155.315" /> 
<circle cx="7825.59" cy="1803.35" r="155.315" /> 
<circle cx="9064.76" cy="1803.35" r="155.315" /> 
<circle cx="10463.4" cy="3594.69" r="155.315" /> 
<circle cx="10325.6" cy="4008.07" r="155.315" /> 
<circle cx="9459.45" cy="5267.91" r="155.315" /> 
<circle cx="9813.78" cy="5189.17" r="155.315" /> 
<circle cx="5483.07" cy="1803.35" r="155.315" /> 
<circle cx="6191.73" cy="1803.35" r="155.315" /> 
<circle cx="5817.72" cy="5386.02" r="155.315" /> 
<circle cx="9301.97" cy="4165.55" r="155.315" /> 
</g>
<g style="fill:#008400; fill-opacity:1.0; 
stroke:#008400; stroke-width:300; stroke-opacity:1; 
stroke-linecap:round; stroke-linejoin:round;">
</g>
<g style="fill:#008400; fill-opacity:0.0; 
stroke:#008400; stroke-width:300; stroke-opacity:1; 
stroke-linecap:round; stroke-linejoin:round;">
<path d="M6723 5838
L3833 5838
" />
<path d="M3833 5838
L3298 5303
" />
<path d="M8022 4539
L8337 4539
" />
<path d="M6723 5838
L8022 4539
" />
</g>
<g style="fill:#008400; fill-opacity:0.0; 
stroke:#008400; stroke-width:100; stroke-opacity:1; 
stroke-linecap:round; stroke-linejoin:round;">
<path d="M8282 6606
L8282 6110
" />
<path d="M8514 5878
L8809 5878
" />
<path d="M8282 6110
L8514 5878
" />
<path d="M8809 5878
L9065 5622
" />
<path d="M6939 7246
L6457 7246
" />
<path d="M6266 7437
L6266 7846
" />
<path d="M6457 7246
L6266 7437
" />
<path d="M8282 6606
L8282 6996
" />
<path d="M6266 7535
L6266 7846
" />
<path d="M8032 7246
L6939 7246
" />
<path d="M8282 6996
L8032 7246
" />
<path d="M9065 4992
L9065 5622
" />
<path d="M9065 4992
L9813 4244
" />
<path d="M9813 4244
L9813 2866
" />
<path d="M5817 4874
L5817 4185
" />
<path d="M5522 3889
L5522 3201
" />
<path d="M5817 4185
L5522 3889
" />
<path d="M4695 3251
L5472 3251
" />
<path d="M5472 3251
L5522 3201
" />
<path d="M3771 2197
L3771 2544
" />
<path d="M4479 3251
L4695 3251
" />
<path d="M3771 2544
L4479 3251
" />
<path d="M7282 6606
L7282 6145
" />
<path d="M8140 5287
L8672 5287
" />
<path d="M7282 6145
L8140 5287
" />
</g>
<g style="fill:#008400; fill-opacity:0.0; 
stroke:#008400; stroke-width:300; stroke-opacity:1; 
stroke-linecap:round; stroke-linejoin:round;">
<path d="M9459 7246
L8918 7246
" />
<path d="M8918 7246
L8317 7846
" />
<path d="M9922 7246
L9459 7246
" />
<path d="M10168 5267
L10168 7000
" />
<path d="M10168 7000
L9922 7246
" />
<path d="M4282 6606
L4282 7830
" />
<path d="M4282 7830
L4266 7846
" />
<path d="M5837 1803
L5857 1823
" />
<path d="M5857 1823
L5857 1842
" />
<path d="M7825 1803
L7825 1842
" />
<path d="M9301 4165
L9301 4008
" />
<path d="M7628 3909
L6152 5386
" />
<path d="M9203 3909
L7628 3909
" />
<path d="M9301 4008
L9203 3909
" />
<path d="M10463 3594
L10463 2807
" />
<path d="M9064 1803
L9459 1803
" />
<path d="M10463 2807
L9459 1803
" />
<path d="M4695 2401
L4695 2000
" />
<path d="M4892 1803
L5483 1803
" />
<path d="M4695 2000
L4892 1803
" />
<path d="M5522 2451
L5936 2451
" />
<path d="M5936 2451
L6191 2197
" />
<path d="M6191 2197
L6191 1803
" />
<path d="M5472 2401
L5522 2451
" />
<path d="M5817 5386
L6152 5386
" />
</g>
<g style="fill:#008400; fill-opacity:0.0; 
stroke:#008400; stroke-width:100; stroke-opacity:1; 
stroke-linecap:round; stroke-linejoin:round;">
<path d="M3021 2197
L3021 3026
" />
<path d="M3021 3026
L3298 3303
" />
<path d="M3002 2215
L3021 2197
" />
<path d="M2963 2255
L3021 2197
" />
</g>
<g style="fill:#008400; fill-opacity:1.0; 
stroke:#008400; stroke-width:100; stroke-opacity:1; 
stroke-linecap:round; stroke-linejoin:round;">
<polyline style="fill-rule:evenodd;"
points="6104,7179
6056,7227
6024,7274
5892,7274
5801,7312
5732,7381
5696,7468
5590,7362
5380,7274
5153,7274
4943,7361
4782,7522
4770,7549
4768,7543
4670,7513
4633,7550
4633,7028
4282,6677
3930,7028
3964,7129
4188,7211
4427,7200
4600,7129
4633,7028
4633,7550
4599,7584
4599,7442
4569,7344
4354,7266
4125,7277
3963,7344
3933,7442
4266,7775
4599,7442
4599,7584
4337,7846
4342,7852
4272,7922
4266,7917
4260,7922
4190,7852
4195,7846
3862,7513
3764,7543
3686,7758
3697,7987
3760,8140
2933,8140
2869,8127
2839,8107
2820,8078
2807,8014
2807,6979
2939,7112
3159,7203
3396,7203
3615,7112
3784,6945
3788,6934
3860,6957
4211,6606
4206,6600
4276,6530
4282,6535
4287,6530
4358,6600
4352,6606
4704,6957
4772,6935
4776,6944
4943,7112
5163,7203
5400,7203
5619,7112
5782,6950
5943,7112
6104,7179
" /> 
<polyline style="fill-rule:evenodd;"
points="10629,4303
10187,4303
10187,6221
10167,6251
10123,6358
10123,6358
10093,6509
10093,6538
10087,6567
10087,8014
10075,8078
10055,8107
10025,8127
9961,8140
9814,8140
9889,7960
9889,7733
9802,7523
9642,7362
9431,7274
9204,7274
8994,7361
8833,7522
8821,7549
8819,7543
8721,7513
8388,7846
8393,7852
8323,7922
8317,7917
8312,7922
8241,7852
8247,7846
8241,7841
8312,7770
8317,7775
8651,7442
8620,7344
8424,7273
8492,7206
8492,7206
8492,7206
8529,7150
8529,7150
8619,7112
8697,7035
8723,7096
8792,7165
8883,7203
8981,7203
9681,7203
9772,7165
9841,7096
9879,7005
9879,6907
9879,6207
9841,6116
9772,6047
9681,6009
9583,6009
9098,6009
9275,5832
9275,5832
9275,5832
9340,5735
9362,5622
9362,5622
9362,5622
9362,5115
10023,4454
10023,4454
10023,4454
10088,4357
10110,4244
10110,4244
10110,4244
10110,3166
10171,3105
10235,2950
10235,2782
10171,2627
10053,2508
9898,2444
9730,2444
9575,2508
9456,2627
9392,2782
9391,2949
9455,3104
9516,3166
9516,4121
8855,4782
8791,4878
8791,4880
8756,4865
8607,4865
8694,4778
8759,4623
8759,4456
8695,4300
8576,4182
8421,4117
8253,4117
8193,4142
8022,4142
8022,4142
7870,4172
7741,4258
7741,4258
6558,5441
3997,5441
3869,5313
3869,5190
3783,4979
3676,4873
3762,4837
3832,4768
3869,4677
3869,4579
3869,3929
3832,3838
3762,3769
3676,3733
3782,3627
3869,3417
3869,3190
3783,2979
3622,2818
3412,2731
3344,2731
3396,2709
3466,2738
3551,2738
3561,2754
4269,3461
4269,3461
4269,3461
4273,3464
4273,3501
4311,3591
4380,3661
4471,3698
4569,3698
4919,3698
5010,3661
5078,3593
5088,3616
5157,3686
5225,3714
5225,3889
5225,3889
5248,4003
5312,4099
5520,4308
5520,4574
5460,4634
5395,4789
5395,4957
5459,5112
5578,5231
5733,5295
5901,5296
6056,5232
6175,5113
6239,4958
6239,4790
6175,4635
6114,4574
6114,4185
6114,4185
6114,4185
6091,4071
6091,4071
6066,4033
6027,3975
6027,3975
5819,3767
5819,3714
5887,3686
5956,3616
5994,3526
5994,3427
5994,2877
5974,2831
5997,2776
5997,2564
5997,2339
5997,2127
5959,2035
5889,1965
5797,1926
5697,1926
5634,1926
5572,1989
5572,2401
5934,2401
5997,2339
5997,2564
5934,2501
5572,2501
5572,2509
5472,2509
5472,2501
5464,2501
5464,2401
5472,2401
5472,1989
5409,1926
5347,1926
5247,1926
5155,1965
5085,2035
5077,2055
5012,1990
4920,1951
4820,1951
4808,1951
4745,2014
4745,2351
5058,2351
5059,2351
5109,2401
5047,2401
5047,2451
4745,2451
4745,2459
4645,2459
4645,2451
4637,2451
4637,2351
4645,2351
4645,2014
4583,1951
4570,1951
4470,1951
4379,1990
4308,2060
4274,2143
4274,1852
4236,1762
4167,1692
4076,1655
3978,1655
3466,1655
3396,1684
3326,1655
3228,1655
2894,1655
2933,1647
9961,1647
10025,1660
10055,1679
10075,1709
10087,1773
10087,2039
10093,2068
10093,2097
10123,2248
10123,2248
10167,2355
10253,2482
10253,2482
10335,2564
10462,2650
10462,2650
10569,2694
10569,2694
10629,2706
10629,4303
" /> 
</g>
<g style="fill:#FFFFFF; fill-opacity:1.0; 
stroke:#FFFFFF; stroke-width:39.3701; stroke-opacity:1; 
stroke-linecap:round; stroke-linejoin:round;">
<circle cx="8337.4" cy="4539.57" r="105.315" /> 
<circle cx="9813.78" cy="2866.34" r="105.315" /> 
<circle cx="5817.72" cy="4874.21" r="105.315" /> 
<circle cx="8672.05" cy="5287.6" r="105.315" /> 
<circle cx="10168.1" cy="5267.91" r="105.315" /> 
<circle cx="5837.4" cy="1803.35" r="105.315" /> 
<circle cx="8435.83" cy="1803.35" r="105.315" /> 
<circle cx="7825.59" cy="1803.35" r="105.315" /> 
<circle cx="9064.76" cy="1803.35" r="105.315" /> 
<circle cx="10463.4" cy="3594.69" r="105.315" /> 
<circle cx="10325.6" cy="4008.07" r="105.315" /> 
<circle cx="9459.45" cy="5267.91" r="105.315" /> 
<circle cx="9813.78" cy="5189.17" r="105.315" /> 
<circle cx="5483.07" cy="1803.35" r="105.315" /> 
<circle cx="6191.73" cy="1803.35" r="105.315" /> 
<circle cx="5817.72" cy="5386.02" r="105.315" /> 
<circle cx="9301.97" cy="4165.55" r="105.315" /> 
<circle cx="3278.35" cy="6606.5" r="180.315" /> 
<circle cx="3298.03" cy="5303.35" r="180.315" /> 
<circle cx="3298.03" cy="4303.35" r="180.315" /> 
<circle cx="3298.03" cy="3303.35" r="180.315" /> 
<circle cx="9282.28" cy="6606.5" r="180.315" /> 
<circle cx="8282.28" cy="6606.5" r="180.315" /> 
<circle cx="7282.28" cy="6606.5" r="180.315" /> 
<circle cx="6282.28" cy="6606.5" r="180.315" /> 
<circle cx="5282.28" cy="6606.5" r="180.315" /> 
<circle cx="4282.28" cy="6606.5" r="180.315" /> 
<circle cx="11156.3" cy="5303.35" r="140.315" /> 
<circle cx="11156.3" cy="3303.35" r="140.315" /> 
<circle cx="6266.54" cy="7846.65" r="180.315" /> 
<circle cx="5266.54" cy="7846.65" r="180.315" /> 
<circle cx="4266.54" cy="7846.65" r="180.315" /> 
<circle cx="7317.72" cy="7846.65" r="180.315" /> 
<circle cx="8317.72" cy="7846.65" r="180.315" /> 
<circle cx="9317.72" cy="7846.65" r="180.315" /> 
</g> 
</svg>
