<?xml version="1.0" standalone="no"?>
 <!DOCTYPE svg PUBLIC "-//W3C//DTD SVG 1.1//EN" 
 "http://www.w3.org/Graphics/SVG/1.1/DTD/svg11.dtd"> 
<svg xmlns="http://www.w3.org/2000/svg" version="1.1" 
    width="4.3815cm" height="2.56286cm" viewBox="0 0 17250 10090 ">
<title>SVG Picture created as pulse_v2-F_Cu.svg date 2014/07/04 18:21:23 </title>
  <desc>Picture generated by PCBNEW </desc>
<g style="fill:#000000; fill-opacity:1;stroke:#000000; stroke-opacity:1;
stroke-linecap:round; stroke-linejoin:round; "
 transform="translate(0 0) scale(1 1)">
</g>
<g style="fill:#C2C200; fill-opacity:0.0; 
stroke:#C2C200; stroke-width:100; stroke-opacity:1; 
stroke-linecap:round; stroke-linejoin:round;">
<path d="M10384.6 1744.29 A393.701 393.701 0.0 0 0 9990.95 1350.59 " />
<path d="M10384.6 2039.57 A393.701 393.701 0.0 0 0 10778.3 2433.27 " />
<path d="M10778.3 6173.43 A393.701 393.701 0.0 0 0 10384.6 6567.13 " />
<path d="M9990.95 8437.2 A393.701 393.701 0.0 0 0 10384.6 8043.5 " />
<path d="M9990 8437
L2904 8437
" />
<path d="M14321 2826
L14321 5779
" />
<path d="M13927 2433
L10778 2433
" />
<path d="M13927 6173
L10778 6173
" />
<path d="M14321.7 2826.97 A393.701 393.701 0.0 0 0 13928 2433.27 " />
<path d="M13928 6173.43 A393.701 393.701 0.0 0 0 14321.7 5779.72 " />
<path d="M2904 1350
L9990 1350
" />
<path d="M2510 8043
L2510 1744
" />
<path d="M2904.33 1350.59 A393.701 393.701 0.0 0 0 2510.63 1744.29 " />
<path d="M2510.63 8043.5 A393.701 393.701 0.0 0 0 2904.33 8437.2 " />
<path d="M10384 2039
L10384 1744
" />
<path d="M10384 8043
L10384 6567
" />
</g>
<g style="fill:#840000; fill-opacity:0.0; 
stroke:#840000; stroke-width:39.3701; stroke-opacity:1; 
stroke-linecap:round; stroke-linejoin:round;">
</g>
<g style="fill:#840000; fill-opacity:1.0; 
stroke:#840000; stroke-width:39.3701; stroke-opacity:1; 
stroke-linecap:round; stroke-linejoin:round;">
<polyline style="fill-rule:evenodd;"
points="7620,2789
8030,2789
8030,3299
7620,3299
7620,2789
" /> 
<polyline style="fill-rule:evenodd;"
points="7620,2039
8030,2039
8030,2549
7620,2549
7620,2039
" /> 
<polyline style="fill-rule:evenodd;"
points="9320,4570
9320,4981
8809,4981
8809,4570
9320,4570
" /> 
<polyline style="fill-rule:evenodd;"
points="10070,4570
10070,4981
9559,4981
9559,4570
10070,4570
" /> 
<polyline style="fill-rule:evenodd;"
points="9559,2618
9559,2208
10070,2208
10070,2618
9559,2618
" /> 
<polyline style="fill-rule:evenodd;"
points="8809,2618
8809,2208
9320,2208
9320,2618
8809,2618
" /> 
<circle cx="3278.35" cy="6606.5" r="330.315" /> 
<polyline style="fill-rule:evenodd;"
points="6070,3081
5609,3081
5609,2771
6070,2771
6070,3081
" /> 
<polyline style="fill-rule:evenodd;"
points="5120,2706
4659,2706
4659,2396
5120,2396
5120,2706
" /> 
<polyline style="fill-rule:evenodd;"
points="6070,2331
5609,2331
5609,2021
6070,2021
6070,2331
" /> 
<polyline style="fill-rule:evenodd;"
points="7156,2530
6605,2530
6605,2058
7156,2058
7156,2530
" /> 
<polyline style="fill-rule:evenodd;"
points="7156,3280
6605,3280
6605,2808
7156,2808
7156,3280
" /> 
<polyline style="fill-rule:evenodd;"
points="6705,3774
7465,3774
7465,3975
6705,3975
6705,3774
" /> 
<polyline style="fill-rule:evenodd;"
points="4805,3774
5565,3774
5565,3975
4805,3975
4805,3774
" /> 
<polyline style="fill-rule:evenodd;"
points="6705,4274
7465,4274
7465,4475
6705,4475
6705,4274
" /> 
<polyline style="fill-rule:evenodd;"
points="6705,4774
7465,4774
7465,4975
6705,4975
6705,4774
" /> 
<polyline style="fill-rule:evenodd;"
points="6705,5274
7465,5274
7465,5475
6705,5475
6705,5274
" /> 
<polyline style="fill-rule:evenodd;"
points="4805,4274
5565,4274
5565,4475
4805,4475
4805,4274
" /> 
<polyline style="fill-rule:evenodd;"
points="4805,4774
5565,4774
5565,4975
4805,4975
4805,4774
" /> 
<polyline style="fill-rule:evenodd;"
points="4805,5274
5565,5274
5565,5475
4805,5475
4805,5274
" /> 
<polyline style="fill-rule:evenodd;"
points="10026,4164
9566,4164
9566,3853
10026,3853
10026,4164
" /> 
<polyline style="fill-rule:evenodd;"
points="9076,3789
8616,3789
8616,3478
9076,3478
9076,3789
" /> 
<polyline style="fill-rule:evenodd;"
points="10026,3414
9566,3414
9566,3103
10026,3103
10026,3414
" /> 
<circle cx="3298.03" cy="5303.35" r="305.315" /> 
<polyline style="fill-rule:evenodd;"
points="3603,4608
2992,4608
2992,3998
3603,3998
3603,4608
" /> 
<circle cx="3298.03" cy="3303.35" r="305.315" /> 
<polyline style="fill-rule:evenodd;"
points="9612,6276
9612,6936
8951,6936
8951,6276
9612,6276
" /> 
<circle cx="8282.28" cy="6606.5" r="330.315" /> 
<circle cx="7282.28" cy="6606.5" r="330.315" /> 
<circle cx="6282.28" cy="6606.5" r="330.315" /> 
<circle cx="5282.28" cy="6606.5" r="330.315" /> 
<circle cx="4282.28" cy="6606.5" r="330.315" /> 
<polyline style="fill-rule:evenodd;"
points="8282,4193
7841,4193
7841,3874
8282,3874
8282,4193
" /> 
<polyline style="fill-rule:evenodd;"
points="8282,5480
7841,5480
7841,5161
8282,5161
8282,5480
" /> 
<polyline style="fill-rule:evenodd;"
points="14186,5633
10925,5633
10925,4973
14186,4973
14186,5633
" /> 
<polyline style="fill-rule:evenodd;"
points="14186,3633
10925,3633
10925,2973
14186,2973
14186,3633
" /> 
<polyline style="fill-rule:evenodd;"
points="6571,7541
6571,8151
5961,8151
5961,7541
6571,7541
" /> 
<circle cx="5266.54" cy="7846.65" r="305.315" /> 
<circle cx="4266.54" cy="7846.65" r="305.315" /> 
<polyline style="fill-rule:evenodd;"
points="7012,8151
7012,7541
7623,7541
7623,8151
7012,8151
" /> 
<circle cx="8317.72" cy="7846.65" r="305.315" /> 
<circle cx="9317.72" cy="7846.65" r="305.315" /> 
</g>
<g style="fill:#C2C2C2; fill-opacity:1.0; 
stroke:#C2C2C2; stroke-width:39.3701; stroke-opacity:1; 
stroke-linecap:round; stroke-linejoin:round;">
<circle cx="8337.4" cy="4539.57" r="155.315" /> 
<circle cx="9813.78" cy="2866.34" r="155.315" /> 
<circle cx="5817.72" cy="4874.21" r="155.315" /> 
<circle cx="8672.05" cy="5287.6" r="155.315" /> 
<circle cx="10168.1" cy="5267.91" r="155.315" /> 
<circle cx="5837.4" cy="1803.35" r="155.315" /> 
<circle cx="8435.83" cy="1803.35" r="155.315" /> 
<circle cx="7825.59" cy="1803.35" r="155.315" /> 
<circle cx="9064.76" cy="1803.35" r="155.315" /> 
<circle cx="10463.4" cy="3594.69" r="155.315" /> 
<circle cx="10325.6" cy="4008.07" r="155.315" /> 
<circle cx="9459.45" cy="5267.91" r="155.315" /> 
<circle cx="9813.78" cy="5189.17" r="155.315" /> 
<circle cx="5483.07" cy="1803.35" r="155.315" /> 
<circle cx="6191.73" cy="1803.35" r="155.315" /> 
<circle cx="5817.72" cy="5386.02" r="155.315" /> 
<circle cx="9301.97" cy="4165.55" r="155.315" /> 
</g>
<g style="fill:#840000; fill-opacity:1.0; 
stroke:#840000; stroke-width:300; stroke-opacity:1; 
stroke-linecap:round; stroke-linejoin:round;">
</g>
<g style="fill:#840000; fill-opacity:0.0; 
stroke:#840000; stroke-width:300; stroke-opacity:1; 
stroke-linecap:round; stroke-linejoin:round;">
<path d="M8455 4421
L8846 4421
" />
<path d="M8337 4539
L8455 4421
" />
<path d="M8846 4033
L8846 4421
" />
<path d="M8846 4421
L8846 4557
" />
<path d="M8846 4557
L9064 4775
" />
<path d="M8061 4033
L8846 4033
" />
<path d="M8846 3634
L8846 4033
" />
</g>
<g style="fill:#840000; fill-opacity:0.0; 
stroke:#840000; stroke-width:100; stroke-opacity:1; 
stroke-linecap:round; stroke-linejoin:round;">
<path d="M9814 2865
L9814 2413
" />
<path d="M9813 2866
L9814 2865
" />
<path d="M7085 3875
L7085 3704
" />
<path d="M7707 3594
L7825 3476
" />
<path d="M7195 3594
L7707 3594
" />
<path d="M7085 3704
L7195 3594
" />
<path d="M7825 3044
L7825 3476
" />
<path d="M9796 3259
L9399 3259
" />
<path d="M9184 3044
L7825 3044
" />
<path d="M9399 3259
L9184 3044
" />
<path d="M9814 2413
L9814 3240
" />
<path d="M9814 3240
L9796 3259
" />
<path d="M4479 4598
L4479 5405
" />
<path d="M4702 4375
L4479 4598
" />
<path d="M5185 4375
L4702 4375
" />
<path d="M4479 5405
L3278 6606
" />
<path d="M7805 6035
L8711 6035
" />
<path d="M8711 6035
L9282 6606
" />
<path d="M7085 4875
L7550 4875
" />
<path d="M7550 4875
L7648 4972
" />
<path d="M7648 5878
L7805 6035
" />
<path d="M7648 4972
L7648 5878
" />
<path d="M6282 6606
L6282 7090
" />
<path d="M7317 7417
L7317 7846
" />
<path d="M7136 7236
L7317 7417
" />
<path d="M6427 7236
L7136 7236
" />
<path d="M6282 7090
L6427 7236
" />
<path d="M6282 6606
L6282 6811
" />
<path d="M7085 5375
L6427 5375
" />
<path d="M6427 3497
L6427 5375
" />
<path d="M6427 5375
L6427 6460
" />
<path d="M6427 6460
L6282 6606
" />
<path d="M6427 3497
L6880 3044
" />
<path d="M5817 4874
L5816 4875
" />
<path d="M5185 4875
L5816 4875
" />
<path d="M6211 4500
L6211 5677
" />
<path d="M6211 5677
L5282 6606
" />
<path d="M6211 4500
L5586 3875
" />
<path d="M5586 3875
L5185 3875
" />
<path d="M8553 5031
L8553 5169
" />
<path d="M8042 4874
L8396 4874
" />
<path d="M7085 4375
L7543 4375
" />
<path d="M7543 4375
L8042 4874
" />
<path d="M8396 4874
L8553 5031
" />
<path d="M8553 5169
L8672 5287
" />
</g>
<g style="fill:#840000; fill-opacity:0.0; 
stroke:#840000; stroke-width:150; stroke-opacity:1; 
stroke-linecap:round; stroke-linejoin:round;">
<path d="M10168 5110
L10168 5267
" />
<path d="M9833 4775
L10168 5110
" />
<path d="M9796 4009
L9814 4009
" />
<path d="M9814 4775
L9833 4775
" />
</g>
<g style="fill:#840000; fill-opacity:0.0; 
stroke:#840000; stroke-width:300; stroke-opacity:1; 
stroke-linecap:round; stroke-linejoin:round;">
<path d="M11156 3303
L10754 3303
" />
<path d="M10754 3303
L10463 3594
" />
<path d="M4282 6606
L4282 6114
" />
<path d="M5185 5723
L5185 5375
" />
<path d="M4971 5937
L5185 5723
" />
<path d="M4459 5937
L4971 5937
" />
<path d="M4282 6114
L4459 5937
" />
<path d="M5839 2176
L5839 1805
" />
<path d="M5839 1805
L5837 1803
" />
<path d="M7825 1803
L8435 1803
" />
<path d="M7825 2294
L7825 1803
" />
<path d="M6349 1645
L7668 1645
" />
<path d="M6349 1645
L6191 1803
" />
<path d="M7668 1645
L7825 1803
" />
</g>
<g style="fill:#840000; fill-opacity:0.0; 
stroke:#840000; stroke-width:150; stroke-opacity:1; 
stroke-linecap:round; stroke-linejoin:round;">
<path d="M10211 3594
L9796 4009
" />
<path d="M10463 3594
L10211 3594
" />
</g>
<g style="fill:#840000; fill-opacity:0.0; 
stroke:#840000; stroke-width:300; stroke-opacity:1; 
stroke-linecap:round; stroke-linejoin:round;">
<path d="M9796 4009
L9796 4005
" />
<path d="M9796 4009
L10324 4009
" />
<path d="M10324 4009
L10325 4008
" />
<path d="M9814 4775
L9814 4776
" />
<path d="M9814 4775
L9813 4775
" />
</g>
<g style="fill:#840000; fill-opacity:0.0; 
stroke:#840000; stroke-width:150; stroke-opacity:1; 
stroke-linecap:round; stroke-linejoin:round;">
<path d="M9813 4775
L9459 5130
" />
<path d="M9459 5130
L9459 5267
" />
</g>
<g style="fill:#840000; fill-opacity:0.0; 
stroke:#840000; stroke-width:300; stroke-opacity:1; 
stroke-linecap:round; stroke-linejoin:round;">
<path d="M9814 4775
L9814 5188
" />
<path d="M9814 5188
L9813 5189
" />
<path d="M5483 1803
L5837 1803
" />
<path d="M6191 1803
L5837 1803
" />
<path d="M5839 1805
L5837 1803
" />
<path d="M5196 5386
L5817 5386
" />
<path d="M9796 4009
L9458 4009
" />
<path d="M9458 4009
L9301 4165
" />
<path d="M9064 2413
L9064 1803
" />
<path d="M7825 1803
L9064 1803
" />
<path d="M5196 5386
L5185 5375
" />
<path d="M9814 4775
L9814 4027
" />
<path d="M9814 4027
L9796 4009
" />
<path d="M9990 5720
L9990 7173
" />
<path d="M9990 7173
L9317 7846
" />
<path d="M11156 5303
L10762 5303
" />
<path d="M10762 5303
L10345 5720
" />
<path d="M8061 5321
L8061 5523
" />
<path d="M8258 5720
L9990 5720
" />
<path d="M9990 5720
L10345 5720
" />
<path d="M8061 5523
L8258 5720
" />
<path d="M4889 2551
L4557 2551
" />
<path d="M4282 2826
L4282 4106
" />
<path d="M4557 2551
L4282 2826
" />
<path d="M3298 4303
L4085 4303
" />
<path d="M4085 4303
L4282 4106
" />
<path d="M3298 4303
L3573 4303
" />
</g>
<g style="fill:#840000; fill-opacity:0.0; 
stroke:#840000; stroke-width:100; stroke-opacity:1; 
stroke-linecap:round; stroke-linejoin:round;">
<path d="M4577 7236
L5050 7236
" />
<path d="M5266 7452
L5266 7846
" />
<path d="M5050 7236
L5266 7452
" />
<path d="M5266 7846
L5266 7531
" />
<path d="M2727 6980
L2727 3874
" />
<path d="M2727 3874
L3298 3303
" />
<path d="M2983 7236
L2727 6980
" />
<path d="M4577 7236
L2983 7236
" />
<path d="M5839 2926
L5934 2926
" />
<path d="M5934 2926
L6566 2294
" />
<path d="M6566 2294
L6880 2294
" />
</g>
<g style="fill:#840000; fill-opacity:1.0; 
stroke:#840000; stroke-width:100; stroke-opacity:1; 
stroke-linecap:round; stroke-linejoin:round;">
<polyline style="fill-rule:evenodd;"
points="6192,3326
6153,3383
6131,3497
6131,3497
6131,4000
5828,3697
5794,3615
5725,3545
5634,3508
5536,3508
4839,3508
4839,2913
4839,2601
4839,2501
4839,2188
4777,2126
4689,2126
4590,2126
4498,2164
4428,2234
4389,2326
4389,2438
4452,2501
4839,2501
4839,2601
4452,2601
4389,2663
4389,2776
4428,2867
4498,2938
4590,2976
4689,2976
4777,2976
4839,2913
4839,3508
4736,3508
4645,3545
4576,3615
4538,3706
4538,3804
4538,4044
4567,4115
4550,4126
4492,4165
4492,4165
4269,4388
4204,4485
4182,4598
4182,4598
4182,5282
3438,6026
3397,6009
3160,6009
3024,6065
3024,5808
3183,5875
3411,5875
3621,5788
3782,5627
3869,5417
3869,5190
3783,4979
3679,4875
3764,4840
3834,4769
3873,4678
3873,4415
3810,4353
3348,4353
3348,4361
3248,4361
3248,4353
3240,4353
3240,4253
3248,4253
3248,4245
3348,4245
3348,4253
3810,4253
3873,4190
3873,3928
3834,3836
3764,3766
3679,3730
3782,3627
3869,3417
3869,3190
3783,2979
3622,2818
3412,2731
3184,2731
2974,2818
2813,2978
2807,2993
2807,1773
2820,1709
2839,1679
2869,1660
2933,1647
5091,1647
5061,1719
5061,1886
5125,2041
5223,2140
5189,2126
5090,2126
5002,2126
4939,2188
4939,2501
5327,2501
5368,2460
5380,2491
5440,2551
5380,2611
5368,2641
5327,2601
4939,2601
4939,2913
5002,2976
5090,2976
5189,2976
5281,2938
5343,2876
5343,3150
5380,3241
5450,3310
5540,3348
5639,3348
6139,3348
6192,3326
" /> 
</g>
<g style="fill:#FFFFFF; fill-opacity:1.0; 
stroke:#FFFFFF; stroke-width:39.3701; stroke-opacity:1; 
stroke-linecap:round; stroke-linejoin:round;">
<circle cx="8337.4" cy="4539.57" r="105.315" /> 
<circle cx="9813.78" cy="2866.34" r="105.315" /> 
<circle cx="5817.72" cy="4874.21" r="105.315" /> 
<circle cx="8672.05" cy="5287.6" r="105.315" /> 
<circle cx="10168.1" cy="5267.91" r="105.315" /> 
<circle cx="5837.4" cy="1803.35" r="105.315" /> 
<circle cx="8435.83" cy="1803.35" r="105.315" /> 
<circle cx="7825.59" cy="1803.35" r="105.315" /> 
<circle cx="9064.76" cy="1803.35" r="105.315" /> 
<circle cx="10463.4" cy="3594.69" r="105.315" /> 
<circle cx="10325.6" cy="4008.07" r="105.315" /> 
<circle cx="9459.45" cy="5267.91" r="105.315" /> 
<circle cx="9813.78" cy="5189.17" r="105.315" /> 
<circle cx="5483.07" cy="1803.35" r="105.315" /> 
<circle cx="6191.73" cy="1803.35" r="105.315" /> 
<circle cx="5817.72" cy="5386.02" r="105.315" /> 
<circle cx="9301.97" cy="4165.55" r="105.315" /> 
<circle cx="3278.35" cy="6606.5" r="180.315" /> 
<circle cx="3298.03" cy="5303.35" r="180.315" /> 
<circle cx="3298.03" cy="4303.35" r="180.315" /> 
<circle cx="3298.03" cy="3303.35" r="180.315" /> 
<circle cx="9282.28" cy="6606.5" r="180.315" /> 
<circle cx="8282.28" cy="6606.5" r="180.315" /> 
<circle cx="7282.28" cy="6606.5" r="180.315" /> 
<circle cx="6282.28" cy="6606.5" r="180.315" /> 
<circle cx="5282.28" cy="6606.5" r="180.315" /> 
<circle cx="4282.28" cy="6606.5" r="180.315" /> 
<circle cx="11156.3" cy="5303.35" r="140.315" /> 
<circle cx="11156.3" cy="3303.35" r="140.315" /> 
<circle cx="6266.54" cy="7846.65" r="180.315" /> 
<circle cx="5266.54" cy="7846.65" r="180.315" /> 
<circle cx="4266.54" cy="7846.65" r="180.315" /> 
<circle cx="7317.72" cy="7846.65" r="180.315" /> 
<circle cx="8317.72" cy="7846.65" r="180.315" /> 
<circle cx="9317.72" cy="7846.65" r="180.315" /> 
</g> 
</svg>
