<?xml version="1.0" standalone="no"?>
 <!DOCTYPE svg PUBLIC "-//W3C//DTD SVG 1.1//EN" 
 "http://www.w3.org/Graphics/SVG/1.1/DTD/svg11.dtd"> 
<svg xmlns="http://www.w3.org/2000/svg" version="1.1" 
    width="4.3815cm" height="2.56286cm" viewBox="0 0 17250 10090 ">
<title>SVG Picture created as pulse_v2-Dwgs_User.svg date 2014/07/04 18:21:23 </title>
  <desc>Picture generated by PCBNEW </desc>
<g style="fill:#000000; fill-opacity:1;stroke:#000000; stroke-opacity:1;
stroke-linecap:round; stroke-linejoin:round; "
 transform="translate(0 0) scale(1 1)">
</g>
<g style="fill:#C2C200; fill-opacity:0.0; 
stroke:#C2C200; stroke-width:100; stroke-opacity:1; 
stroke-linecap:round; stroke-linejoin:round;">
<path d="M10384.6 1744.29 A393.701 393.701 0.0 0 0 9990.95 1350.59 " />
<path d="M10384.6 2039.57 A393.701 393.701 0.0 0 0 10778.3 2433.27 " />
<path d="M10778.3 6173.43 A393.701 393.701 0.0 0 0 10384.6 6567.13 " />
<path d="M9990.95 8437.2 A393.701 393.701 0.0 0 0 10384.6 8043.5 " />
</g>
<g style="fill:#484848; fill-opacity:0.0; 
stroke:#484848; stroke-width:50; stroke-opacity:1; 
stroke-linecap:round; stroke-linejoin:round;">
<path d="M7261 9705
L7431 9705
L7340 9810
L7379 9810
L7405 9823
L7418 9836
L7431 9862
L7431 9928
L7418 9954
L7405 9967
L7379 9980
L7300 9980
L7274 9967
L7261 9954
" />
<path d="M7602 9705
L7628 9705
L7654 9718
L7668 9731
L7681 9757
L7694 9810
L7694 9875
L7681 9928
L7668 9954
L7654 9967
L7628 9980
L7602 9980
L7576 9967
L7563 9954
L7550 9928
L7536 9875
L7536 9810
L7550 9757
L7563 9731
L7576 9718
L7602 9705
" />
<path d="M7812 9954
L7825 9967
L7812 9980
L7799 9967
L7812 9954
L7812 9980
" />
<path d="M7996 9705
L8022 9705
L8048 9718
L8061 9731
L8074 9757
L8088 9810
L8088 9875
L8074 9928
L8061 9954
L8048 9967
L8022 9980
L7996 9980
L7969 9967
L7956 9954
L7943 9928
L7930 9875
L7930 9810
L7943 9757
L7956 9731
L7969 9718
L7996 9705
" />
<path d="M8258 9705
L8284 9705
L8311 9718
L8324 9731
L8337 9757
L8350 9810
L8350 9875
L8337 9928
L8324 9954
L8311 9967
L8284 9980
L8258 9980
L8232 9967
L8219 9954
L8206 9928
L8193 9875
L8193 9810
L8206 9757
L8219 9731
L8232 9718
L8258 9705
" />
<path d="M8521 9705
L8547 9705
L8573 9718
L8586 9731
L8599 9757
L8612 9810
L8612 9875
L8599 9928
L8586 9954
L8573 9967
L8547 9980
L8521 9980
L8494 9967
L8481 9954
L8468 9928
L8455 9875
L8455 9810
L8468 9757
L8481 9731
L8494 9718
L8521 9705
" />
<path d="M8941 9980
L8941 9797
" />
<path d="M8941 9823
L8954 9810
L8980 9797
L9019 9797
L9046 9810
L9059 9836
L9059 9980
" />
<path d="M9059 9836
L9072 9810
L9098 9797
L9137 9797
L9164 9810
L9177 9836
L9177 9980
" />
<path d="M9308 9980
L9308 9797
" />
<path d="M9308 9823
L9321 9810
L9347 9797
L9387 9797
L9413 9810
L9426 9836
L9426 9980
" />
<path d="M9426 9836
L9439 9810
L9466 9797
L9505 9797
L9531 9810
L9544 9836
L9544 9980
" />
<path d="M2510 9618
L14321 9618
" />
<path d="M2510 8437
L2510 10093
" />
<path d="M14321 8437
L14321 10093
" />
<path d="M14321 9618
L13878 9849
" />
<path d="M14321 9618
L13878 9387
" />
<path d="M2510 9618
L2954 9849
" />
<path d="M2510 9618
L2954 9387
" />
<path d="M11368 9291
L11211 9291
" />
<path d="M11290 9291
L11290 9016
L11263 9055
L11237 9081
L11211 9094
" />
<path d="M11539 9016
L11565 9016
L11591 9029
L11605 9042
L11618 9068
L11631 9121
L11631 9186
L11618 9239
L11605 9265
L11591 9278
L11565 9291
L11539 9291
L11513 9278
L11500 9265
L11487 9239
L11473 9186
L11473 9121
L11487 9068
L11500 9042
L11513 9029
L11539 9016
" />
<path d="M11749 9265
L11762 9278
L11749 9291
L11736 9278
L11749 9265
L11749 9291
" />
<path d="M11933 9016
L11959 9016
L11985 9029
L11998 9042
L12011 9068
L12025 9121
L12025 9186
L12011 9239
L11998 9265
L11985 9278
L11959 9291
L11933 9291
L11906 9278
L11893 9265
L11880 9239
L11867 9186
L11867 9121
L11880 9068
L11893 9042
L11906 9029
L11933 9016
" />
<path d="M12195 9016
L12221 9016
L12248 9029
L12261 9042
L12274 9068
L12287 9121
L12287 9186
L12274 9239
L12261 9265
L12248 9278
L12221 9291
L12195 9291
L12169 9278
L12156 9265
L12143 9239
L12130 9186
L12130 9121
L12143 9068
L12156 9042
L12169 9029
L12195 9016
" />
<path d="M12458 9016
L12484 9016
L12510 9029
L12523 9042
L12536 9068
L12550 9121
L12550 9186
L12536 9239
L12523 9265
L12510 9278
L12484 9291
L12458 9291
L12431 9278
L12418 9265
L12405 9239
L12392 9186
L12392 9121
L12405 9068
L12418 9042
L12431 9029
L12458 9016
" />
<path d="M12878 9291
L12878 9108
" />
<path d="M12878 9134
L12891 9121
L12917 9108
L12956 9108
L12983 9121
L12996 9147
L12996 9291
" />
<path d="M12996 9147
L13009 9121
L13035 9108
L13074 9108
L13101 9121
L13114 9147
L13114 9291
" />
<path d="M13245 9291
L13245 9108
" />
<path d="M13245 9134
L13258 9121
L13284 9108
L13324 9108
L13350 9121
L13363 9147
L13363 9291
" />
<path d="M13363 9147
L13376 9121
L13403 9108
L13442 9108
L13468 9121
L13481 9147
L13481 9291
" />
<path d="M10384 8929
L14321 8929
" />
<path d="M10384 8437
L10384 9404
" />
<path d="M14321 8437
L14321 9404
" />
<path d="M14321 8929
L13878 9160
" />
<path d="M14321 8929
L13878 8698
" />
<path d="M10384 8929
L10828 9160
" />
<path d="M10384 8929
L10828 8698
" />
<path d="M5305 9042
L5319 9029
L5345 9016
L5410 9016
L5437 9029
L5450 9042
L5463 9068
L5463 9094
L5450 9134
L5292 9291
L5463 9291
" />
<path d="M5633 9016
L5660 9016
L5686 9029
L5699 9042
L5712 9068
L5725 9121
L5725 9186
L5712 9239
L5699 9265
L5686 9278
L5660 9291
L5633 9291
L5607 9278
L5594 9265
L5581 9239
L5568 9186
L5568 9121
L5581 9068
L5594 9042
L5607 9029
L5633 9016
" />
<path d="M5843 9265
L5857 9278
L5843 9291
L5830 9278
L5843 9265
L5843 9291
" />
<path d="M6027 9016
L6053 9016
L6080 9029
L6093 9042
L6106 9068
L6119 9121
L6119 9186
L6106 9239
L6093 9265
L6080 9278
L6053 9291
L6027 9291
L6001 9278
L5988 9265
L5975 9239
L5962 9186
L5962 9121
L5975 9068
L5988 9042
L6001 9029
L6027 9016
" />
<path d="M6290 9016
L6316 9016
L6342 9029
L6355 9042
L6368 9068
L6382 9121
L6382 9186
L6368 9239
L6355 9265
L6342 9278
L6316 9291
L6290 9291
L6263 9278
L6250 9265
L6237 9239
L6224 9186
L6224 9121
L6237 9068
L6250 9042
L6263 9029
L6290 9016
" />
<path d="M6552 9016
L6578 9016
L6605 9029
L6618 9042
L6631 9068
L6644 9121
L6644 9186
L6631 9239
L6618 9265
L6605 9278
L6578 9291
L6552 9291
L6526 9278
L6513 9265
L6500 9239
L6487 9186
L6487 9121
L6500 9068
L6513 9042
L6526 9029
L6552 9016
" />
<path d="M6972 9291
L6972 9108
" />
<path d="M6972 9134
L6985 9121
L7011 9108
L7051 9108
L7077 9121
L7090 9147
L7090 9291
" />
<path d="M7090 9147
L7103 9121
L7130 9108
L7169 9108
L7195 9121
L7208 9147
L7208 9291
" />
<path d="M7340 9291
L7340 9108
" />
<path d="M7340 9134
L7353 9121
L7379 9108
L7418 9108
L7445 9121
L7458 9147
L7458 9291
" />
<path d="M7458 9147
L7471 9121
L7497 9108
L7536 9108
L7563 9121
L7576 9147
L7576 9291
" />
<path d="M2510 8929
L10384 8929
" />
<path d="M2510 8437
L2510 9404
" />
<path d="M10384 8437
L10384 9404
" />
<path d="M10384 8929
L9941 9160
" />
<path d="M10384 8929
L9941 8698
" />
<path d="M2510 8929
L2954 9160
" />
<path d="M2510 8929
L2954 8698
" />
<path d="M15911 3909
L15911 3752
" />
<path d="M15911 3830
L16186 3830
L16147 3804
L16121 3778
L16108 3752
" />
<path d="M16068 4067
L16081 4040
L16094 4027
L16121 4014
L16134 4014
L16160 4027
L16173 4040
L16186 4067
L16186 4119
L16173 4145
L16160 4158
L16134 4172
L16121 4172
L16094 4158
L16081 4145
L16068 4119
L16068 4067
L16055 4040
L16042 4027
L16016 4014
L15963 4014
L15937 4027
L15924 4040
L15911 4067
L15911 4119
L15924 4145
L15937 4158
L15963 4172
L16016 4172
L16042 4158
L16055 4145
L16068 4119
" />
<path d="M15937 4290
L15924 4303
L15911 4290
L15924 4277
L15937 4290
L15911 4290
" />
<path d="M16186 4473
L16186 4500
L16173 4526
L16160 4539
L16134 4552
L16081 4565
L16016 4565
L15963 4552
L15937 4539
L15924 4526
L15911 4500
L15911 4473
L15924 4447
L15937 4434
L15963 4421
L16016 4408
L16081 4408
L16134 4421
L16160 4434
L16173 4447
L16186 4473
" />
<path d="M16186 4736
L16186 4762
L16173 4788
L16160 4802
L16134 4815
L16081 4828
L16016 4828
L15963 4815
L15937 4802
L15924 4788
L15911 4762
L15911 4736
L15924 4710
L15937 4697
L15963 4683
L16016 4670
L16081 4670
L16134 4683
L16160 4697
L16173 4710
L16186 4736
" />
<path d="M16186 4998
L16186 5025
L16173 5051
L16160 5064
L16134 5077
L16081 5090
L16016 5090
L15963 5077
L15937 5064
L15924 5051
L15911 5025
L15911 4998
L15924 4972
L15937 4959
L15963 4946
L16016 4933
L16081 4933
L16134 4946
L16160 4959
L16173 4972
L16186 4998
" />
<path d="M15911 5418
L16094 5418
" />
<path d="M16068 5418
L16081 5431
L16094 5458
L16094 5497
L16081 5523
L16055 5536
L15911 5536
" />
<path d="M16055 5536
L16081 5550
L16094 5576
L16094 5615
L16081 5641
L16055 5655
L15911 5655
" />
<path d="M15911 5786
L16094 5786
" />
<path d="M16068 5786
L16081 5799
L16094 5825
L16094 5865
L16081 5891
L16055 5904
L15911 5904
" />
<path d="M16055 5904
L16081 5917
L16094 5943
L16094 5983
L16081 6009
L16055 6022
L15911 6022
" />
<path d="M15798 1350
L15798 8437
" />
<path d="M10384 1350
L16273 1350
" />
<path d="M10384 8437
L16273 8437
" />
<path d="M15798 8437
L15567 7993
" />
<path d="M15798 8437
L16028 7993
" />
<path d="M15798 1350
L15567 1794
" />
<path d="M15798 1350
L16028 1794
" />
</g>
<g style="fill:#C2C200; fill-opacity:0.0; 
stroke:#C2C200; stroke-width:100; stroke-opacity:1; 
stroke-linecap:round; stroke-linejoin:round;">
<path d="M9990 8437
L2904 8437
" />
</g>
<g style="fill:#484848; fill-opacity:0.0; 
stroke:#484848; stroke-width:100; stroke-opacity:1; 
stroke-linecap:round; stroke-linejoin:round;">
<path d="M2412 1252
L2215 1252
" />
<path d="M2412 1055
L2412 1252
" />
<path d="M2116 1350
L2510 1350
" />
<path d="M2510 956
L2116 1350
" />
<path d="M2510 1350
L2510 956
" />
</g>
<g style="fill:#484848; fill-opacity:0.0; 
stroke:#484848; stroke-width:50; stroke-opacity:1; 
stroke-linecap:round; stroke-linejoin:round;">
<path d="M273 392
L181 261
" />
<path d="M115 392
L115 116
L220 116
L246 130
L259 143
L273 169
L273 208
L259 235
L246 248
L220 261
L115 261
" />
<path d="M378 143
L391 130
L417 116
L483 116
L509 130
L522 143
L535 169
L535 195
L522 235
L364 392
L535 392
" />
<path d="M666 379
L666 392
L653 418
L640 431
" />
<path d="M1112 392
L1112 248
L1099 221
L1073 208
L1021 208
L994 221
" />
<path d="M1112 379
L1086 392
L1021 392
L994 379
L981 353
L981 326
L994 300
L1021 287
L1086 287
L1112 274
" />
<path d="M1283 392
L1257 379
L1244 353
L1244 116
" />
<path d="M1427 392
L1401 379
L1388 353
L1388 116
" />
<path d="M1861 379
L1834 392
L1782 392
L1756 379
L1742 366
L1729 340
L1729 261
L1742 235
L1756 221
L1782 208
L1834 208
L1861 221
" />
<path d="M2018 392
L1992 379
L1979 366
L1966 340
L1966 261
L1979 235
L1992 221
L2018 208
L2057 208
L2084 221
L2097 235
L2110 261
L2110 340
L2097 366
L2084 379
L2057 392
L2018 392
" />
<path d="M2228 392
L2228 208
" />
<path d="M2228 261
L2241 235
L2254 221
L2280 208
L2307 208
" />
<path d="M2399 208
L2399 392
" />
<path d="M2399 235
L2412 221
L2438 208
L2477 208
L2504 221
L2517 248
L2517 392
" />
<path d="M2753 379
L2727 392
L2674 392
L2648 379
L2635 353
L2635 248
L2648 221
L2674 208
L2727 208
L2753 221
L2766 248
L2766 274
L2635 300
" />
<path d="M2884 392
L2884 208
" />
<path d="M2884 261
L2897 235
L2910 221
L2937 208
L2963 208
" />
<path d="M3042 379
L3068 392
L3120 392
L3147 379
L3160 353
L3160 340
L3147 313
L3120 300
L3081 300
L3055 287
L3042 261
L3042 248
L3055 221
L3081 208
L3120 208
L3147 221
" />
</g>
<g style="fill:#484848; fill-opacity:0.0; 
stroke:#484848; stroke-width:100; stroke-opacity:1; 
stroke-linecap:round; stroke-linejoin:round;">
<path d="M1723 563
L50 563
" />
<path d="M2904 1744
L1723 563
" />
</g>
<g style="fill:#484848; fill-opacity:0.0; 
stroke:#484848; stroke-width:50; stroke-opacity:1; 
stroke-linecap:round; stroke-linejoin:round;">
<path d="M15274 5287
L15274 5235
L15261 5208
L15248 5195
L15209 5169
L15156 5156
L15051 5156
L15025 5169
L15012 5182
L14999 5208
L14999 5261
L15012 5287
L15025 5300
L15051 5313
L15117 5313
L15143 5300
L15156 5287
L15169 5261
L15169 5208
L15156 5182
L15143 5169
L15117 5156
" />
<path d="M15248 5038
L15261 5025
L15274 5038
L15261 5051
L15248 5038
L15274 5038
" />
<path d="M14999 4775
L14999 4907
L15130 4920
L15117 4907
L15104 4880
L15104 4815
L15117 4788
L15130 4775
L15156 4762
L15222 4762
L15248 4775
L15261 4788
L15274 4815
L15274 4880
L15261 4907
L15248 4920
" />
<path d="M14999 4592
L14999 4565
L15012 4539
L15025 4526
L15051 4513
L15104 4500
L15169 4500
L15222 4513
L15248 4526
L15261 4539
L15274 4565
L15274 4592
L15261 4618
L15248 4631
L15222 4644
L15169 4657
L15104 4657
L15051 4644
L15025 4631
L15012 4618
L14999 4592
" />
<path d="M14999 4329
L14999 4303
L15012 4277
L15025 4263
L15051 4250
L15104 4237
L15169 4237
L15222 4250
L15248 4263
L15261 4277
L15274 4303
L15274 4329
L15261 4355
L15248 4368
L15222 4382
L15169 4395
L15104 4395
L15051 4382
L15025 4368
L15012 4355
L14999 4329
" />
<path d="M15274 3909
L15090 3909
" />
<path d="M15117 3909
L15104 3896
L15090 3870
L15090 3830
L15104 3804
L15130 3791
L15274 3791
" />
<path d="M15130 3791
L15104 3778
L15090 3752
L15090 3712
L15104 3686
L15130 3673
L15274 3673
" />
<path d="M15274 3542
L15090 3542
" />
<path d="M15117 3542
L15104 3529
L15090 3502
L15090 3463
L15104 3437
L15130 3424
L15274 3424
" />
<path d="M15130 3424
L15104 3410
L15090 3384
L15090 3345
L15104 3319
L15130 3305
L15274 3305
" />
<path d="M14912 6173
L14912 2433
" />
<path d="M14321 6173
L15387 6173
" />
<path d="M14321 2433
L15387 2433
" />
<path d="M14912 2433
L15143 2876
" />
<path d="M14912 2433
L14681 2876
" />
<path d="M14912 6173
L15143 5729
" />
<path d="M14912 6173
L14681 5729
" />
</g>
<g style="fill:#C2C200; fill-opacity:0.0; 
stroke:#C2C200; stroke-width:100; stroke-opacity:1; 
stroke-linecap:round; stroke-linejoin:round;">
<path d="M14321 2826
L14321 5779
" />
<path d="M13927 2433
L10778 2433
" />
<path d="M13927 6173
L10778 6173
" />
<path d="M14321.7 2826.97 A393.701 393.701 0.0 0 0 13928 2433.27 " />
<path d="M13928 6173.43 A393.701 393.701 0.0 0 0 14321.7 5779.72 " />
<path d="M2904 1350
L9990 1350
" />
<path d="M2510 8043
L2510 1744
" />
<path d="M2904.33 1350.59 A393.701 393.701 0.0 0 0 2510.63 1744.29 " />
<path d="M2510.63 8043.5 A393.701 393.701 0.0 0 0 2904.33 8437.2 " />
<path d="M10384 2039
L10384 1744
" />
<path d="M10384 8043
L10384 6567
" />
</g> 
</svg>
